<?xml version="1.0" encoding="utf-8"?>
<!-- Generator: Adobe Illustrator 26.5.0, SVG Export Plug-In . SVG Version: 6.00 Build 0)  -->
<svg version="1.1" id="Designed_by_freepik" xmlns="http://www.w3.org/2000/svg" xmlns:xlink="http://www.w3.org/1999/xlink"
	 x="0px" y="0px" viewBox="0 0 129.7 166.1" style="enable-background:new 0 0 129.7 166.1;" xml:space="preserve">
<style type="text/css">
	.st0{fill:#ECECEC;}
	.st1{fill:#FFFFFF;}
	.st2{fill:#E1E1E1;}
	.st3{fill:#A069A8;}
	.st4{fill:#883894;}
	.st5{fill:#375A64;}
	.st6{fill:#1A2E35;}
	.st7{fill:#FF4F5B;}
	.st8{opacity:0.3;}
	.st9{fill:#FFBF9D;}
	.st10{fill:#FF9A6C;}
</style>
<g>
	<rect x="98.6" y="6.4" class="st0" width="28.6" height="28.6"/>
	<rect x="99.4" y="7.3" class="st1" width="26.9" height="27"/>
	<rect x="109" y="16.9" class="st2" width="7.7" height="7.7"/>
	<rect x="127.2" y="6.4" class="st2" width="1.2" height="28.6"/>
</g>
<g>
	<g>
		<g>
			<path class="st3" d="M111.4,117.4c0,28.7-21.9,49.1-53.6,49.1c-32.4,0-58.6-21.2-58.6-46.3c0-15.9,10.3-30.7,28.5-40.8
				C9.3,70,1.1,59.5,1.1,45.1c0-24.7,24.5-45.5,54.1-45.5c29.2,0,52.1,20.4,52.1,45.7c0,14.2-5.1,25.5-23.4,34.1
				C99.2,84.8,111.4,100,111.4,117.4z M39.3,46.2c0,7.3,6.9,14.4,18,18.2c6.9-4.5,11.6-11.8,11.6-18c0-7.5-6.7-13.9-14.8-13.9
				C46.2,32.4,39.3,38.7,39.3,46.2z M73.6,117.6c0.4-8.8-6.9-16.5-18.4-19.5c-15.9,6-15,18.7-15,19.5c0.4,8.8,7.9,15.9,16.5,15.9
				C65.3,133.5,73.2,126.2,73.6,117.6z"/>
		</g>
	</g>
	<g>
		<path class="st4" d="M77.2,114.7c0.4-8.8-6.9-16.5-18.4-19.5c-4.2,1.6-7.2,3.6-9.3,5.8c1.6-1.1,3.5-2.1,5.8-2.9
			c11.6,3,18.9,10.7,18.4,19.5c-0.2,4-2,7.7-4.8,10.5C73.5,125.2,76.9,120.3,77.2,114.7z"/>
		<path class="st4" d="M61.3,61.2c6.6-4.5,11.1-11.6,11.1-17.7c0-7.5-6.7-13.9-14.8-13.9c-4.4,0-8.5,1.9-11.3,5
			c2.3-1.3,4.9-2.1,7.7-2.1c8.2,0,14.8,6.4,14.8,13.9C68.9,51.3,65.9,56.9,61.3,61.2z"/>
		<path class="st4" d="M61.3,163.7c-32.4,0-58.6-21.2-58.6-46.3c0-11.9,5.8-23.1,16.3-32.3C6.3,94.6-0.8,107-0.8,120.2
			c0,25.1,26.2,46.3,58.6,46.3c15.5,0,28.6-4.9,38-13.2C86.7,159.9,74.9,163.7,61.3,163.7z"/>
		<path class="st4" d="M27.1,79.1c1.3-0.9,2.7-1.7,4.2-2.5C12.8,67.1,4.7,56.6,4.7,42.2c0-12,5.8-23.1,15.2-31.3
			C8.4,19.3,1.1,31.6,1.1,45.1C1.1,59.3,9.1,69.7,27.1,79.1z"/>
	</g>
</g>
<g>
	<g>
		<g>
			<g>
				<g>
					<path class="st5" d="M95.4,154.5l0.2,7.4c0,0-7.5,2.7-7.6,4.1l14.4,0.1l0.1-11.6L95.4,154.5z"/>
				</g>
			</g>
			<g>
				<g>
					<g>
						<path class="st6" d="M93.9,162.5c0,0.1,0.3,0.2,0.5,0.5c0.2,0.3,0.3,0.6,0.4,0.6c0.1,0,0.1-0.4-0.2-0.8
							C94.3,162.4,93.9,162.4,93.9,162.5z"/>
					</g>
				</g>
			</g>
			<g>
				<g>
					<g>
						<path class="st6" d="M93,164.3c0.1,0,0.2-0.3,0-0.7c-0.2-0.4-0.5-0.5-0.5-0.5c0,0.1,0.2,0.3,0.3,0.6
							C92.9,164,92.9,164.3,93,164.3z"/>
					</g>
				</g>
			</g>
		</g>
	</g>
	<g>
		<g>
			<g>
				<g>
					<path class="st5" d="M120.7,154.5l1.5,7.4c0,0,7.5,2.7,7.6,4.1l-14.4,0.1l-1.8-11.6L120.7,154.5z"/>
				</g>
			</g>
			<g>
				<g>
					<g>
						<path class="st6" d="M123.9,162.5c0,0.1-0.3,0.2-0.5,0.5c-0.2,0.3-0.3,0.6-0.4,0.6c-0.1,0-0.1-0.4,0.2-0.8
							C123.5,162.4,123.9,162.4,123.9,162.5z"/>
					</g>
				</g>
			</g>
			<g>
				<g>
					<g>
						<path class="st6" d="M124.8,164.3c-0.1,0-0.2-0.3,0-0.7c0.2-0.4,0.5-0.5,0.5-0.5c0,0.1-0.2,0.3-0.3,0.6
							C124.9,164,124.9,164.3,124.8,164.3z"/>
					</g>
				</g>
			</g>
		</g>
	</g>
	<g>
		<g>
			<g>
				<g>
					<polygon class="st7" points="113.4,83.7 124.3,161.9 113.7,161.7 101.8,95.1 104.6,162 93,161.3 88.9,83.2 					"/>
				</g>
			</g>
		</g>
		<g class="st8">
			<polygon points="89.2,89.3 89.2,88.2 114.1,89 114.4,91.1 			"/>
		</g>
		<g>
			<g>
				<path class="st6" d="M97.2,161.6c-0.1,0-0.8-15.6-1.7-34.8C94.6,107.6,93.9,92,94,92c0.1,0,0.8,15.6,1.7,34.8
					C96.6,146,97.3,161.6,97.2,161.6z"/>
			</g>
		</g>
		<g>
			<g>
				<path class="st6" d="M119.2,161c0,0,0-0.1,0-0.2c0-0.1,0-0.3-0.1-0.5c-0.1-0.5-0.2-1.1-0.3-2c-0.3-1.7-0.6-4.2-1.1-7.3
					c-0.9-6.2-2.2-14.7-3.8-24.2c-1.6-9.4-3.1-17.9-4.2-24.1c-0.6-3.1-1-5.6-1.3-7.3c-0.2-0.9-0.3-1.5-0.4-2c0-0.2-0.1-0.4-0.1-0.5
					c0-0.1,0-0.2,0-0.2s0,0.1,0,0.2c0,0.1,0.1,0.3,0.1,0.5c0.1,0.5,0.2,1.1,0.4,2c0.3,1.7,0.8,4.2,1.4,7.3
					c1.2,6.2,2.7,14.7,4.2,24.1c1.6,9.4,2.9,18,3.7,24.2c0.4,3.1,0.8,5.6,1,7.3c0.1,0.9,0.2,1.5,0.3,2c0,0.2,0,0.4,0.1,0.5
					C119.2,160.9,119.2,161,119.2,161z"/>
			</g>
		</g>
	</g>
	<g>
		<g>
			<g>
				<g>
					<path class="st7" d="M88.4,63.7c0,0-5.5-1.3-5.6-1.5l4.5-11.6c0.6-1.6,1.7-3,3.1-4c0.7-0.4,1.4-0.8,2.1-1.1
						c2.9-1,5.3-0.8,5.3-0.8l7.6-0.4c2.4,0.1,4.4,0.8,6,1.7c2.6,1.3,4.5,3.5,5.6,6.2l3.4,8.5l-8.6,1.8l-0.3,9.1l3.9,17.5L88,88.1
						l1.2-24l0,0L88.4,63.7z"/>
				</g>
			</g>
			<g class="st8">
				<g>
					<g>
						<path class="st1" d="M83.7,60.7c0,0,1.4,0.5,3.2,1c1.8,0.5,3.2,1,3.2,0.9c0,0-1.4-0.5-3.2-1C85.1,61.1,83.7,60.7,83.7,60.7z"
							/>
					</g>
				</g>
			</g>
			<g>
				<g>
					<g>
						<path class="st6" d="M108.5,52.5c0,0,0.1-0.1,0.1-0.2c0.1-0.1,0.2-0.3,0.4-0.5c0.2-0.2,0.4-0.5,0.6-0.8
							c0.3-0.3,0.6-0.5,0.9-0.8c0.3-0.3,0.7-0.5,1-0.7c0.3-0.2,0.6-0.4,0.9-0.5c0.3-0.1,0.5-0.2,0.6-0.3c0.1-0.1,0.2-0.1,0.2-0.1
							c0,0-0.1,0-0.2,0.1c-0.2,0-0.4,0.1-0.6,0.2c-0.3,0.1-0.6,0.3-0.9,0.5c-0.3,0.2-0.7,0.4-1,0.7c-0.3,0.3-0.6,0.6-0.9,0.8
							c-0.3,0.3-0.5,0.5-0.6,0.8c-0.2,0.2-0.3,0.4-0.4,0.6C108.5,52.5,108.5,52.5,108.5,52.5z"/>
					</g>
				</g>
			</g>
			<g>
				<g>
					<g>
						<path class="st6" d="M109.6,55.3c0,0,0.2,2.8,0.6,6.2c0.4,3.4,0.7,6.2,0.7,6.2c0,0-0.2-2.8-0.6-6.2
							C109.9,58.1,109.6,55.3,109.6,55.3z"/>
					</g>
				</g>
			</g>
			<g>
				<g>
					<g>
						<path class="st6" d="M91,50.1c0,0,0-0.2,0.1-0.6c0.1-0.3,0.2-0.8,0.4-1.3c0.2-0.5,0.4-1,0.6-1.3c0.2-0.3,0.3-0.5,0.3-0.5
							c0,0,0,0-0.1,0.1c-0.1,0.1-0.1,0.2-0.2,0.4c-0.2,0.3-0.4,0.8-0.6,1.3c-0.2,0.5-0.3,1-0.4,1.4c0,0.2,0,0.3-0.1,0.4
							C91,50.1,91,50.1,91,50.1z"/>
					</g>
				</g>
			</g>
			<g>
				<g>
					<g>
						<path class="st6" d="M90.5,59.9c0,0,0-0.1,0-0.3c0-0.2,0.1-0.4,0.1-0.8c0.1-0.6,0.1-1.5,0.2-2.5c0-1,0-1.9,0-2.5
							c0-0.3,0-0.6,0-0.8c0-0.2,0-0.3,0-0.3c0,0,0,0.1,0,0.3c0,0.2,0,0.5,0,0.8c0,0.6,0,1.5,0,2.5c0,1-0.1,1.9-0.1,2.5
							c0,0.3,0,0.6-0.1,0.8C90.5,59.8,90.5,59.9,90.5,59.9z"/>
					</g>
				</g>
			</g>
			<g>
				<g>
					<path class="st1" d="M101.9,58.3c2,0.1,4,0.1,6-0.1v0.8h-6V58.3z"/>
				</g>
			</g>
			<g class="st8">
				<g>
					<g>
						<path class="st1" d="M96,45.4c0,0,0,0,0,0.1c0,0.1,0,0.2-0.1,0.3c0,0.3-0.1,0.7-0.1,1.3c-0.1,1.1-0.2,2.7-0.2,4.6l0,0.1l0.1,0
							c1.2-0.6,2.5-1.2,3.9-1.9c2.6-1.3,5-2.5,6.8-3.4c0.9-0.4,1.6-0.8,2.1-1c0.2-0.1,0.4-0.2,0.6-0.3c0.1,0,0.1-0.1,0.1-0.1
							c0,0,0,0,0,0c0,0,0,0-0.1,0c0,0-0.1,0-0.1,0.1c-0.1,0.1-0.3,0.2-0.6,0.3c-0.5,0.2-1.2,0.6-2.1,1c-1.7,0.9-4.1,2.1-6.8,3.4
							c-1.4,0.7-2.7,1.3-3.9,1.9l0.1,0c0-1.9,0.1-3.5,0.2-4.6c0-0.6,0.1-1,0.1-1.3c0-0.1,0-0.3,0-0.3C96,45.4,96,45.4,96,45.4z"/>
					</g>
				</g>
			</g>
			<g class="st8">
				<g>
					<g>
						<path class="st1" d="M110.3,61.5C110.3,61.5,110.3,61.5,110.3,61.5c0.2,0,0.3-0.1,0.4-0.1c0.3-0.1,0.6-0.2,1-0.3
							c0.9-0.2,2.1-0.5,3.4-0.8c1.3-0.3,2.5-0.6,3.4-0.8c0.4-0.1,0.8-0.2,1-0.2c0.1,0,0.2,0,0.3-0.1c0.1,0,0.1,0,0.1,0
							c0,0,0,0-0.1,0c-0.1,0-0.2,0-0.3,0c-0.2,0-0.6,0.1-1,0.2c-0.9,0.2-2.1,0.4-3.4,0.8c-1.3,0.3-2.5,0.6-3.4,0.9
							c-0.4,0.1-0.8,0.2-1,0.3C110.5,61.4,110.4,61.4,110.3,61.5C110.3,61.5,110.3,61.5,110.3,61.5z"/>
					</g>
				</g>
			</g>
			<g>
				<g>
					<g>
						<g>
							<path class="st6" d="M97.1,43.9c0,0-0.5,0.2-1,1c-0.5,0.7-0.9,1.9-1.2,3.2c-0.1,0.7-0.2,1.3-0.2,1.9c0,0.3,0,0.6,0,0.8
								c0,0.3,0,0.5,0,0.7c0,0.2,0,0.4,0.1,0.6c0,0.2,0.1,0.3,0.1,0.4c0,0.2,0.1,0.4,0.1,0.4c0,0,0-0.1,0-0.4c0-0.1,0-0.3,0-0.4
								c0-0.2,0-0.4,0-0.6c0-0.2,0-0.5,0-0.7c0-0.3,0-0.5,0-0.8c0-0.6,0.1-1.2,0.2-1.8c0.3-1.3,0.7-2.4,1.1-3.1
								c0.2-0.4,0.5-0.6,0.6-0.8C96.9,44,97.1,44,97.1,43.9z"/>
						</g>
					</g>
				</g>
				<g>
					<g>
						<g>
							<path class="st6" d="M105.5,44c0,0,0.1,0.2,0.4,0.6c0.3,0.4,0.6,0.9,0.9,1.6c0.3,0.7,0.5,1.6,0.7,2.7c0.1,1,0.2,2.2,0.3,3.4
								c0.1,1.2,0.1,2.4,0.1,3.4c0,1.1,0,2,0,2.8c0,0.8,0,1.4,0,1.9c0,0.4,0,0.7,0.1,0.7c0,0,0-0.2,0-0.7c0-0.5,0-1.1,0-1.9
								c0-0.8,0-1.7,0.1-2.8c0-1.1,0-2.2,0-3.4c-0.1-1.2-0.1-2.4-0.3-3.4c-0.2-1-0.4-2-0.7-2.7c-0.3-0.7-0.7-1.3-1-1.6
								C105.7,44.1,105.5,44,105.5,44z"/>
						</g>
					</g>
				</g>
				<g>
					<g>
						<g>
							<path class="st6" d="M93,59.6c0,0,0-0.2,0-0.6c0-0.4,0-1,0-1.7c0-0.4,0-0.7,0-1.2c0-0.4,0-0.9,0-1.3c0-0.5,0.2-0.9,0.5-1.3
								c0.3-0.4,0.8-0.6,1.3-0.6c0.5,0,1,0.2,1.4,0.5c0.4,0.3,0.6,0.8,0.7,1.2c0.1,0.4,0.2,0.9,0.2,1.3c0.1,0.4,0.1,0.8,0.2,1.1
								c0.1,0.7,0.2,1.3,0.3,1.7c0.1,0.4,0.1,0.6,0.1,0.6c0,0,0-0.2-0.1-0.6c0-0.4-0.1-1-0.2-1.7c0-0.4-0.1-0.7-0.2-1.1
								c-0.1-0.4-0.1-0.9-0.2-1.3c-0.1-0.5-0.3-1-0.7-1.3c-0.4-0.4-0.9-0.6-1.5-0.6c-0.6,0-1.1,0.3-1.5,0.7
								c-0.4,0.4-0.5,0.9-0.5,1.4c0,0.5,0,0.9,0,1.3c0,0.4,0,0.8,0,1.2c0,0.7,0,1.3,0,1.7C93,59.4,93,59.6,93,59.6z"/>
						</g>
					</g>
				</g>
				<g>
					<g>
						<path class="st6" d="M94.8,51.1c0.1,0.7,0.3,1.4,0.7,1.9c-0.4-0.1-0.8-0.1-1.2,0c0.3-0.6,0.3-1.3,0.3-1.9"/>
					</g>
				</g>
				<g>
					<g>
						<g>
							<path class="st6" d="M93,55.3c0,0,0.1-0.3,0.3-0.7c0.1-0.2,0.3-0.4,0.5-0.6c0.2-0.2,0.6-0.4,0.9-0.4c0.4-0.1,0.7,0,1,0.1
								c0.3,0.1,0.5,0.3,0.7,0.4c0.4,0.3,0.5,0.6,0.5,0.6c0,0-0.1-0.3-0.4-0.7c-0.2-0.2-0.4-0.4-0.8-0.5c-0.3-0.1-0.7-0.2-1.1-0.1
								c-0.4,0.1-0.7,0.3-1,0.5c-0.3,0.2-0.4,0.5-0.5,0.7C92.9,55,93,55.3,93,55.3z"/>
						</g>
					</g>
				</g>
			</g>
		</g>
		<g>
			<g>
				<g>
					<path class="st9" d="M88,76.4c-1.1,0-2.1-0.8-2.6-1.8c-0.5-1-0.7-2.1-0.7-3.2c-0.1-2.9,0.2-5.9,1.1-8.7l4.9,0.9l-1.3,13.1
						L88,76.4z"/>
				</g>
			</g>
			<g>
				<g>
					<g>
						<polygon class="st6" points="107.7,78.1 91.8,77.5 88,58.9 104.7,59.8 						"/>
					</g>
				</g>
				<g>
					<g>
						<path class="st5" d="M99.5,59.5l-0.2-0.5L98,59c0,0-0.3-0.8-2.1-0.9c-1.6-0.1-1.7,0.7-1.7,0.7h-0.9v0.4L99.5,59.5z"/>
					</g>
				</g>
			</g>
			<g>
				<g>
					<g>
						<path class="st9" d="M90.7,72.1l-1.2-0.4c-0.2-0.1-0.5-0.1-0.7,0l0,0c-0.3,0.1-0.5,0.2-0.7,0.4c-0.4,0.4-1,1-1.1,1.2
							c-0.1,0.3-0.1,0.8,0,1s-0.3,1.1-0.2,1.4c0.1,0.3,0.1,0.6,0.2,0.7c0.1,0.1,0,0.6,0.3,0.9c0.3,0.3,0.5,0.5,0.5,0.5
							s3.3,0.2,3.6,0c0.3-0.2,0.9-0.7,0.9-0.7s0.3-0.5-0.2-0.6l1.9-0.7c0.2-0.1,0.4-0.3,0.3-0.6c0-0.1-0.1-0.1-0.2-0.2
							c0,0,0.8-0.3,1-0.4c0.4-0.2,0.5-1.1-0.3-1c-0.4,0.1-1,0.2-1,0.2s0.3-0.5-0.1-0.8c-0.3-0.2-1.4,0-1.4,0L90.7,72.1L90.7,72.1z"
							/>
					</g>
				</g>
				<g>
					<g>
						<g>
							<path class="st10" d="M90.3,77c0,0,0.4,0,1-0.1c0.5-0.1,0.9-0.4,0.9-0.4c0,0-0.4,0.2-0.9,0.3C90.7,77,90.3,77,90.3,77z"/>
						</g>
					</g>
				</g>
				<g>
					<g>
						<g>
							<path class="st10" d="M91,75.9c0,0,0.7-0.1,1.5-0.3c0.8-0.2,1.5-0.4,1.5-0.4c0,0-0.7,0.1-1.5,0.3C91.7,75.7,91,75.8,91,75.9z
								"/>
						</g>
					</g>
				</g>
				<g>
					<g>
						<g>
							<path class="st10" d="M90.6,74.7c0,0,0.7-0.1,1.6-0.3c0.9-0.2,1.6-0.4,1.6-0.4c0,0-0.7,0.1-1.6,0.3
								C91.3,74.5,90.6,74.7,90.6,74.7z"/>
						</g>
					</g>
				</g>
				<g>
					<g>
						<g>
							<path class="st10" d="M89.4,73.2c0,0,0.2,0.1,0.4,0.1c0.1,0,0.3,0.1,0.5,0.1c0.1,0,0.2,0,0.3,0.1c0.1,0,0.2,0,0.3,0
								c0.1,0,0.2,0,0.3-0.1c0.1,0,0.2,0,0.3-0.1c0.2,0,0.3-0.1,0.5-0.1c0.3-0.1,0.4-0.1,0.4-0.1c0,0-0.2,0-0.4,0.1
								c-0.1,0-0.3,0.1-0.5,0.1c-0.2,0-0.4,0.1-0.6,0.1c-0.2,0-0.4-0.1-0.6-0.1c-0.2,0-0.3-0.1-0.5-0.1
								C89.5,73.2,89.4,73.2,89.4,73.2z"/>
						</g>
					</g>
				</g>
				<g>
					<g>
						<g>
							<path class="st10" d="M89.2,73.8c0,0-0.1,0-0.1,0.1c0,0.1-0.1,0.2,0,0.4c0,0.1,0.1,0.2,0.2,0.3c0.1,0.1,0.1,0.1,0.1,0
								c0,0-0.2-0.1-0.3-0.4C89.1,74.1,89.2,73.8,89.2,73.8z"/>
						</g>
					</g>
				</g>
				<g>
					<g>
						<g>
							<path class="st10" d="M89.2,75.1c0,0-0.1,0.1-0.1,0.3c0,0.2,0.1,0.3,0.1,0.3c0,0,0-0.1,0-0.3C89.2,75.3,89.3,75.1,89.2,75.1z
								"/>
						</g>
					</g>
				</g>
				<g>
					<g>
						<g>
							<path class="st10" d="M89.2,76.5c0,0-0.1,0.1-0.1,0.2c0,0.1,0.1,0.2,0.1,0.2c0,0,0-0.1,0-0.2C89.2,76.6,89.2,76.5,89.2,76.5z
								"/>
						</g>
					</g>
				</g>
				<g>
					<g>
						<g>
							<path class="st10" d="M88.8,73.1c0,0,0.1,0,0.3,0c0.1,0,0.2,0,0.3,0c0.1,0,0.3,0,0.4,0c0.1,0,0.3,0.1,0.4,0.2
								c0.1,0.1,0.2,0.1,0.3,0.2c0.2,0.1,0.3,0.1,0.3,0.1c0,0-0.1,0-0.3-0.2c-0.2-0.1-0.3-0.3-0.7-0.4c-0.1,0-0.2,0-0.2,0
								c-0.1,0-0.1,0-0.2,0c-0.1,0-0.2,0-0.3,0.1C89,73.1,88.8,73.1,88.8,73.1z"/>
						</g>
					</g>
				</g>
			</g>
			<g>
				<g>
					<g>
						<path class="st10" d="M86.9,76.5c0,0,0-0.1-0.1-0.2c-0.1-0.2-0.1-0.4-0.1-0.7c0-0.1,0-0.3,0.1-0.5c0-0.2,0.1-0.3,0.2-0.5
							c0-0.2,0-0.4,0-0.6c0-0.2,0-0.4,0.1-0.6c0.1-0.2,0.2-0.4,0.3-0.5c0.1-0.2,0.3-0.3,0.4-0.5c0.2-0.3,0.5-0.5,0.8-0.6
							c0.3-0.1,0.5-0.1,0.7-0.1c0.2,0,0.2,0.1,0.2,0.1c0,0,0,0-0.1,0c0,0-0.1,0-0.2-0.1c-0.2,0-0.4,0-0.7,0.1
							c-0.3,0.1-0.6,0.3-0.8,0.6c-0.1,0.1-0.3,0.3-0.4,0.5c-0.1,0.2-0.3,0.3-0.4,0.5c-0.1,0.2-0.1,0.4-0.1,0.7c0,0.2,0.1,0.4,0,0.6
							c0,0.2-0.1,0.4-0.1,0.5c0,0.2-0.1,0.3-0.1,0.5c0,0.3,0.1,0.5,0.2,0.7C86.9,76.4,86.9,76.5,86.9,76.5z"/>
					</g>
				</g>
			</g>
			<g>
				<g>
					<g>
						<path class="st9" d="M98,67.3l13,2.1l-0.6-6.8l7.2-1.4l0.9,10.1l0.2,2.3c0.1,1.6-0.6,3.1-1.9,4l0,0c-1.2,0.8-2.6,1-4,0.6
							l-2.8-0.9l-13.6-4.9"/>
					</g>
				</g>
				<g>
					<g>
						<g>
							<path class="st9" d="M90.2,65.9c-0.1-0.2,0.1-0.4,0.4-0.4c0.7,0,2.7,0,3.4,0.2c0.9,0.2,4.1,1.6,4.1,1.6l-1.4,5l-5,0.1
								c0,0-1.8-0.8-1.8-1.2c0-0.2,0-0.7,0-0.7l-0.5-0.3c-0.8-0.5-0.3-1.5-0.3-1.5s-0.6-0.3-0.6-0.9c0-0.6,0.4-0.8,0.4-0.8
								s-0.2-0.8,0.2-1c0.4-0.2,1.1,0.1,1.1,0.1C90.2,66,90.2,66,90.2,65.9z"/>
						</g>
					</g>
					<g>
						<g>
							<g>
								<path class="st10" d="M89.9,66c0,0,0.1,0,0.2,0.1c0.1,0,0.2,0.1,0.4,0.1c0.4,0.1,0.9,0.1,1.4,0.2c0.6,0.1,1.1,0.1,1.4,0.2
									c0.4,0.1,0.6,0.2,0.6,0.2c0,0,0,0-0.1-0.1c-0.1,0-0.2-0.1-0.4-0.2c-0.4-0.1-0.9-0.2-1.4-0.2c-0.6-0.1-1.1-0.1-1.4-0.2
									C90.1,66,89.9,66,89.9,66z"/>
							</g>
						</g>
					</g>
					<g>
						<g>
							<g>
								<path class="st10" d="M88.9,67c0,0,0.1,0.1,0.3,0.2c0.2,0.1,0.5,0.2,0.9,0.3c0.4,0.1,0.7,0.1,0.9,0.2c0.2,0,0.4,0,0.4,0
									c0,0-0.6-0.1-1.3-0.3c-0.4-0.1-0.7-0.2-0.9-0.2C89.1,67.1,89,67,88.9,67z"/>
							</g>
						</g>
					</g>
					<g>
						<g>
							<g>
								<path class="st10" d="M89.1,68.8c0,0,0.5,0.2,1.1,0.4c0.6,0.1,1.1,0.2,1.1,0.1c0,0-0.5-0.1-1.1-0.2
									C89.6,68.9,89.1,68.7,89.1,68.8z"/>
							</g>
						</g>
					</g>
					<g>
						<g>
							<g>
								<path class="st10" d="M89.4,70.3c0,0,0.3,0.2,0.8,0.3c0.5,0.1,0.9,0.1,0.9,0.1c0,0-0.4-0.1-0.8-0.2
									C89.8,70.4,89.4,70.2,89.4,70.3z"/>
							</g>
						</g>
					</g>
					<g>
						<g>
							<g>
								<path class="st10" d="M92,69.4c0,0,0.1,0,0.2,0.1c0.1,0,0.2,0,0.4-0.1c0.1-0.1,0.2-0.2,0.2-0.3c0-0.1,0-0.2,0-0.2
									c0,0-0.1,0.2-0.3,0.4C92.2,69.4,92,69.3,92,69.4z"/>
							</g>
						</g>
					</g>
					<g>
						<g>
							<g>
								<path class="st10" d="M92.1,70.9c0,0,0.2,0,0.4-0.1c0.2-0.2,0.2-0.3,0.2-0.3c0,0-0.1,0.1-0.2,0.3
									C92.2,70.9,92.1,70.9,92.1,70.9z"/>
							</g>
						</g>
					</g>
					<g>
						<g>
							<g>
								<path class="st10" d="M92.6,67.8c0,0,0.1,0.1,0.3,0c0.1-0.1,0.1-0.2,0.1-0.2c0,0-0.1,0.1-0.2,0.2
									C92.8,67.7,92.7,67.7,92.6,67.8z"/>
							</g>
						</g>
					</g>
					<g>
						<g>
							<g>
								<path class="st10" d="M98,67.3C98,67.3,98,67.3,98,67.3c-0.1,0-0.1-0.1-0.2-0.1c-0.1,0-0.3-0.1-0.5-0.2
									c-0.4-0.2-1-0.4-1.7-0.7c-0.4-0.2-0.8-0.3-1.2-0.5c-0.2-0.1-0.5-0.2-0.7-0.2c-0.3,0-0.5-0.1-0.8-0.1c-0.5,0-1.1-0.1-1.7-0.1
									c-0.1,0-0.3,0-0.5,0c-0.1,0-0.2,0-0.2,0c-0.1,0-0.2,0-0.2,0.1c-0.2,0.1-0.3,0.3-0.2,0.4c0,0,0,0,0.1,0.1c0,0,0,0,0.1,0
									c0,0,0.1,0,0.1,0.1c0.1,0,0.2,0.1,0.2,0.1c0,0,0.1,0,0.1,0c0,0,0-0.1,0-0.1C90.4,66,90.2,66,90,65.9c-0.2,0-0.4-0.1-0.7,0
									c-0.1,0-0.2,0.1-0.3,0.1c-0.1,0.1-0.1,0.2-0.2,0.3c0,0.2,0,0.5,0,0.7l0-0.1c-0.1,0.1-0.2,0.1-0.3,0.2
									c-0.2,0.3-0.2,0.6-0.1,0.9c0.1,0.3,0.3,0.5,0.6,0.7l0-0.1c-0.1,0.3-0.2,0.6-0.2,0.9c0,0.3,0.2,0.6,0.5,0.7l0,0
									c0.2,0.1,0.4,0.2,0.5,0.3l0,0c0,0.1,0,0.3,0,0.4c0,0.1,0,0.1,0,0.2c0,0,0,0.1,0,0.1c0,0,0,0.1,0,0.1
									c0.1,0.1,0.2,0.2,0.3,0.3c0.1,0.1,0.2,0.1,0.3,0.2c0.4,0.3,0.8,0.5,1.2,0.6c0,0,0,0,0,0c1.5,0,2.7,0,3.6-0.1
									c0.4,0,0.8,0,1,0c0.1,0,0.2,0,0.3,0c0.1,0,0.1,0,0.1,0c0,0,0,0-0.1,0c-0.1,0-0.2,0-0.3,0c-0.2,0-0.6,0-1,0
									c-0.9,0-2.1,0-3.6,0l0,0c-0.4-0.2-0.8-0.4-1.2-0.6c-0.1-0.1-0.2-0.1-0.3-0.2c-0.1-0.1-0.2-0.2-0.3-0.2c0,0,0,0,0-0.1
									c0,0,0-0.1,0-0.1c0-0.1,0-0.1,0-0.2c0-0.1,0-0.3,0-0.4c0,0,0,0,0,0c-0.2-0.1-0.4-0.2-0.5-0.3l0,0c-0.2-0.1-0.4-0.4-0.4-0.6
									c0-0.3,0-0.6,0.1-0.8c0,0,0-0.1,0-0.1c-0.2-0.1-0.4-0.4-0.5-0.6c-0.1-0.3,0-0.6,0.1-0.8c0.1-0.1,0.2-0.2,0.2-0.2
									c0,0,0,0,0-0.1c-0.1-0.2-0.1-0.4,0-0.6c0-0.1,0.1-0.2,0.1-0.3c0.1-0.1,0.2-0.1,0.3-0.1c0.2,0,0.4,0,0.6,0
									c0.2,0,0.4,0.1,0.6,0.1l0-0.1c-0.1,0-0.1,0-0.2-0.1c0,0-0.1,0-0.1,0c0,0-0.1,0-0.1,0c0-0.1,0-0.1,0-0.2
									c0-0.1,0.1-0.1,0.1-0.1c0.1,0,0.1,0,0.2,0c0.1,0,0.2,0,0.2,0c0.2,0,0.3,0,0.5,0c0.6,0,1.2,0,1.7,0.1c0.3,0,0.5,0,0.8,0.1
									c0.2,0,0.5,0.1,0.7,0.2c0.4,0.2,0.9,0.3,1.2,0.5c0.7,0.3,1.3,0.5,1.7,0.7c0.2,0.1,0.4,0.1,0.5,0.2
									C97.9,67.3,98,67.3,98,67.3C98,67.3,98,67.3,98,67.3z"/>
							</g>
						</g>
					</g>
				</g>
				<g>
					<g>
						<g>
							<path class="st10" d="M111,69.4c0,0,0.5,0.3,1,0.8c0.5,0.5,0.6,1.1,0.6,1.1c0,0,0-0.1-0.1-0.4c-0.1-0.2-0.2-0.5-0.5-0.8
								c-0.2-0.3-0.5-0.5-0.7-0.6C111.2,69.4,111,69.4,111,69.4z"/>
						</g>
					</g>
				</g>
			</g>
		</g>
		<g>
			<g>
				<g>
					<g>
						<g>
							<g>
								<g>
									<g>
										<g>
											<g>
												<g>
													<path class="st9" d="M94,29.1c0.3-3.4,3.1-6.1,6.5-6.1l0.3,0c3.7,0.2,5.5,3.4,5.2,7.1l-0.6,14.7c0,0.2-0.2,0.5-0.4,0.6
														l-8.2,3.9l0.3-7.7c0,0-3.5-0.5-3.6-4.1C93.5,35.8,93.8,32.3,94,29.1z"/>
												</g>
											</g>
											<g>
												<g>
													<g>
														<g>
															<g>
																<g>
																	<g>
																		<g>
																			<g>
																				<g>
																					<g>
																						<path class="st10" d="M97.1,41.6c0,0,2.3,0.1,4.6-1.4c0,0-1.1,2.5-4.6,2.2L97.1,41.6z"/>
																					</g>
																				</g>
																			</g>
																		</g>
																	</g>
																</g>
															</g>
														</g>
													</g>
												</g>
											</g>
										</g>
									</g>
								</g>
								<g>
									<g>
										<g>
											<g>
												<g>
													<g>
														<g>
															<g>
																<g>
																	<g>
																		<g>
																			<g>
																				<g>
																					<g>
																						<g>
																							<g>
																								<g>
																									<path class="st6" d="M94.9,31.9c0,0.3,0.2,0.5,0.5,0.5c0.3,0,0.5-0.2,0.5-0.5c0-0.3-0.2-0.5-0.5-0.5
																										C95.1,31.4,94.9,31.6,94.9,31.9z"/>
																								</g>
																							</g>
																						</g>
																					</g>
																				</g>
																			</g>
																		</g>
																	</g>
																</g>
															</g>
														</g>
														<g>
															<g>
																<g>
																	<g>
																		<g>
																			<g>
																				<g>
																					<g>
																						<g>
																							<g>
																								<g>
																									<g>
																										<path class="st6" d="M94.8,30.8c0.1,0.1,0.4-0.2,1-0.2c0.5,0,0.9,0.3,1,0.2c0,0,0-0.1-0.2-0.3
																											c-0.2-0.1-0.5-0.2-0.8-0.2c-0.3,0-0.6,0.1-0.8,0.3C94.8,30.7,94.7,30.8,94.8,30.8z"/>
																									</g>
																								</g>
																							</g>
																						</g>
																					</g>
																				</g>
																			</g>
																		</g>
																	</g>
																</g>
															</g>
														</g>
													</g>
													<g>
														<g>
															<g>
																<g>
																	<g>
																		<g>
																			<g>
																				<g>
																					<g>
																						<g>
																							<g>
																								<g>
																									<path class="st6" d="M100,32c0,0.3,0.2,0.5,0.5,0.5c0.3,0,0.5-0.2,0.5-0.5c0-0.3-0.2-0.5-0.5-0.5
																										C100.2,31.5,100,31.7,100,32z"/>
																								</g>
																							</g>
																						</g>
																					</g>
																				</g>
																			</g>
																		</g>
																	</g>
																</g>
															</g>
														</g>
														<g>
															<g>
																<g>
																	<g>
																		<g>
																			<g>
																				<g>
																					<g>
																						<g>
																							<g>
																								<g>
																									<g>
																										<path class="st6" d="M100.1,30.9c0.1,0.1,0.4-0.2,1-0.2c0.5,0,0.9,0.3,1,0.2c0,0,0-0.1-0.2-0.3
																											c-0.2-0.1-0.5-0.2-0.8-0.2c-0.3,0-0.6,0.1-0.8,0.3C100.1,30.8,100.1,30.9,100.1,30.9z"/>
																									</g>
																								</g>
																							</g>
																						</g>
																					</g>
																				</g>
																			</g>
																		</g>
																	</g>
																</g>
															</g>
														</g>
													</g>
													<g>
														<g>
															<g>
																<g>
																	<g>
																		<g>
																			<g>
																				<g>
																					<g>
																						<g>
																							<g>
																								<g>
																									<path class="st6" d="M98.1,35c0,0-0.3-0.1-0.9-0.2c-0.1,0-0.3,0-0.3-0.1c0-0.1,0-0.2,0.1-0.4
																										c0.1-0.3,0.3-0.7,0.4-1.1c0.6-1.5,1-2.7,0.9-2.8c-0.1,0-0.6,1.2-1.1,2.7c-0.1,0.4-0.3,0.7-0.4,1.1
																										c-0.1,0.2-0.1,0.3-0.1,0.5c0,0.1,0.1,0.2,0.2,0.2c0.1,0,0.2,0,0.2,0C97.8,35,98.1,35,98.1,35z"/>
																								</g>
																							</g>
																						</g>
																					</g>
																				</g>
																			</g>
																		</g>
																	</g>
																</g>
															</g>
														</g>
													</g>
													<g>
														<g>
															<g>
																<g>
																	<g>
																		<g>
																			<g>
																				<g>
																					<g>
																						<g>
																							<g>
																								<g>
																									<path class="st6" d="M99.7,35.3c-0.1,0-0.1,0.6-0.6,1c-0.5,0.4-1.1,0.4-1.1,0.4c0,0,0.1,0.1,0.4,0.1
																										c0.3,0,0.6-0.1,0.9-0.3c0.3-0.3,0.4-0.6,0.5-0.8C99.8,35.5,99.8,35.3,99.7,35.3z"/>
																								</g>
																							</g>
																						</g>
																					</g>
																				</g>
																			</g>
																		</g>
																	</g>
																</g>
															</g>
														</g>
													</g>
												</g>
											</g>
										</g>
										<g>
											<g>
												<g>
													<g>
														<g>
															<g>
																<g>
																	<g>
																		<g>
																			<g>
																				<g>
																					<path class="st6" d="M100,28.8c0.1,0.1,0.6,0.1,1.2,0.2c0.6,0.1,1.2,0.2,1.2,0.1c0-0.1-0.1-0.2-0.3-0.3
																						c-0.2-0.1-0.5-0.3-0.9-0.3c-0.4,0-0.7,0-1,0.1C100.1,28.6,99.9,28.7,100,28.8z"/>
																				</g>
																			</g>
																		</g>
																	</g>
																</g>
															</g>
														</g>
													</g>
												</g>
											</g>
										</g>
										<g>
											<g>
												<g>
													<g>
														<g>
															<g>
																<g>
																	<g>
																		<g>
																			<g>
																				<g>
																					<path class="st6" d="M95,29.3c0.1,0.1,0.5,0,0.9,0c0.4,0,0.8,0.1,0.9,0c0-0.1,0-0.2-0.2-0.3
																						c-0.2-0.1-0.4-0.2-0.7-0.2c-0.3,0-0.6,0.1-0.7,0.2C95,29.1,94.9,29.2,95,29.3z"/>
																				</g>
																			</g>
																		</g>
																	</g>
																</g>
															</g>
														</g>
													</g>
												</g>
											</g>
										</g>
									</g>
								</g>
							</g>
						</g>
					</g>
					<g>
						<g>
							<g>
								<g>
									<g>
										<g>
											<g>
												<g>
													<g>
														<g>
															<g>
																<g>
																	<path class="st9" d="M105.6,32.8c0.1,0,2.4-0.7,2.4,1.7c-0.1,2.4-2.5,1.8-2.5,1.8
																		C105.5,36.2,105.6,32.8,105.6,32.8z"/>
																</g>
															</g>
														</g>
													</g>
												</g>
											</g>
										</g>
									</g>
								</g>
							</g>
						</g>
						<g>
							<g>
								<g>
									<g>
										<g>
											<g>
												<g>
													<g>
														<g>
															<g>
																<g>
																	<g>
																		<path class="st10" d="M106,35.3c0,0,0,0,0.1,0.1c0.1,0,0.2,0.1,0.3,0c0.3-0.1,0.5-0.5,0.5-0.9
																			c0-0.2,0-0.4-0.1-0.6c-0.1-0.2-0.2-0.3-0.3-0.3c-0.1,0-0.2,0-0.3,0.1c0,0.1,0,0.1,0,0.1c0,0-0.1,0,0-0.1
																			c0,0,0-0.1,0.1-0.1c0.1,0,0.1-0.1,0.2-0.1c0.2,0,0.3,0.2,0.4,0.4c0.1,0.2,0.1,0.4,0.1,0.7c0,0.5-0.3,0.9-0.6,1
																			c-0.2,0-0.3,0-0.4-0.1C106,35.4,106,35.3,106,35.3z"/>
																	</g>
																</g>
															</g>
														</g>
													</g>
												</g>
											</g>
										</g>
									</g>
								</g>
							</g>
						</g>
					</g>
					<g>
						<g>
							<path class="st6" d="M104,25.6L94,25.8c0.3-0.7,0.9-1.3,1.5-1.7c1.3-1,2.9-1.6,4.6-1.6c1.6,0,5,2,6.2,3.1
								c1,0.9,0.9,1.7,0.9,1.7c0.2,1.3-0.6,2.8-0.9,4.1c-0.1,0.7-0.4,2.7-0.4,2.7s0,0,0,0c-0.6,0-0.8-0.4-0.7-1l0.1-2.2
								c0,0-1.9-1.3-1-3.8C104.4,26.9,104.7,26,104,25.6z"/>
						</g>
					</g>
				</g>
				<g>
					<g>
						<g>
							<g>
								<path class="st10" d="M101.9,33.2C101.9,33.2,102,33.2,101.9,33.2c0.1-0.1,0.1-0.1,0-0.1C101.9,33.1,101.9,33.1,101.9,33.2
									C101.9,33.2,101.9,33.2,101.9,33.2z"/>
							</g>
						</g>
					</g>
				</g>
				<g>
					<g>
						<g>
							<g>
								<path class="st10" d="M100.9,33C100.9,33,100.9,33,100.9,33c0.1-0.1,0.1-0.1,0-0.1C100.9,32.8,100.8,32.9,100.9,33
									C100.8,33,100.8,33,100.9,33z"/>
							</g>
						</g>
					</g>
				</g>
				<g>
					<g>
						<g>
							<g>
								<path class="st10" d="M100.2,33C100.2,33,100.2,32.9,100.2,33c0.1-0.1,0.1-0.2,0-0.2c0,0-0.1,0-0.1,0.1
									C100.1,32.9,100.1,33,100.2,33z"/>
							</g>
						</g>
					</g>
				</g>
				<g>
					<g>
						<g>
							<g>
								<path class="st10" d="M101.4,33.9C101.4,33.9,101.5,33.9,101.4,33.9C101.5,33.8,101.4,33.8,101.4,33.9
									C101.4,33.8,101.3,33.8,101.4,33.9C101.3,33.9,101.4,33.9,101.4,33.9z"/>
							</g>
						</g>
					</g>
				</g>
				<g>
					<g>
						<g>
							<g>
								<path class="st10" d="M100.4,33.7C100.5,33.7,100.5,33.6,100.4,33.7c0.1-0.1,0-0.1,0-0.1C100.4,33.5,100.4,33.6,100.4,33.7
									C100.4,33.6,100.4,33.7,100.4,33.7z"/>
							</g>
						</g>
					</g>
				</g>
				<g>
					<g>
						<g>
							<g>
								<path class="st10" d="M95.5,33.1C95.5,33.1,95.6,33.1,95.5,33.1c0.1-0.1,0.1-0.1,0-0.1C95.5,32.9,95.5,33,95.5,33.1
									C95.4,33,95.5,33.1,95.5,33.1z"/>
							</g>
						</g>
					</g>
				</g>
				<g>
					<g>
						<g>
							<g>
								<path class="st10" d="M94.8,33C94.8,33,94.9,33,94.8,33c0.1-0.1,0-0.1,0-0.2C94.8,32.9,94.7,32.9,94.8,33
									C94.7,33,94.8,33,94.8,33z"/>
							</g>
						</g>
					</g>
				</g>
				<g>
					<g>
						<g>
							<g>
								<path class="st10" d="M96.1,33.1C96.2,33.1,96.2,33.1,96.1,33.1c0.1-0.1,0.1-0.1,0-0.1C96.1,33,96.1,33,96.1,33.1
									C96.1,33.1,96.1,33.1,96.1,33.1z"/>
							</g>
						</g>
					</g>
				</g>
				<g>
					<g>
						<g>
							<g>
								<path class="st10" d="M95.6,33.8C95.6,33.8,95.7,33.8,95.6,33.8c0.1-0.1,0.1-0.1,0.1-0.1C95.6,33.7,95.6,33.7,95.6,33.8
									C95.6,33.8,95.6,33.8,95.6,33.8z"/>
							</g>
						</g>
					</g>
				</g>
				<g>
					<g>
						<g>
							<g>
								<path class="st10" d="M95,33.7C95,33.7,95.1,33.7,95,33.7C95,33.6,95,33.6,95,33.7C94.9,33.6,94.9,33.6,95,33.7
									C94.9,33.7,95,33.7,95,33.7z"/>
							</g>
						</g>
					</g>
				</g>
			</g>
			<g>
				<g>
					<path class="st6" d="M106.2,25.7c0.3-0.9,0-1.9-0.6-2.6s-1.5-1.2-2.4-1.1c-0.5,0-0.9,0.2-1.4,0.1c-0.9-0.1-1.5-0.8-2.3-1.1
						c-1.3-0.5-2.9,0-3.6,1.1c-0.3,0.5-0.5,1-1,1.3c-0.4,0.2-0.9,0.2-1.4,0.4C92.6,24,92,25,92,26c0,1,0.7,1.8,1.6,2.2
						c0.9,0.4,1.9,0.3,2.8-0.2c0.8-0.4,1.4-1.1,2.3-1.1c0.9,0,1.7,0.9,2.6,0.7c0.5-0.1,0.8-0.4,1.2-0.8c0.3-0.3,0.7-0.7,1.2-0.7
						c0.5,0,0.7,0.6,0.5,1.1L106.2,25.7"/>
				</g>
			</g>
			<g>
				<g>
					<g>
						<path class="st5" d="M94.2,24.5C94.2,24.5,94.2,24.6,94.2,24.5c0,0.1,0,0.1,0.1,0.1c0.1,0.1,0.1,0.2,0.3,0.3
							c0.1,0.1,0.3,0.3,0.6,0.3c0.3,0.1,0.6,0.1,0.9,0.1c0.3-0.1,0.7-0.2,1-0.5c0.3-0.3,0.4-0.7,0.7-1.1c0.1-0.2,0.3-0.3,0.5-0.4
							c0.2-0.1,0.4-0.2,0.7-0.1c0.2,0,0.5,0.1,0.7,0.2c0.2,0.1,0.4,0.3,0.5,0.5c0.1,0.2,0.2,0.5,0.4,0.7c0.1,0.2,0.4,0.4,0.6,0.4
							c0.3,0,0.5-0.1,0.7-0.2c0.2-0.1,0.4-0.3,0.5-0.4c0.3-0.3,0.6-0.6,1-0.7c0.4-0.1,0.7,0,1,0.2c0.3,0.2,0.4,0.4,0.6,0.7
							c0.1,0.2,0.2,0.5,0.2,0.6c0,0.2,0.1,0.3,0.1,0.4c0,0.1,0,0.2,0,0.2c0,0,0,0,0,0c0,0,0-0.1,0-0.1c0-0.1,0-0.2,0-0.4
							c0-0.2-0.1-0.4-0.2-0.7c-0.1-0.2-0.3-0.5-0.6-0.7c-0.3-0.2-0.7-0.4-1.1-0.3c-0.4,0.1-0.7,0.4-1,0.7c-0.2,0.2-0.3,0.3-0.5,0.4
							c-0.2,0.1-0.4,0.2-0.6,0.2c-0.2,0-0.4-0.1-0.6-0.4c-0.1-0.2-0.2-0.4-0.3-0.7c-0.1-0.2-0.3-0.4-0.5-0.6
							c-0.2-0.1-0.5-0.2-0.7-0.2c-0.2,0-0.5,0-0.7,0.2c-0.2,0.1-0.4,0.3-0.5,0.5c-0.3,0.4-0.4,0.8-0.7,1.1c-0.3,0.3-0.6,0.5-0.9,0.5
							c-0.3,0.1-0.6,0-0.9,0c-0.3-0.1-0.4-0.2-0.6-0.3C94.3,24.7,94.2,24.5,94.2,24.5z"/>
					</g>
				</g>
			</g>
			<g>
				<g>
					<g>
						<path class="st5" d="M92.3,24.6c0,0,0,0.1,0,0.2c0,0.1,0,0.3,0.1,0.5c0.1,0.2,0.2,0.5,0.4,0.7c0.2,0.2,0.5,0.4,0.8,0.6
							c0.7,0.3,1.3,0.3,1.8,0.2c0.2,0,0.4-0.1,0.5-0.1c0.1,0,0.2-0.1,0.2-0.1c0,0-0.3,0.1-0.7,0.1c-0.4,0-1.1,0.1-1.7-0.2
							c-0.3-0.1-0.6-0.3-0.8-0.5c-0.2-0.2-0.3-0.5-0.4-0.7C92.3,24.9,92.4,24.6,92.3,24.6z"/>
					</g>
				</g>
			</g>
		</g>
		<g>
			<path class="st2" d="M109.5,63.5c0,0.4-0.2,0.8-0.4,1c-0.2,0.3-0.7,0.6-1,0.5c0,0-0.9,0.1-1.4-0.7c-0.4-0.7-0.5-2.1-0.2-2.9
				c0.2-0.6,0.8-1.1,1.4-1.1c0.8,0,1.3,0.6,1.5,1.2"/>
			<path class="st6" d="M109.4,61.5c0,0,0-0.2-0.2-0.4c-0.1-0.1-0.2-0.3-0.3-0.4c-0.1-0.1-0.3-0.3-0.6-0.3c-0.1,0-0.3-0.1-0.4-0.1
				c-0.1,0-0.3,0-0.4,0.1c-0.3,0.1-0.6,0.3-0.8,0.5c-0.2,0.3-0.4,0.6-0.4,0.9c-0.1,0.4-0.1,0.7-0.1,1.1c0,0.6,0.2,1.2,0.5,1.6
				c0.2,0.2,0.4,0.4,0.6,0.5c0.2,0.1,0.5,0.1,0.7,0.1l0,0c0.2,0,0.4-0.1,0.5-0.1c0.1-0.1,0.3-0.2,0.4-0.3c0.2-0.2,0.3-0.4,0.4-0.6
				c0.1-0.2,0.1-0.3,0.1-0.5c0-0.1,0-0.1,0-0.1c0,0,0,0,0,0c0,0,0,0.2-0.2,0.6c-0.1,0.2-0.2,0.4-0.4,0.6c-0.1,0.1-0.2,0.2-0.4,0.2
				c-0.1,0.1-0.3,0.1-0.5,0.1l0,0l0,0c-0.4,0-0.9-0.1-1.2-0.6c-0.3-0.4-0.4-1-0.5-1.6c0-0.7,0.1-1.5,0.5-2c0.2-0.2,0.5-0.4,0.7-0.5
				c0.1,0,0.3-0.1,0.4-0.1c0.1,0,0.3,0,0.4,0.1c0.2,0.1,0.4,0.2,0.6,0.3c0.1,0.1,0.2,0.3,0.3,0.4C109.4,61.3,109.4,61.5,109.4,61.5z
				"/>
			<path class="st2" d="M109.9,63.5c0,0.4-0.2,0.8-0.4,1c-0.2,0.3-0.7,0.6-1,0.5c0,0-0.9,0.1-1.4-0.7c-0.4-0.7-0.5-2.1-0.2-2.9
				c0.2-0.6,0.8-1.1,1.4-1.1c0.8,0,1.3,0.6,1.5,1.2"/>
			<path class="st6" d="M109.9,61.5c0,0,0-0.2-0.2-0.4c-0.1-0.1-0.2-0.3-0.3-0.4c-0.1-0.1-0.3-0.3-0.6-0.3c-0.1,0-0.3-0.1-0.4-0.1
				c-0.1,0-0.3,0-0.4,0.1c-0.3,0.1-0.6,0.3-0.8,0.5c-0.2,0.3-0.4,0.6-0.4,0.9c-0.1,0.4-0.1,0.7-0.1,1.1c0,0.6,0.2,1.2,0.5,1.6
				c0.2,0.2,0.4,0.4,0.6,0.5c0.2,0.1,0.5,0.1,0.7,0.1l0,0c0.2,0,0.4-0.1,0.5-0.1c0.1-0.1,0.3-0.2,0.4-0.3c0.2-0.2,0.3-0.4,0.4-0.6
				c0.1-0.2,0.1-0.3,0.1-0.5c0-0.1,0-0.1,0-0.1c0,0,0,0,0,0c0,0,0,0.2-0.2,0.6c-0.1,0.2-0.2,0.4-0.4,0.6c-0.1,0.1-0.2,0.2-0.4,0.2
				c-0.1,0.1-0.3,0.1-0.5,0.1l0,0l0,0c-0.4,0-0.9-0.1-1.2-0.6c-0.3-0.4-0.4-1-0.5-1.6c0-0.7,0.1-1.5,0.5-2c0.2-0.2,0.5-0.4,0.7-0.5
				c0.1,0,0.3-0.1,0.4-0.1c0.1,0,0.3,0,0.4,0.1c0.2,0.1,0.4,0.2,0.6,0.3c0.1,0.1,0.2,0.3,0.3,0.4C109.8,61.3,109.9,61.5,109.9,61.5z
				"/>
			<path class="st2" d="M109.1,61.3c0.4-0.1,0.8,0.2,1,0.6c0.2,0.4,0.1,0.8,0,1.2c-0.1,0.2-0.2,0.4-0.3,0.5
				c-0.1,0.2-0.3,0.3-0.6,0.3c-0.3,0-0.6-0.2-0.8-0.5c-0.3-0.4-0.4-0.9-0.3-1.4c0.1-0.3,0.3-0.7,0.7-0.7"/>
			<path class="st6" d="M108.9,61.3C108.9,61.3,108.9,61.3,108.9,61.3c-0.1,0-0.2,0-0.3,0.1c-0.2,0.1-0.4,0.3-0.4,0.6
				c-0.1,0.3-0.1,0.7,0.1,1.1c0.1,0.2,0.2,0.4,0.4,0.5c0.2,0.2,0.5,0.2,0.7,0.2c0.3-0.1,0.5-0.3,0.6-0.5c0.1-0.2,0.2-0.4,0.2-0.6
				c0.1-0.4,0-0.9-0.2-1.1c-0.2-0.3-0.5-0.4-0.7-0.4c-0.1,0-0.2,0-0.2,0c0,0-0.1,0-0.1,0c0,0,0.1,0,0.3,0c0.2,0,0.4,0.2,0.6,0.4
				c0.2,0.3,0.2,0.7,0.2,1.1c0,0.2-0.1,0.4-0.2,0.6c-0.1,0.2-0.3,0.4-0.5,0.4c-0.2,0.1-0.5,0-0.6-0.2c-0.2-0.1-0.3-0.3-0.4-0.5
				c-0.2-0.4-0.2-0.8-0.1-1.1c0.1-0.3,0.2-0.5,0.4-0.6C108.8,61.3,108.9,61.4,108.9,61.3z"/>
			<path class="st6" d="M108.2,64.3c0,0,0-0.1,0.1-0.1c0.1-0.1,0.2-0.2,0.3-0.2c0.1,0,0.3-0.1,0.4-0.1c0.1,0,0.2,0,0.2,0
				c0,0-0.1,0-0.2,0c-0.1,0-0.3,0-0.4,0c-0.2,0.1-0.3,0.2-0.3,0.3C108.2,64.3,108.2,64.3,108.2,64.3z"/>
			<path class="st6" d="M108.1,61c0,0,0,0.1,0.1,0.1c0.1,0.1,0.2,0.1,0.4,0.2c0.2,0,0.3,0,0.4,0c0.1,0,0.2-0.1,0.2-0.1
				c0,0-0.3,0.1-0.6,0C108.3,61.2,108.1,61,108.1,61z"/>
		</g>
	</g>
	<g>
		<g>
			<path class="st6" d="M115.4,89c0,0.1-6.2-0.1-13.7-0.3c-7.6-0.2-13.7-0.5-13.7-0.5c0-0.1,6.2,0.1,13.7,0.3
				C109.3,88.8,115.4,89,115.4,89z"/>
		</g>
	</g>
</g>
</svg>
