<?xml version="1.0" encoding="UTF-8"?><svg id="Designed_by_freepik" xmlns="http://www.w3.org/2000/svg" viewBox="0 0 129.74 166.11"><defs><style>.cls-1{fill:#f68d6b;}.cls-2{fill:#eb673d;}.cls-3{fill:#f5f5f5;}.cls-4{fill:#ff9c6a;}.cls-5{fill:#fff;}.cls-6{fill:#ececec;}.cls-7{fill:#fafafa;}.cls-8{fill:#ffc19d;}.cls-9{fill:#ff4f5b;}.cls-10{fill:#e1e1e1;}.cls-11{fill:#375a64;}.cls-12{fill:#1a2e35;}.cls-13{opacity:.3;}.cls-14{opacity:.6;}</style></defs><g><rect class="cls-6" x="98.56" y="6.45" width="28.63" height="28.63"/><rect class="cls-5" x="99.41" y="7.29" width="26.95" height="26.95"/><rect class="cls-10" x="109.01" y="16.89" width="7.74" height="7.74"/><rect class="cls-10" x="127.2" y="6.45" width="1.21" height="28.62"/></g><g><g><polygon class="cls-3" points="13.01 135.42 13.01 145.27 27.4 145.27 43.27 145.27 43.27 135.42 13.01 135.42"/><polygon class="cls-10" points="11.74 132.67 11.74 135.42 44.33 135.42 44.33 132.67 27.4 132.67 11.74 132.67"/><polygon class="cls-10" points="28.03 145.27 43.27 145.27 43.27 135.42 44.33 135.42 44.33 132.67 27.4 132.67 27.4 135.17 28.03 145.27"/><rect class="cls-10" x="17.24" y="137.01" width="6.14" height="1.48"/><rect class="cls-5" x="16.45" y="140.34" width="7.88" height="3.13"/></g><g><g><path class="cls-10" d="M47.82,166.42l-.64-134.8h-2.61v26.55h-6.74l-.13-26.55h-2.61v26.55H11.91l-.13-26.55h-2.61v26.55H2.45l-.13-26.55H-.29V166.42H2.96l-.09-18.09h6.3v18.09h3.25l-.09-18.09h22.77v18.09h3.25l-.09-18.09h6.32v18.09h3.25ZM5.85,130.47l-2.33-9.99h4.79l-2.46,9.99Zm3.32-9.38v23.6l-2.83-12.1,2.83-11.5Zm0-34.31l-2.83-12.1,2.83-11.5v23.6Zm-.51,2.17H2.84l2.99-12.16,2.84,12.16Zm-2.81-16.39l-2.67-11.44h5.48l-2.81,11.44Zm-.52,2.11l-2.75,11.2-.11-23.48,2.86,12.27Zm-2.59,46.83l2.59,11.08-2.49,10.11-.1-21.19Zm3.08,13.19l2.49,10.69H3.2l2.63-10.69Zm-2.99-17.17l-.02-.09-.08,.02-.12-25.56h6.56v25.64H2.83Zm9.23-25.64h23.03v25.64H12.19l-.12-25.64Zm28.98-15.11l2.84,12.16h-5.83l2.99-12.16Zm-3.09,8.44l-.1-22.11,2.7,11.56-2.59,10.55Zm6.61,2.34l-3.01-12.89,3.01-12.24v25.13Zm0,1.34v.04h-.18l.18-.04Zm0,32.88v22.16l-2.65-11.37,2.65-10.8Zm-3.15,8.68l-2.33-9.99h4.79l-2.46,9.99Zm-.35-57.91l-2.67-11.44h5.48l-2.81,11.44Zm3.5,19.34v25.64h-6.17l-.02-.09-.27,.06-.12-25.61h6.58Zm-3.67,40.69l-2.67,10.88-.11-22.79,2.78,11.92Zm.49,2.12l2.49,10.69h-5.12l2.63-10.69Zm-6.3-73.58v27.83H12.05l-.13-27.83h23.18ZM12.73,145.39h-.42l-.12-24.91h22.9v24.91H12.73Z"/><g><rect class="cls-10" x="28.77" y="68.97" width="4.31" height="20.09"/><path class="cls-7" d="M31.86,84.25c0,.47-.38,.85-.85,.85s-.85-.38-.85-.85,.38-.85,.85-.85,.85,.38,.85,.85Z"/><rect class="cls-7" x="30.31" y="74.3" width="1.32" height="8.21"/></g><g><rect class="cls-6" x="24.39" y="68.97" width="4.31" height="20.09"/><path class="cls-7" d="M27.48,84.25c0,.47-.38,.85-.85,.85s-.85-.38-.85-.85,.38-.85,.85-.85,.85,.38,.85,.85Z"/><rect class="cls-7" x="25.93" y="74.3" width="1.32" height="8.21"/></g><g><rect class="cls-3" x="20.22" y="68.97" width="4.31" height="20.09"/><path class="cls-10" d="M23.31,84.25c0,.47-.38,.85-.85,.85s-.85-.38-.85-.85,.38-.85,.85-.85,.85,.38,.85,.85Z"/><rect class="cls-10" x="21.76" y="74.3" width="1.32" height="8.21"/></g><polygon class="cls-3" points="14.89 88.76 20.07 71.09 18.28 70.3 12.97 88.12 14.89 88.76"/><g><polygon class="cls-3" points="7.21 117.53 7.21 114.49 28.7 114.49 28.77 117.53 7.21 117.53"/><path class="cls-5" d="M28.71,114.99s-19.06,.14-20.29,.43c-.27,.06-.54,1.23,0,1.34,.54,.11,20.29,.27,20.29,.27v-2.04Z"/></g><g><polygon class="cls-6" points="9.71 114.37 9.71 111.33 26.73 111.33 26.78 114.37 9.71 114.37"/><path class="cls-7" d="M26.74,111.83s-15.1,.14-16.07,.43c-.21,.06-.43,1.23,0,1.34,.42,.11,16.07,.27,16.07,.27v-2.04Z"/></g><g><polygon class="cls-10" points="9.63 111.37 9.63 108.32 26.65 108.32 26.71 111.37 9.63 111.37"/><path class="cls-7" d="M26.66,108.82s-15.1,.14-16.07,.43c-.21,.06-.42,1.23,0,1.34,.42,.11,16.07,.27,16.07,.27v-2.04Z"/></g></g><g><rect class="cls-3" x="30.7" y="38.47" width="4.31" height="20.09"/><path class="cls-10" d="M33.8,53.74c0,.47-.38,.85-.85,.85s-.85-.38-.85-.85,.38-.85,.85-.85,.85,.38,.85,.85Z"/><rect class="cls-10" x="32.25" y="43.79" width="1.32" height="8.21"/></g><g><rect class="cls-6" x="26.32" y="38.47" width="4.31" height="20.09"/><path class="cls-7" d="M29.42,53.74c0,.47-.38,.85-.85,.85s-.85-.38-.85-.85,.38-.85,.85-.85,.85,.38,.85,.85Z"/><rect class="cls-7" x="27.87" y="43.79" width="1.32" height="8.21"/></g><g><rect class="cls-10" x="22.15" y="38.47" width="4.31" height="20.09"/><path class="cls-7" d="M25.25,53.74c0,.47-.38,.85-.85,.85s-.85-.38-.85-.85,.38-.85,.85-.85,.85,.38,.85,.85Z"/><rect class="cls-7" x="23.7" y="43.79" width="1.32" height="8.21"/></g></g></g><g><path class="cls-1" d="M118.31,39.14c-16.27,19.52-27.98,39.05-39.7,62.26-7.16,14.32-14.75,33.84-25.16,64.86H2.48c7.81-25.16,16.49-47.94,23.86-63.99,10.2-22.56,21.69-45.77,32.75-61.17L-.13,42.83V.97H117.23l1.08,38.18Z"/><path class="cls-2" d="M8.48,163.4c7.81-24.5,16.49-47.7,23.86-63.75,10.2-22.56,21.7-45.65,32.76-61.05l-59.21,1.86V1.4H.44V42.83l58.93-1.74c-11.06,15.4-22.7,38.54-32.9,61.1-7.38,16.05-16.19,39.42-24,63.92H53.45c.27,0,.54-1.36,.8-2.72H8.48Z"/></g><g><g><g><path class="cls-9" d="M106.18,153.89l-.46,7.51s7.48,2.99,7.53,4.39l-14.6-.37,.24-11.73,7.29,.21Z"/><g class="cls-14"><path class="cls-5" d="M101.22,160.65c-.28,.07-.49,.38-.43,.67,.06,.29,.37,.5,.66,.43,.29-.06,.54-.43,.45-.71-.09-.28-.47-.5-.74-.37"/></g><g class="cls-14"><path class="cls-5" d="M98.65,165.42l.07-1.18,13.97,.8s.64,.3,.56,.76l-14.6-.37Z"/></g><path class="cls-12" d="M105.95,161.33c0,.07-.36,.09-.72,.31-.36,.21-.55,.51-.62,.49-.07-.02,.05-.44,.49-.7,.43-.26,.86-.17,.85-.1Z"/><path class="cls-12" d="M107.47,162c.01,.07-.3,.18-.55,.48-.26,.29-.33,.61-.4,.61-.07,0-.11-.41,.21-.77,.31-.36,.73-.38,.73-.32Z"/><path class="cls-12" d="M108.29,163.86c-.07,.01-.16-.35,.04-.73,.19-.39,.53-.53,.56-.47,.04,.06-.18,.26-.34,.58-.16,.32-.19,.62-.26,.62Z"/><path class="cls-12" d="M105.87,159.61c-.03,.06-.36-.04-.76-.03-.4,0-.72,.14-.76,.07-.04-.05,.27-.31,.75-.32,.48-.02,.8,.22,.77,.27Z"/></g><g class="cls-13"><polygon points="106.08 155.38 106 156.72 98.83 156.47 98.86 154.92 106.08 155.38"/></g><path class="cls-12" d="M105.93,158.09s-.28,.07-.73-.02c-.22-.04-.49-.12-.76-.25-.14-.07-.28-.14-.41-.23-.07-.04-.14-.09-.22-.18-.08-.08-.12-.27-.02-.38,.08-.11,.21-.16,.32-.15,.11,0,.19,.02,.27,.04,.16,.04,.31,.1,.45,.17,.28,.13,.5,.3,.66,.46,.33,.32,.44,.59,.41,.6-.03,.02-.19-.2-.53-.47-.17-.13-.38-.27-.64-.38-.13-.06-.27-.1-.42-.14-.15-.04-.29-.05-.33,.02-.02,.03-.02,.04,.01,.08,.03,.04,.09,.08,.16,.13,.13,.09,.26,.16,.38,.23,.25,.13,.49,.23,.7,.29,.42,.13,.69,.15,.69,.19Z"/><path class="cls-12" d="M105.84,158.19s-.16-.25-.17-.71c0-.23,.02-.51,.12-.8,.05-.15,.11-.29,.2-.44,.09-.14,.2-.33,.48-.36,.14,0,.26,.11,.3,.21,.05,.1,.05,.18,.07,.27,.02,.17,.02,.34-.01,.49-.05,.31-.19,.56-.33,.75-.29,.37-.59,.45-.6,.42-.02-.04,.23-.17,.46-.53,.11-.18,.21-.41,.25-.68,.02-.13,.02-.28,0-.42-.02-.16-.07-.28-.13-.27-.07,0-.2,.11-.26,.23-.08,.13-.14,.26-.19,.39-.1,.26-.14,.51-.16,.73-.03,.43,.04,.7,0,.71Z"/></g><path class="cls-12" d="M109.2,108.14l-11.6,3.73c.14,.1,2.15,13.14,2.15,13.14l-1.68,34.61,9.21,.11,4.12-36.31-2.2-15.29Z"/><g><g><path class="cls-9" d="M93.01,153.86l-.23,7.52s7.57,2.76,7.66,4.16l-14.6,.07-.12-11.73,7.29-.02Z"/><g class="cls-14"><path class="cls-5" d="M88.26,160.77c-.28,.08-.48,.4-.41,.68,.07,.29,.39,.49,.67,.41,.28-.07,.53-.45,.43-.72-.1-.28-.49-.49-.75-.35"/></g><g class="cls-14"><path class="cls-5" d="M85.83,165.61l.03-1.18,13.99,.37s.65,.28,.58,.74l-14.6,.07Z"/></g><path class="cls-12" d="M93.01,161.31c0,.07-.36,.11-.71,.34-.36,.22-.54,.53-.6,.5-.07-.01,.04-.44,.47-.71,.43-.28,.86-.19,.84-.13Z"/><path class="cls-12" d="M94.54,161.93c.02,.07-.29,.19-.53,.49-.25,.3-.31,.62-.38,.62-.07,.01-.12-.41,.19-.78,.3-.37,.72-.41,.72-.34Z"/><path class="cls-12" d="M95.42,163.76c-.06,.02-.17-.34,.02-.73,.18-.39,.51-.55,.54-.49,.04,.06-.17,.27-.32,.59-.15,.32-.17,.62-.24,.63Z"/><path class="cls-12" d="M92.87,159.59c-.03,.07-.36-.03-.76,0-.4,.02-.72,.16-.75,.1-.04-.05,.26-.32,.74-.34,.47-.03,.81,.19,.78,.25Z"/></g><g class="cls-13"><polygon points="92.96 155.35 92.92 156.69 85.74 156.66 85.72 155.11 92.96 155.35"/></g><path class="cls-12" d="M92.89,158.07s-.28,.07-.73,0c-.22-.04-.49-.11-.77-.23-.14-.06-.28-.13-.42-.22-.07-.04-.15-.09-.22-.17-.08-.07-.13-.26-.03-.38,.07-.11,.21-.16,.31-.16,.11,0,.19,.02,.27,.04,.16,.04,.32,.09,.46,.15,.28,.13,.51,.28,.68,.44,.34,.31,.46,.58,.43,.59-.03,.02-.2-.2-.54-.46-.17-.13-.39-.26-.65-.36-.13-.05-.27-.1-.42-.13-.15-.04-.29-.04-.33,.03-.01,.03-.02,.04,.02,.08,.03,.04,.1,.08,.16,.12,.13,.08,.26,.16,.39,.22,.26,.13,.5,.21,.71,.27,.42,.11,.69,.13,.69,.17Z"/><path class="cls-12" d="M92.8,158.17s-.17-.24-.2-.71c-.01-.23,0-.51,.1-.8,.04-.15,.1-.3,.18-.44,.08-.14,.19-.34,.46-.37,.14,0,.27,.11,.31,.2,.05,.1,.06,.18,.08,.27,.03,.17,.03,.34,0,.49-.04,.31-.17,.57-.31,.76-.28,.38-.58,.47-.59,.44-.02-.04,.22-.17,.44-.54,.11-.18,.2-.42,.23-.69,.01-.14,.01-.28-.02-.42-.02-.16-.08-.28-.14-.26-.07,0-.2,.12-.25,.24-.07,.13-.13,.27-.18,.4-.09,.26-.13,.52-.14,.73-.02,.43,.06,.7,.02,.71Z"/></g><path class="cls-12" d="M83.67,109.99c0,2.62,1.04,51.21,1.04,51.21l8.74-.78,1.79-29.86,.94-2.6,1.1-16.09-13.6-1.88Z"/><g><path class="cls-6" d="M102.18,46.97c.12,.16,6.94,10.99,6.94,10.99l7.68-8.03,3.93,5.67s-8.21,11.59-9.41,12.01c-1.2,.42-5.09-.24-5.09-.24l-5.42-7.15,1.38-13.23Z"/><path class="cls-12" d="M109.19,60.46c-.06,0-.15-.56-.15-1.25,0-.69,.02-1.25,.09-1.25,.06,0,.15,.56,.15,1.25,0,.69-.02,1.25-.09,1.25Z"/><path class="cls-6" d="M84.83,38.9l-1.18,2.91s-6.05,5.11-6.61,5.9c-.55,.79,4.32,26.26,4.32,26.26,0,0-.31,37.43,0,37.43s4.48,1.34,13.05,.71c8.57-.63,10.14-1.49,10.14-1.49l-2.67-33.11-4.09-22.25-7.02-9.04-5.95-7.31Z"/><path class="cls-9" d="M98.62,51.53s-.89-4.32-.82-4.45-2.02-5.24-2.02-5.24c0,0-.7-2.33-.7-2.33s-9.54-1.61-9.54-1.61l-.46,1.44,12.73,16.08,1.3,6.9,1.35-1.88-1.83-8.91Z"/><path class="cls-6" d="M107.14,84.03l-2.07-24.91-1.7-9.72c-.23-1.94-1.53-3.89-1.53-3.89l-4.97-2.87s-1.35-1.65-1.42-1.9l2.35,5.99,.82,4.79,.51,10.98h0l2.71,14.74,2.65,32.43,5.76-1.12-3.11-24.53Z"/><polygon class="cls-6" points="99.34 55.02 100.45 46.84 96.87 42.65 95.46 40.75 97.66 47.08 99.34 55.02"/><g><polygon class="cls-9" points="93.69 70.27 102.33 57.96 117.39 62.52 106 77.25 91.86 72.65 93.69 70.27"/><path class="cls-12" d="M112.99,61.95c0,.21-.17,.37-.37,.37s-.37-.17-.37-.37,.17-.37,.37-.37,.37,.17,.37,.37Z"/><path class="cls-12" d="M106.97,60.27c0,.21-.17,.37-.37,.37s-.37-.17-.37-.37,.17-.37,.37-.37,.37,.17,.37,.37Z"/></g><g><path class="cls-12" d="M99.92,50.05s.16,.8,.42,1.78c.25,.98,.48,1.76,.5,1.76,.02,0-.16-.8-.42-1.78-.25-.98-.48-1.76-.5-1.76Z"/><g><g><path class="cls-10" d="M102.79,55.57c.06,.37,0,.73-.13,1.04-.13,.3-.46,.65-.78,.71,0,0-.77,.27-1.37-.29-.55-.51-.97-1.76-.86-2.6,.08-.57,.43-1.18,.99-1.34,.73-.21,1.33,.2,1.63,.7"/><path class="cls-12" d="M102.25,53.79s-.05-.14-.23-.33c-.09-.09-.21-.2-.37-.29-.16-.09-.37-.16-.6-.17-.12,0-.24,0-.36,.04-.12,.03-.25,.07-.37,.15-.23,.15-.43,.39-.56,.67-.13,.28-.2,.61-.18,.94,.01,.33,.08,.68,.18,1.01,.17,.51,.41,1.01,.8,1.33,.2,.16,.43,.25,.66,.27,.23,.03,.45,0,.66-.06h0c.17-.04,.31-.13,.42-.23,.11-.1,.21-.21,.28-.32,.14-.23,.19-.46,.23-.65,.03-.19,.02-.34,.01-.44,0-.05-.01-.09-.02-.11,0-.03,0-.04-.01-.04-.01,0,.04,.21-.02,.58-.04,.18-.09,.41-.23,.62-.07,.11-.16,.21-.27,.31-.11,.09-.24,.18-.39,.21h0c-.37,.11-.87,.09-1.24-.21-.37-.3-.6-.79-.77-1.29-.21-.65-.27-1.35-.01-1.89,.12-.27,.3-.5,.52-.64,.11-.07,.23-.12,.35-.15,.12-.03,.24-.04,.35-.04,.22,0,.42,.07,.58,.15,.16,.08,.28,.18,.37,.27,.18,.18,.25,.31,.26,.3Z"/></g><g><path class="cls-10" d="M103.19,55.51c.06,.37,0,.73-.13,1.04-.13,.3-.46,.65-.78,.71,0,0-.77,.27-1.37-.29-.55-.51-.97-1.76-.86-2.6,.08-.57,.43-1.18,.99-1.34,.73-.21,1.33,.2,1.63,.7"/><path class="cls-12" d="M102.65,53.72s-.05-.14-.23-.33c-.09-.09-.21-.2-.37-.29-.16-.09-.37-.16-.6-.17-.12,0-.24,0-.36,.04-.12,.03-.25,.07-.37,.15-.23,.15-.43,.39-.56,.67-.13,.28-.2,.61-.18,.94,.01,.33,.08,.68,.18,1.01,.17,.51,.41,1.01,.8,1.33,.2,.16,.43,.25,.66,.27,.23,.03,.45,0,.66-.06h0c.17-.04,.31-.13,.42-.23,.11-.1,.21-.21,.28-.32,.14-.23,.19-.46,.23-.65,.03-.19,.02-.34,.01-.44,0-.05-.01-.09-.02-.11,0-.03,0-.04-.01-.04-.01,0,.04,.21-.02,.58-.04,.18-.09,.41-.23,.62-.07,.11-.16,.21-.27,.31-.11,.09-.24,.18-.39,.21h0c-.37,.11-.87,.09-1.24-.21-.37-.3-.6-.79-.77-1.29-.21-.65-.27-1.35-.01-1.89,.12-.27,.3-.5,.52-.64,.11-.07,.23-.12,.35-.15,.12-.03,.24-.04,.35-.04,.22,0,.42,.07,.58,.15,.16,.08,.28,.18,.37,.27,.18,.18,.25,.31,.26,.3Z"/></g><g><path class="cls-10" d="M101.96,53.7c.35-.17,.79-.02,1.03,.28,.24,.3,.31,.71,.28,1.09-.02,.2-.06,.39-.15,.56-.09,.17-.25,.32-.44,.37-.28,.08-.58-.04-.8-.23-.36-.3-.57-.76-.57-1.22,0-.31,.14-.66,.43-.75"/><path class="cls-12" d="M101.76,53.82s-.02,0-.07,.02c-.04,.02-.1,.05-.17,.11-.13,.12-.24,.36-.23,.68,0,.31,.11,.68,.37,1,.13,.16,.3,.3,.5,.39,.2,.09,.47,.12,.69-.01,.21-.12,.34-.34,.41-.56,.06-.22,.07-.43,.06-.63-.02-.41-.18-.77-.43-.97-.24-.2-.51-.24-.68-.22-.09,0-.15,.03-.19,.05-.04,.02-.06,.03-.06,.03,0,0,.09-.04,.25-.05,.16,0,.41,.04,.64,.23,.22,.19,.37,.53,.39,.92,0,.19,0,.4-.07,.6-.06,.2-.18,.39-.37,.5-.19,.11-.42,.09-.61,.01-.19-.08-.35-.22-.47-.37-.25-.3-.36-.65-.37-.95-.02-.29,.08-.53,.19-.65,.11-.12,.21-.14,.21-.15Z"/></g><path class="cls-12" d="M101.83,56.67s.02-.06,.06-.14c.04-.08,.12-.18,.24-.26,.12-.07,.25-.11,.34-.15,.09-.03,.15-.05,.15-.07,0-.01-.06-.01-.16,0-.1,.02-.23,.05-.37,.13-.14,.08-.22,.21-.25,.31-.03,.1,0,.17,0,.17Z"/><path class="cls-12" d="M100.93,53.73s.04,.05,.14,.09c.09,.04,.24,.07,.39,.06,.16-.01,.29-.07,.38-.12,.09-.06,.13-.11,.12-.11-.02-.02-.21,.13-.5,.15-.29,.03-.51-.09-.52-.07Z"/></g></g><g><g><path class="cls-12" d="M93.97,59.8c-.46,.13-.96-.2-1.41-.03-.33,.13-.51,.55-.37,.87s.56,.49,.88,.34c.46-.21,.55-.85,.98-1.11"/><path class="cls-12" d="M90.27,61.43c.14-.04,.27-.1,.41-.17l-.07-.15c-.53,.27-1.03,.33-1.48,.18-.57-.19-1.06-.7-1.47-1.52l-.02-.03c-.16-.32-2.39-6.96-2.8-8.23-.64-1.98,1.01-2.81,1.08-2.84,.07-.04,1.56-.81,3.09,1.08,1.61,1.98,4.42,5.88,4.67,6.36,.03,.06,.07,.13,.12,.21,.36,.61,1.1,1.87,.45,2.94-.73,1.2-1.63,1.12-1.67,1.12l-.02,.16s1.05,.1,1.83-1.19c.7-1.16-.07-2.48-.45-3.11-.05-.08-.09-.15-.12-.21-.26-.48-3.08-4.4-4.69-6.38-1.62-2-3.28-1.13-3.29-1.12-.02,0-1.84,.92-1.16,3.04,.34,1.04,2.64,7.91,2.81,8.25l.02,.03c.42,.86,.95,1.39,1.56,1.6,.38,.12,.78,.12,1.2-.02Z"/></g><path class="cls-12" d="M85.18,52.81s-.06-.35,.07-.88c.07-.26,.2-.57,.4-.87,.21-.3,.49-.58,.85-.8,.72-.43,1.52-.48,2.05-.38,.54,.09,.84,.29,.84,.27,0,0-.02-.01-.05-.04-.04-.02-.09-.06-.16-.09-.14-.07-.35-.15-.63-.21-.27-.06-.61-.08-.98-.03-.37,.05-.76,.17-1.13,.39-.37,.22-.66,.52-.87,.83-.21,.31-.33,.62-.39,.9-.06,.27-.07,.5-.05,.66,0,.08,.02,.14,.02,.18,0,.04,.01,.06,.02,.06Z"/></g><polygon class="cls-6" points="83.65 41.81 91.11 51.06 97.8 55.25 84.83 38.9 83.65 41.81"/><path class="cls-6" d="M77.04,47.7s-1.57,2.47-1.81,4.99c-.1,.99,2.36,19.5,2.64,20.34,.28,.83,3.54,2.92,4.51,3.33,.97,.42,12.84,4.37,17.7,4.3l1.04-9.16-12.49-2.08s-1.46-1.39-2.22-1.67l-1.04-10.2-1.53-8.19s-4.35-2.69-6.79-1.66Z"/><path class="cls-12" d="M105.12,58.79c-.06,.01-.74-2.69-1.5-6.05-.77-3.36-1.34-6.09-1.27-6.1,.06-.01,.74,2.69,1.5,6.05,.77,3.36,1.34,6.09,1.27,6.1Z"/><path class="cls-12" d="M84.75,56.65s.02,.06,.04,.19c.02,.14,.05,.32,.1,.57,.08,.51,.2,1.24,.35,2.19,.29,1.92,.72,4.69,1.25,8.15l-.05-.06c.43,.17,.79,.45,1.16,.74,.37,.29,.73,.6,1.09,.94l-.05-.02c3.58,.59,7.83,1.29,12.5,2.06l.1,.02v.1c-.33,2.86-.68,5.95-1.05,9.16v.1h-.11c-2.26-.03-4.56-.53-6.87-1.07-2.88-.69-5.66-1.51-8.32-2.36-.66-.22-1.32-.43-1.97-.66-.66-.2-1.27-.56-1.84-.91-.58-.35-1.13-.72-1.66-1.11-.53-.4-1.06-.78-1.48-1.31-.11-.12-.19-.31-.21-.47-.04-.16-.06-.32-.09-.48-.05-.31-.1-.62-.15-.93-.09-.62-.18-1.23-.27-1.83-.17-1.2-.33-2.37-.49-3.5-.31-2.26-.58-4.37-.82-6.29-.24-1.92-.45-3.67-.6-5.2-.03-.38-.08-.75-.1-1.11-.02-.35-.07-.71,0-1.04,.11-.65,.26-1.24,.42-1.76,.33-1.04,.7-1.8,.97-2.3,.13-.25,.25-.44,.32-.56,.08-.12,.13-.18,.13-.18,0,0-.03,.07-.11,.19-.07,.13-.18,.32-.3,.57-.25,.51-.61,1.28-.92,2.31-.16,.52-.3,1.1-.4,1.75-.06,.32,0,.65,.02,1.01,.03,.36,.07,.72,.11,1.11,.17,1.53,.39,3.27,.64,5.19,.26,1.92,.54,4.03,.85,6.28,.16,1.13,.33,2.3,.5,3.5,.09,.6,.18,1.21,.28,1.83l.15,.93c.03,.16,.05,.31,.09,.46,.03,.16,.07,.27,.18,.39,.38,.48,.92,.87,1.43,1.26,.53,.38,1.08,.75,1.65,1.1,.58,.35,1.15,.68,1.8,.88,.64,.23,1.3,.44,1.96,.66,2.66,.85,5.43,1.66,8.3,2.35,2.31,.54,4.6,1.04,6.82,1.07l-.11,.1c.37-3.21,.72-6.3,1.05-9.16l.09,.12c-4.66-.79-8.91-1.5-12.49-2.1h-.03l-.02-.02c-.35-.33-.71-.65-1.07-.94-.36-.28-.73-.56-1.11-.72l-.04-.02v-.04c-.51-3.46-.91-6.24-1.19-8.16-.13-.95-.24-1.69-.31-2.2l-.07-.57c-.02-.13-.02-.19-.02-.19Z"/><path class="cls-12" d="M84.01,53.9s-.24-.42-.58-1.11c-.34-.69-.81-1.65-1.56-2.55-.75-.89-1.66-1.47-2.38-1.7-.72-.25-1.21-.22-1.21-.26,0-.01,.12-.04,.34-.04,.22,0,.54,.03,.92,.14,.76,.21,1.74,.78,2.51,1.71,.77,.93,1.23,1.92,1.53,2.63,.3,.72,.45,1.17,.43,1.18Z"/><path class="cls-12" d="M82.01,69.46c-.05-.03,.67-.91,1.95-1.39,1.27-.5,2.4-.32,2.38-.27,0,.07-1.08,.01-2.3,.49-1.22,.46-1.99,1.23-2.03,1.17Z"/><path class="cls-12" d="M83.43,70.91c-.06,0,.24-1.05,1.15-1.97,.91-.93,1.94-1.25,1.95-1.19,.03,.07-.92,.46-1.78,1.35-.87,.88-1.25,1.84-1.32,1.81Z"/><path class="cls-12" d="M97.8,55.25s-.19-.09-.52-.28c-.36-.21-.83-.5-1.4-.84-1.22-.75-2.89-1.78-4.83-2.98h-.02v-.02l-2.26-2.77c-2.07-2.56-3.92-4.87-5.2-6.5l-.03-.04,.02-.04c.37-.88,.67-1.59,.9-2.12l.25-.57c.06-.13,.09-.19,.1-.19,0,0-.01,.07-.06,.21l-.21,.58-.83,2.15v-.08c1.31,1.6,3.18,3.89,5.24,6.45,.78,.98,1.54,1.91,2.23,2.78l-.03-.02c1.92,1.22,3.57,2.28,4.78,3.05,.56,.37,1.02,.67,1.37,.9,.32,.21,.48,.33,.48,.34Z"/><path class="cls-12" d="M98.89,56.99s0-.22,.05-.6l.21-1.64c.19-1.39,.46-3.32,.78-5.49v.07l-.43-.82c-1.14-2.13-2.17-4.06-2.9-5.46-.35-.67-.63-1.24-.85-1.67-.2-.4-.3-.62-.29-.63,.01,0,.14,.2,.37,.58,.24,.42,.55,.97,.92,1.63,.77,1.38,1.81,3.3,2.96,5.43,.15,.28,.3,.56,.44,.83l.02,.03v.04c-.33,2.17-.63,4.1-.86,5.48-.11,.66-.21,1.21-.28,1.63-.07,.38-.12,.59-.13,.59Z"/><path class="cls-12" d="M85.2,48.97l.39-.23-.39,.23c-.6-1-1.22-2.02-1.68-3.13l-.08-.19c-.46-1.1-.97-2.35-.75-3.56v-.03c.11-.52,.4-.99,.83-1.35l.13-.1h.37v.7l.08,.1s-.06,.05-.08,.07v.03h-.03c-.21,.21-.35,.47-.4,.74v.03c-.17,.94,.29,2.05,.7,3.04l.08,.2c.43,1.04,1.03,2.04,1.62,3.01l-.77,.47Z"/><path class="cls-12" d="M101.66,76.41s.03,.12,.06,.34l.13,.97c.11,.85,.26,2.07,.43,3.59,.34,3.03,.77,7.22,1.17,11.86,.39,4.64,.67,8.84,.84,11.89,.08,1.52,.14,2.75,.18,3.61,.01,.41,.02,.73,.03,.98,0,.22,0,.34,0,.34,0,0-.02-.12-.04-.34l-.08-.98c-.06-.88-.15-2.1-.25-3.6-.21-3.04-.52-7.24-.91-11.88-.39-4.63-.8-8.83-1.1-11.86-.15-1.5-.27-2.72-.36-3.59-.04-.41-.07-.73-.09-.98-.02-.22-.02-.34-.02-.34Z"/><path class="cls-12" d="M95.89,86.98s-.1,.12-.31,.29c-.21,.18-.51,.42-.89,.72-.76,.6-1.84,1.4-3.12,2.15-.65,.37-1.28,.68-1.88,.93-.6,.23-1.15,.42-1.63,.52-.47,.11-.86,.18-1.14,.19-.27,.02-.42,.03-.42,.01,0-.04,.59-.11,1.52-.37,.46-.12,1-.32,1.59-.56,.58-.25,1.21-.56,1.85-.93,1.27-.74,2.36-1.52,3.14-2.08,.79-.56,1.27-.91,1.29-.88Z"/><path class="cls-12" d="M96.58,88.73s-.07,.14-.24,.36c-.16,.23-.43,.54-.78,.9-.7,.73-1.78,1.63-3.14,2.36-1.36,.72-2.72,1.12-3.71,1.29-.5,.09-.9,.13-1.18,.14-.28,.01-.44,.01-.44,0,0-.04,.62-.09,1.59-.3,.97-.21,2.29-.62,3.63-1.33,1.34-.71,2.42-1.58,3.13-2.27,.72-.69,1.1-1.17,1.14-1.15Z"/><path class="cls-12" d="M86.95,93.94c-.06,0-.17-.55-.24-1.23-.07-.69-.07-1.25,0-1.26,.06,0,.17,.55,.24,1.23,.07,.69,.07,1.25,0,1.26Z"/></g><g><path class="cls-12" d="M85.87,34.27c-.32,.02-.62-.22-.78-.53-.16-.3-.21-.66-.26-1.01-.21-1.53-.42-3.07-.63-4.6-.18-1.3-.36-2.61-.32-3.92,.04-1.31,.56-2.47,1.16-3.61,.69-1.33,3.5-3.69,8.17-2.37"/><g><g><path class="cls-8" d="M85.63,28.75c-.06-.03-2.49-.69-2.37,1.78,.12,2.46,2.57,1.83,2.57,1.76,0-.07-.21-3.54-.21-3.54Z"/><path class="cls-4" d="M85.04,31.39s-.04,.03-.11,.07c-.07,.04-.19,.06-.32,.02-.27-.08-.51-.48-.54-.93-.02-.22,.02-.44,.09-.62,.07-.18,.18-.32,.31-.35,.13-.04,.23,.04,.26,.1,.04,.07,.02,.12,.04,.12,0,0,.05-.04,.03-.14-.01-.05-.04-.11-.1-.15-.06-.05-.15-.07-.24-.05-.19,.02-.35,.21-.43,.4-.09,.2-.13,.44-.11,.69,.04,.5,.32,.95,.68,1.03,.18,.04,.32-.02,.39-.08,.07-.06,.08-.12,.07-.12Z"/></g><g><path class="cls-8" d="M98.3,33.34c-.01-1.74-.32-5.33-.65-8.57-.35-3.49-3.31-6.12-6.81-6.06h-.35c-3.75,.29-5.6,3.64-5.2,7.38l.53,11.92,8.94,4.9-.03-5.35s3.6-.63,3.57-4.23Z"/><path class="cls-4" d="M94.73,37.57s-2.28,.23-4.73-1.25c0,0,1.13,2.62,4.73,2.22v-.97Z"/><g><g><path class="cls-12" d="M96.46,27.13c.01,.27-.2,.51-.49,.53-.28,.02-.52-.18-.54-.45-.01-.27,.2-.51,.49-.53,.28-.02,.53,.18,.54,.45Z"/><path class="cls-12" d="M96.96,26.36c-.06,.07-.46-.21-1.01-.2-.55,0-.96,.3-1.02,.23-.03-.03,.03-.15,.21-.28,.17-.13,.47-.26,.81-.27,.35,0,.64,.12,.81,.24,.17,.13,.23,.25,.2,.28Z"/></g><g><path class="cls-12" d="M91.08,27.24c.01,.27-.2,.51-.49,.53-.28,.02-.52-.18-.54-.45-.01-.27,.2-.51,.49-.53,.28-.02,.53,.18,.54,.45Z"/><path class="cls-12" d="M91.44,26.3c-.05,.07-.48-.16-1.03-.09-.55,.06-.92,.4-.99,.34-.03-.03,.02-.15,.18-.3,.16-.15,.44-.31,.78-.35,.34-.04,.65,.05,.83,.16,.19,.11,.26,.22,.23,.26Z"/></g><path class="cls-12" d="M93.55,30.82s.34-.1,.9-.18c.14-.02,.27-.05,.3-.14,.03-.1-.03-.25-.1-.42-.14-.34-.29-.7-.44-1.07-.61-1.52-1.05-2.78-.99-2.8,.06-.02,.61,1.19,1.22,2.71,.15,.38,.29,.73,.42,1.08,.06,.16,.15,.34,.08,.55-.04,.11-.14,.19-.23,.21-.09,.03-.17,.03-.24,.04-.56,.04-.91,.05-.91,.02Z"/><path class="cls-12" d="M91.93,31.24c.09,0,.1,.59,.62,1.01,.52,.42,1.16,.34,1.17,.42,0,.04-.14,.12-.41,.13-.27,.01-.65-.06-.97-.32-.32-.26-.46-.6-.49-.85-.03-.25,.04-.4,.08-.4Z"/></g><path class="cls-12" d="M91.47,23.91c-.05,.15-.61,.09-1.26,.18-.65,.08-1.17,.28-1.26,.14-.04-.06,.05-.21,.26-.36,.21-.15,.54-.29,.93-.34,.39-.05,.75,0,.99,.1,.24,.09,.36,.21,.34,.28Z"/><path class="cls-12" d="M96.68,24.95c-.1,.13-.48,0-.94,0-.46-.01-.85,.1-.94-.03-.04-.06,.02-.19,.19-.31,.17-.12,.44-.22,.76-.22,.32,0,.59,.11,.75,.24,.16,.13,.22,.26,.18,.32Z"/><path class="cls-12" d="M93.48,18.33c-1.28-.5-2.57-.24-3.92-.04-1.07,.16-2.01,.5-2.88,1.15-1.37,1.01-2.05,2.62-2.12,4.33-.07,1.7,.1,3.21,.53,4.86l.13-.03c-.08,.42-.16,.86-.02,1.25s.61,.71,1,.54c.45-.2,.47-.82,.43-1.32-.14-1.68-.11-3.32-.02-5.01,.07-1.25,.78-2.77,1.75-3.36,1.77-1.18,4.07-.22,4.85-.08,1.2-1.03,2.32-.22,3.05,.67-.27-1.34-1.51-2.46-2.78-2.97Z"/></g></g><path class="cls-12" d="M93.21,20.63c.79,0,1.42-.53,2.3-.39,.53,.09,1.07,.95,1.53,2.03,.53-.32,.83-.97,.73-1.58-.1-.61-.59-1.14-1.19-1.27,.22,.12,.45,.24,.7,.23,.25,0,.51-.2,.5-.45-.01-.18-.15-.32-.29-.43-.79-.63-1.84-.93-2.84-.82-1,.12-1.95,.64-2.58,1.44"/><path class="cls-11" d="M97.28,19.13s-.26-.14-.68-.27c-.42-.13-1.06-.21-1.69,.01-.63,.22-1.09,.67-1.34,1.04-.25,.37-.33,.64-.37,.63-.02,0,0-.3,.23-.72,.22-.41,.7-.93,1.4-1.17,.7-.24,1.39-.13,1.82,.05,.44,.18,.64,.41,.62,.43Z"/><path class="cls-11" d="M97.11,21.85s.11-.33,0-.84c-.05-.25-.17-.54-.39-.79-.22-.25-.54-.45-.92-.55-.76-.21-1.49,.06-1.92,.33-.44,.28-.67,.53-.69,.51-.02-.01,.16-.31,.6-.64,.22-.16,.52-.32,.88-.42,.36-.1,.78-.11,1.2,0,.42,.11,.78,.34,1.02,.64,.24,.29,.36,.62,.39,.9,.07,.57-.15,.88-.17,.87Z"/><path class="cls-11" d="M84.28,27.79s-.05-.11-.09-.33c-.04-.22-.08-.53-.08-.93,0-.78,.17-1.9,.75-2.97,.58-1.07,1.41-1.83,2.08-2.25,.33-.21,.62-.36,.82-.44,.2-.08,.32-.12,.33-.1,.02,.04-.43,.23-1.05,.68-.62,.45-1.41,1.2-1.96,2.23-.56,1.03-.76,2.1-.79,2.86-.04,.77,.05,1.25,.01,1.25Z"/><path class="cls-11" d="M84.83,28.24c-.05,.02-.29-1.24,.2-2.71,.48-1.47,1.43-2.34,1.46-2.29,.06,.05-.78,.95-1.24,2.36-.48,1.4-.35,2.63-.42,2.63Z"/></g><g><path class="cls-8" d="M125.59,48.85c-.11-.28-.63-.34-.63-.34l.1-.16c.15-.22,.17-.51,.05-.75-.02-.04-.04-.07-.06-.11-.17-.29-.6-.43-.6-.43,0,0,.38-.52,.29-.78-.12-.34-.7-.77-1.18-.69-.52,.09-1.66,.44-2.45,.73-.31,.12-.65-.07-.72-.4-.13-.62-.38-1.58-.79-2.27-.45-.75-.98-.78-1.3-.71-.15,.03-.24,.2-.18,.34,.17,.42,.5,1.25,.57,1.59,.08,.41-.21,3.34-.21,3.34l-1.49,2,3.38,4.88,1.48-2.21,3.19-1.4s.6-.76,.54-1.02c-.06-.26-.31-.42-.31-.42l.39-.56s.03-.36-.08-.63Z"/><path class="cls-4" d="M124.74,47.12s-.02,.02-.07,.04l-.2,.11-.73,.4c-.31,.17-.68,.37-1.08,.59-.21,.11-.41,.23-.65,.33-.23,.1-.54,.14-.79-.02-.12-.08-.2-.21-.24-.34-.04-.13-.03-.27,0-.4,.05-.26,.23-.46,.41-.61,.18-.15,.38-.26,.55-.37l.49-.29c.3-.17,.54-.32,.72-.42l.2-.11s.07-.04,.07-.03c0,0-.02,.02-.06,.05l-.19,.12-.7,.44-.49,.3c-.18,.11-.37,.22-.54,.37-.17,.15-.33,.34-.38,.57-.05,.23,0,.52,.22,.66,.1,.07,.23,.1,.36,.09,.12,0,.25-.03,.36-.08,.23-.09,.44-.22,.65-.33,.41-.21,.78-.41,1.09-.57,.3-.16,.55-.29,.74-.38l.2-.1s.07-.03,.07-.03Z"/><path class="cls-4" d="M125.17,48.59s-.05,.04-.15,.09c-.1,.05-.25,.13-.43,.22-.36,.18-.88,.41-1.45,.64-.14,.06-.28,.12-.43,.15-.14,.04-.3,.05-.43,.01-.28-.08-.45-.32-.48-.52-.03-.21,.05-.38,.11-.47,.03-.05,.07-.08,.09-.1,.02-.02,.04-.03,.04-.03,0,0-.05,.04-.1,.14-.06,.09-.12,.25-.08,.45,.03,.19,.19,.4,.44,.47,.12,.03,.26,.02,.4-.02,.14-.04,.28-.1,.42-.15,.57-.23,1.09-.45,1.46-.62l.44-.2c.1-.05,.16-.07,.16-.06Z"/><path class="cls-4" d="M125.34,49.98s-.05,.03-.15,.06l-.42,.14c-.36,.11-.85,.26-1.4,.42-.14,.04-.27,.08-.41,.11-.14,.02-.28,.02-.4-.03-.12-.05-.22-.14-.26-.26-.04-.11-.03-.23,0-.32,.07-.19,.2-.29,.29-.34,.09-.06,.15-.07,.15-.07,0,0-.05,.03-.13,.09-.08,.06-.2,.16-.26,.34-.03,.08-.03,.19,0,.28,.03,.1,.12,.18,.23,.22,.11,.04,.24,.05,.36,.02,.13-.02,.26-.07,.4-.11,.55-.16,1.05-.3,1.41-.4l.43-.11c.1-.03,.16-.04,.16-.03Z"/><path class="cls-4" d="M125.35,51.25s-.18,.03-.48,.05c-.3,.02-.71,.04-1.16,.06h-.33c-.11,.02-.21,.02-.32,0-.1-.02-.2-.07-.26-.14-.07-.07-.08-.17-.07-.25,.04-.16,.15-.24,.22-.28,.08-.04,.13-.04,.13-.03,0,0-.04,.02-.11,.06-.06,.04-.16,.13-.19,.26,0,.07,0,.14,.06,.2,.05,.06,.13,.1,.23,.11,.09,.02,.19,.01,.3,0l.33-.02c.45-.02,.86-.04,1.16-.04,.3,0,.48,0,.48,0Z"/><path class="cls-4" d="M122.3,50.17s-.35-.16-.81-.21c-.46-.05-.83,.06-.84,.03,0-.02,.37-.16,.85-.11,.48,.05,.82,.27,.8,.29Z"/></g><path class="cls-8" d="M101.06,72.04l.7-.18s.25-1.17,.56-1.42,3.4-1.66,4.08-2.03c.68-.37,3.34-1.58,3.67-.94,.38,.73-.7,1.33-1.29,1.6-.59,.28-2.26,.93-1.92,1.33s4.08,.22,4.08,.22l.47-.63s.82,.78,.73,1.46c-.09,.68-.37,1.11-.37,1.11h-.28s.28,.4,.03,.8-.74,.93-.74,.93c0,0-.44,.92-1.76,1.29-.15,.04-6.33,.58-6.33,.58l-2.07,.21,.45-4.33Z"/></g></svg>