<?xml version="1.0" encoding="UTF-8"?><svg id="Designed_by_freepik" xmlns="http://www.w3.org/2000/svg" viewBox="0 0 143.87 166.11"><defs><style>.cls-1{fill:#ff9cbf;}.cls-2{fill:#ececec;}.cls-3{fill:#ffc800;}.cls-4{fill:#f0a930;}.cls-5{fill:#fec563;}.cls-6{fill:#c26358;}.cls-7{fill:#c8c8c8;}.cls-8{fill:#a8a8a8;}.cls-9{fill:#375a64;}.cls-10{fill:#1a2e35;}.cls-11{fill:#2b454e;}</style></defs><g><path class="cls-5" d="M115.36,110.88c0,31.56-23.12,54.11-55.45,54.11C24.17,164.99,1.26,137.07,.19,107.87-1.74,79.1,10.25,40.24,73.19,.51l28.04,29.63c-10.06,4.51-23.98,14.39-36.18,26.84,30.4,3.22,50.31,24.69,50.31,53.9Zm-37.89-.22c0-10.09-7.71-19.33-19.91-19.33-8.99,0-19.7,4.72-20.34,16.96v1.51c.21,13.1,11.77,20.4,21.41,20.4,10.49,0,18.84-9.02,18.84-19.54Z"/><g><path class="cls-4" d="M81.04,107.18c0-10.09-7.71-19.33-19.91-19.33-6.16,0-13.13,2.22-17.11,7.56,3.92-2.84,8.95-4.08,13.54-4.08,12.2,0,19.91,9.23,19.91,19.33,0,4.6-1.6,8.91-4.27,12.31,4.76-3.6,7.84-9.41,7.84-15.79Z"/><path class="cls-4" d="M63.49,161.5c-35.75,0-58.66-27.91-59.73-57.12-1.41-21.11,4.69-47.65,32.88-75.97C5.39,58.05-1.28,85.9,.19,107.87c1.07,29.2,23.98,57.12,59.73,57.12,17.14,0,31.7-6.34,41.59-17.01-9.68,8.55-22.83,13.52-38.02,13.52Z"/></g></g><g><g><path class="cls-10" d="M38.43,113.94c-1.65-1.62-3.79-3.58-6.32-2.88-2.38,.66-3.29,3.25-3.71,5.41-.55,2.79-.98,5.6-1.42,8.41-.45,2.83-.87,5.67-1.27,8.51-.23,1.6-.46,3.2-.68,4.81-.11,.8-.22,1.6-.33,2.4-.11,.79-.24,1.57-.28,2.36-.01,.25,.38,.29,.44,.05,.31-1.34,.43-2.73,.63-4.08,.2-1.36,.39-2.73,.59-4.09,.4-2.71,.81-5.42,1.21-8.13,.41-2.71,.83-5.42,1.26-8.12,.37-2.29,.54-5.15,2.57-6.66,1.12-.83,2.54-.84,3.8-.36,1.34,.51,2.41,1.47,3.46,2.42,.03,.03,.08-.02,.05-.05Z"/><g><path class="cls-3" d="M36.17,112.28s-3.38-1.22-5.05,1.25c-1.67,2.47,.33,8.74,15.71,12.28,0,0-.4-6.71-3.7-13.91-3.3-7.19-9.17-4.47-6.96,.38Z"/><g><path class="cls-10" d="M45.95,124.78c-.21-.44-.51-.84-.77-1.25-.26-.4-.52-.79-.78-1.18-.2-.3-.4-.59-.6-.88,.01-.07,.02-.15,.03-.22,.02-.13,.04-.27,.05-.4,.04-.29,.08-.58,.12-.86,.04-.29,.09-.57,.15-.86,.06-.29,.08-.63,.2-.91,.02-.04-.06-.07-.07-.01-.02,.17-.09,.34-.14,.51-.04,.13-.07,.26-.1,.39-.07,.29-.15,.58-.21,.88-.06,.27-.11,.54-.16,.82-.02,.13-.04,.26-.06,.39-.27-.39-.55-.78-.84-1.16-.82-1.08-1.68-2.11-2.58-3.12,0,0,.01-.02,.01-.03,.08-1.62,.04-3.22,.4-4.81,0-.04-.06-.07-.07-.02-.34,1.49-.67,3.06-.57,4.6-.32-.36-.64-.71-.97-1.07-.75-.81-1.51-1.6-2.29-2.38-.03-.03-.08,.01-.05,.05,1.3,1.4,2.53,2.85,3.73,4.33-.93-.03-1.88,.04-2.81,.1-1.04,.08-2.08,.21-3.12,.35-.04,0-.03,.07,.01,.07,1.03-.15,2.07-.24,3.11-.28,1-.04,2,0,3,0,.65,.8,1.29,1.61,1.92,2.43-.05,0-.09,0-.14,0-.24,0-.47,0-.71,0-.47,0-.94,.04-1.4,.08-.96,.08-1.91,.22-2.84,.43-.04,0-.03,.07,.01,.07,.95-.11,1.89-.2,2.84-.23,.45-.02,.91-.02,1.36-.02,.24,0,.47,0,.71,0,.14,0,.27,.02,.39-.04,.41,.54,.83,1.07,1.24,1.61,.33,.43,.65,.86,.96,1.3,.32,.45,.62,.93,.98,1.35,.03,.03,.07,0,.06-.04Z"/><path class="cls-10" d="M37.64,115.77c-.54-.09-1.1-.08-1.65-.08-.55,0-1.1,.02-1.65,.04-.05,0-.05,.07,0,.07,.56-.04,1.11-.05,1.67-.04,.54,0,1.08,.06,1.62,.05,.02,0,.02-.02,0-.03Z"/><path class="cls-10" d="M42.47,117.01c.06-.53,.13-1.05,.24-1.57,.01-.05-.06-.06-.07-.01-.08,.52-.18,1.03-.26,1.55-.04,.26-.07,.52-.11,.78-.03,.24-.08,.49-.06,.73,0,.05,.08,.05,.09,0,.06-.23,.06-.49,.08-.73,.02-.25,.05-.5,.08-.75Z"/><path class="cls-10" d="M41.46,111.19c-.13,.51-.27,1.03-.36,1.55-.05,.26-.09,.53-.12,.8-.03,.25-.08,.52-.05,.78,0,.02,.03,.02,.04,0,.07-.24,.09-.5,.12-.74,.03-.26,.07-.51,.12-.76,.09-.54,.19-1.07,.32-1.6,.01-.04-.05-.07-.07-.02Z"/></g></g></g><g><path class="cls-10" d="M21.43,142.39c-.08-.97-.18-1.94-.28-2.9-.2-1.92-.44-3.83-.69-5.74-.26-1.9-.5-3.81-.81-5.71-.14-.87-.29-1.76-.59-2.59-.26-.72-.69-1.36-1.44-1.62-1.81-.62-3.03,1.25-3.76,2.58-.02,.04,.04,.07,.06,.03,.44-.63,1.65-2.39,3.02-2.31,.92,.06,1.66,.71,2.11,3.01,1.1,5.74,2.1,17.39,2.22,18.15,.06,.4,.35,.39,.35-.05,0-.95-.11-1.91-.19-2.85Z"/><path class="cls-3" d="M14.35,125.7s1.58-5.59-1.92-2.79c-5.82,4.65-6.03,14.76-6.03,14.76,0,0,10.35-6.01,11.64-9.98,1.92-5.91-3.69-2-3.69-2Z"/><g><path class="cls-10" d="M16.31,128.44c-.81,.16-1.64,.27-2.46,.39-.39,.06-.78,.11-1.16,.16-.26,.04-.53,.06-.79,.09,.77-1.06,1.55-2.12,2.29-3.2,.03-.04-.04-.08-.07-.05-.61,.63-1.18,1.3-1.73,2-.15-.43-.31-.86-.46-1.3-.18-.5-.37-1-.49-1.51-.01-.04-.08-.02-.07,.02,.14,.51,.24,1.03,.38,1.55,.13,.5,.28,.99,.46,1.47-.38,.49-.74,1-1.1,1.51-.18-.5-.4-.99-.56-1.51-.01-.04-.08-.02-.07,.02,.19,.57,.29,1.16,.46,1.73-.24,.35-.48,.69-.7,1.04-.42,.65-.81,1.3-1.2,1.97-.06,.03-.1,.08-.09,.16-.65,1.13-1.28,2.28-1.89,3.44-.02,.04,.04,.07,.06,.03,.61-1.14,1.3-2.26,2.01-3.35h0c.08-.04,.25-.05,.34-.07,.12-.02,.24-.05,.36-.08,.27-.06,.53-.13,.8-.19,.52-.13,1.04-.25,1.58-.35,.04,0,.02-.07-.02-.07-.63,.12-1.25,.19-1.89,.26-.3,.03-.6,.07-.89,.12h-.04c.37-.56,.75-1.12,1.13-1.68,.38-.55,.76-1.08,1.15-1.62,.36-.05,.71-.14,1.07-.21,.4-.08,.8-.15,1.2-.23,.8-.16,1.6-.34,2.4-.47,.04,0,.02-.08-.02-.07Z"/><path class="cls-10" d="M10.09,128.99c-.05-.15-.09-.3-.14-.44-.1-.31-.17-.62-.24-.94,0-.04-.08-.02-.07,.02,.07,.32,.14,.63,.21,.94,.07,.31,.15,.64,.27,.93,.03,.07,.14,.04,.12-.04-.04-.16-.11-.32-.16-.48Z"/><path class="cls-10" d="M17.37,127.15c-.47,.07-.95,.1-1.42,.15-.48,.04-.95,.11-1.42,.18-.03,0-.03,.04,0,.04,.48-.03,.95-.07,1.42-.13,.47-.06,.95-.13,1.42-.17,.05,0,.04-.08,0-.07Z"/></g></g><g><path class="cls-10" d="M29.04,135.32c-.18-4.11-.44-8.22-.86-12.32-.21-2.04-.44-4.08-.72-6.11-.28-1.99-.62-3.98-1.18-5.91-.42-1.48-.98-2.97-1.97-4.17-.98-1.19-2.41-1.93-3.98-1.74-1.8,.22-3.25,1.36-4.5,2.59-1.41,1.38-2.69,2.89-4,4.37-.33,.37-.66,.75-.98,1.13-.03,.03,.02,.08,.05,.05,1.27-1.46,2.6-2.88,3.98-4.24,1.28-1.26,2.6-2.63,4.37-3.15,.82-.24,1.71-.31,2.54-.06,.67,.2,1.25,.6,1.73,1.1,1,1.04,1.56,2.44,1.96,3.8,1.11,3.78,1.5,7.74,1.91,11.65,.42,3.97,.7,7.94,.9,11.93,.2,4,.36,8.01,.74,12.01,.05,.49,.11,.98,.17,1.48,.04,.33,.55,.33,.53-.01-.33-4.13-.52-8.25-.7-12.39Z"/><g><path class="cls-3" d="M15.61,108.11s2.35-4.35-.43-5.74c-2.78-1.39-12.06,8.97-14.78,24.13,0,0,15-6.64,20.1-13.25,5.09-6.61-.68-8.07-4.89-5.14Z"/><g><path class="cls-10" d="M17.81,111.65c-1.69,0-3.37-.13-5.05-.12,.32-.36,.63-.73,.95-1.09,.44-.5,.94-.98,1.32-1.53,.02-.04-.03-.08-.06-.06-.47,.37-.87,.85-1.28,1.28-.42,.45-.84,.9-1.26,1.35-.64,.7-1.28,1.41-1.91,2.12,0-.07,0-.14,0-.2,0-.3,0-.59,0-.89,0-.57,.01-1.14,.02-1.72,.01-1.16,0-2.32,.09-3.48,0-.04-.07-.04-.07,0-.08,1.16-.2,2.32-.26,3.49-.03,.57-.04,1.14-.05,1.72,0,.3,0,.59,0,.89,0,.16,0,.33,0,.5-.1,.11-.2,.22-.3,.33-1.35,1.54-2.62,3.13-3.87,4.75,0-.09-.01-.18-.02-.27-.02-.18-.04-.36-.06-.53-.04-.39-.1-.77-.15-1.16-.05-.36-.11-.72-.17-1.08-.07-.4-.17-.82-.2-1.23,0-.05-.08-.04-.07,.01,.09,.4,.1,.83,.14,1.23,.03,.37,.07,.74,.1,1.11,.03,.37,.07,.74,.11,1.11,.02,.18,.03,.36,.05,.53,0,.09,.02,.18,.03,.27,.02,.12,.03,.13,.07,.21-.21,.28-.43,.56-.64,.84-.85,1.13-1.69,2.26-2.52,3.4-.03,.04,.02,.08,.05,.05,.79-1.03,1.6-2.04,2.43-3.05,.62,.03,1.25-.02,1.86-.03,.65-.01,1.3-.01,1.95-.02,.04,0,.04-.07,0-.07-.65,.01-1.3,.02-1.95,.02-.59,0-1.2-.03-1.79,0,.73-.88,1.46-1.76,2.19-2.63,.27-.32,.54-.64,.81-.96,.24,.05,.51,.03,.75,.03,.3,0,.59,0,.89,0,.55,0,1.11-.01,1.66-.02,1.15-.02,2.29-.06,3.44-.06,.04,0,.04-.07,0-.07-1.15-.01-2.29-.06-3.44-.09-.55-.01-1.11-.03-1.66-.04-.3,0-.59,0-.89-.01-.17,0-.34-.01-.51,0,.63-.75,1.26-1.49,1.89-2.24,.02,0,.03-.02,.03-.04,.62-.73,1.23-1.45,1.85-2.17,.09-.1,.17-.2,.26-.29,1.75,.05,3.49-.06,5.24-.03,.04,0,.04-.07,0-.07Z"/><path class="cls-10" d="M16.95,114.63h-.41s-.04,.07,0,.07h.41s.04-.07,0-.07Z"/><path class="cls-10" d="M16.04,114.63c-.54,0-1.08-.02-1.62-.03-.27,0-.54-.02-.81-.03-.24,0-.52-.05-.75,0-.03,0-.02,.04,0,.05,.23,.07,.51,.05,.76,.05,.27,0,.54,0,.81,.01,.54,0,1.08,0,1.62,0,.04,0,.04-.07,0-.07Z"/><path class="cls-10" d="M11.33,119.7c-1.1-.15-2.21-.31-3.32-.3-.02,0-.01,.02,0,.02,1.1,.1,2.21,.16,3.3,.34,.04,0,.06-.06,.02-.07Z"/><path class="cls-10" d="M6.82,114.87c-.01-.1-.02-.19-.03-.29-.03-.22-.06-.43-.1-.65-.06-.41-.14-.82-.22-1.23,0-.04-.07-.03-.07,.01,.05,.42,.1,.85,.14,1.27,.02,.21,.03,.42,.05,.63,.02,.19,0,.42,.08,.59,.03,.06,.13,.04,.15-.02,.03-.1,0-.21,0-.31Z"/></g></g></g><g><path class="cls-10" d="M28.9,102.53c-.54-1-1.22-2.32-2.56-2.24-1.11,.07-1.61,1.2-1.84,2.13-.73,2.89-.78,5.93-.92,8.89-.3,6.25-.57,12.51-.61,18.77-.01,1.74,0,3.47,.01,5.21,.02,1.77,.01,3.55,.12,5.32,.01,.17,.26,.16,.26,0,0-1.51-.04-3.03-.05-4.54,0-1.48,0-2.95,.03-4.43,.05-2.99,.13-5.98,.24-8.97,.11-2.97,.24-5.94,.37-8.92,.06-1.49,.13-2.97,.19-4.46,.07-1.44,.13-2.88,.29-4.31,.09-.8,.21-1.6,.38-2.39,.12-.56,.29-1.17,.69-1.6,.53-.57,1.33-.53,1.96-.14,.65,.4,1.04,1.07,1.39,1.73,.02,.04,.08,0,.06-.04Z"/><g><path class="cls-3" d="M28.53,102.05s-1.1-3.89,1.33-1.95c4.06,3.24,4.2,10.28,4.2,10.28,0,0-7.21-4.19-8.11-6.95-1.34-4.11,2.57-1.39,2.57-1.39Z"/><g><path class="cls-10" d="M32.55,107.5c-.07-.11-.14-.21-.2-.32,.02-.11,0-.23,0-.33,0-.17,0-.33,0-.5,0-.33,.02-.66,.04-.99,0-.04-.07-.04-.07,0-.02,.32-.03,.64-.04,.97,0,.16-.01,.32-.02,.48,0,.06-.01,.14-.01,.21-.28-.44-.57-.87-.87-1.3-.09-.12-.18-.24-.27-.37-.07-.42-.03-.85-.02-1.27,0-.45,.01-.9,.03-1.36,0-.04-.07-.04-.07,0-.01,.47-.04,.94-.06,1.41-.02,.33-.05,.67-.03,1.01-.7-.95-1.43-1.86-2.18-2.77-.02-.03-.08,.01-.05,.04,.46,.59,.91,1.19,1.34,1.8-.85-.2-1.71-.31-2.57-.44-.04,0-.06,.06-.02,.07,.91,.14,1.81,.37,2.71,.57,0,0,.01,0,.02,0,.35,.49,.69,.98,1.03,1.47,.14,.2,.27,.4,.41,.6h-.04c-.09-.02-.19-.03-.28-.04-.2-.02-.4-.04-.6-.06-.42-.03-.83-.05-1.25-.08-.04,0-.04,.07,0,.07,.41,0,.82,.04,1.22,.08,.22,.02,.43,.05,.64,.08,.09,.01,.19,.02,.28,.03,.03,0,.06,0,.08,.01,.23,.34,.46,.68,.69,1.02,.41,.6,.77,1.25,1.2,1.83,.03,.03,.07,0,.06-.03-.3-.66-.72-1.28-1.1-1.89Z"/><path class="cls-10" d="M30.75,103.11c0-.15,0-.3,0-.45,0-.32,0-.64,.04-.95,0-.05-.07-.06-.07,0,0,.31-.03,.63-.05,.94,0,.16,0,.32,0,.47,0,.07,0,.15,0,.22,0,.07,0,.16,.02,.23,.01,.03,.05,.03,.06,0,.02-.07,.01-.14,0-.21,0-.08,0-.16,0-.24Z"/><path class="cls-10" d="M29.86,104.72c-.27-.05-.54-.06-.81-.08-.3-.03-.59-.05-.89-.09-.05,0-.06,.07,0,.07,.57,.04,1.14,.14,1.71,.16,.03,0,.04-.05,0-.05Z"/></g></g><path class="cls-10" d="M32.13,104.74s0,.11,0,.15v.13c0,.09,0,.18,0,.27v.27c0,.07-.02,.17,.01,.24,0,.01,.02,0,.03,0,.02-.04,.01-.07,.01-.11v-.4c0-.09,0-.18,0-.27v-.13s-.01-.12,0-.15c.04-.06-.11-.06-.06,0Z"/></g><g><path class="cls-10" d="M29.06,123.29c-1.52-1.14-2.88-2.77-4.92-2.85-1.68-.07-2.86,1.2-3.54,2.61-.36,.74-.6,1.53-.83,2.32-.3,1.07-.59,2.14-.86,3.21-.53,2.11-.98,4.25-1.35,6.4-.2,1.2-.4,2.4-.55,3.6-.15,1.22-.35,2.46-.35,3.69,0,.21,.33,.25,.38,.04,.21-1.01,.29-2.05,.44-3.07,.15-1.02,.3-2.05,.48-3.07,.35-2.04,.75-4.08,1.21-6.1,.44-1.91,.86-3.84,1.48-5.7,.44-1.33,1.15-2.89,2.59-3.36,2.19-.73,4.17,1.12,5.78,2.33,.04,.03,.08-.02,.05-.05Z"/><g><path class="cls-3" d="M27.49,122.21s-1.4-3.99,.62-4.77c3.03-1.17,10.96,7.76,9.41,21.44,0,0-6.13-3.37-10.65-7.17-4.52-3.8-5.68-8.76-3.69-10.04,1.99-1.28,4.31,.54,4.31,.54Z"/><g><path class="cls-10" d="M36.61,135.94c-.18-.48-.49-.93-.74-1.38-.26-.47-.52-.94-.79-1.4-.53-.9-1.05-1.8-1.59-2.7-.09-.14-.18-.29-.27-.43,.01-.05,.02-.11,.03-.16l.09-.4c.07-.3,.12-.6,.17-.9,.11-.59,.21-1.18,.37-1.75,.01-.04-.06-.06-.07-.01-.13,.59-.31,1.16-.48,1.73-.09,.28-.18,.56-.25,.85l-.08,.29c-.65-1.07-1.31-2.13-2.03-3.16,.06-.13,.05-.29,.07-.44,.02-.2,.05-.4,.07-.6,.05-.45,.11-.9,.17-1.35,.13-.88,.26-1.76,.48-2.62,.01-.04-.06-.06-.07-.01-.22,.86-.46,1.72-.62,2.6-.08,.43-.16,.86-.21,1.29-.03,.22-.05,.43-.07,.65,0,.06-.02,.13-.02,.2-.22-.31-.44-.62-.67-.92-.7-.92-1.42-1.82-2.16-2.71-.03-.03-.09,0-.06,.04,1.28,1.57,2.37,3.31,3.45,5.03,.2,.32,.4,.64,.6,.97-.07,0-.13-.02-.2-.02-.26-.03-.52-.05-.77-.07-.52-.05-1.03-.09-1.55-.13-1.03-.08-2.07-.15-3.1-.26-.04,0-.06,.06-.01,.07,1.04,.12,2.08,.29,3.12,.43,.51,.07,1.02,.14,1.53,.21,.35,.05,.8,.15,1.18,.12,.41,.66,.81,1.32,1.22,1.98-.09-.01-.18,0-.27-.01-.17,0-.34,0-.52,0-.32,0-.64,0-.96,0-.66,0-1.33,.01-1.99,.01-.04,0-.04,.07,0,.07,.67,0,1.35,.04,2.02,.08,.32,.02,.64,.04,.96,.06,.16,.01,.32,.02,.48,.03,.14,0,.29,.04,.42-.02,.34,.56,.69,1.12,1.04,1.68,.32,.52,.64,1.03,.96,1.54,.33,.51,.63,1.1,1.04,1.56,.03,.03,.08,0,.07-.04Z"/><path class="cls-10" d="M33.69,124.88c-.05,.44-.17,.87-.27,1.3-.11,.44-.24,.88-.39,1.32-.02,.06,.06,.09,.08,.03,.14-.43,.26-.87,.36-1.31,.11-.44,.17-.89,.28-1.33,.01-.04-.06-.06-.07-.01Z"/><path class="cls-10" d="M29.19,127.55c-.1-.1-.2-.11-.33-.12-.19-.03-.39-.05-.58-.08-.36-.05-.72-.09-1.08-.13-.75-.09-1.49-.16-2.24-.25-.04,0-.06,.06-.01,.07,.7,.09,1.4,.19,2.11,.28,.34,.05,.69,.09,1.03,.13,.17,.02,.33,.04,.5,.06,.18,.02,.4,.02,.57,.1,.03,.02,.06-.03,.03-.05Z"/><path class="cls-10" d="M33.68,133.57c-.35-.03-.71-.04-1.06-.05l-.53-.02h-.26c-.11-.01-.23,0-.33-.03-.05-.01-.05,.08,0,.07,.1-.02,.21,0,.31,0l.28,.02c.18,.01,.36,.02,.53,.03,.35,.02,.71,.04,1.06,.04,.04,0,.05-.07,0-.08Z"/><path class="cls-10" d="M35.84,132.04c.04-.2,.08-.4,.12-.6,.07-.39,.14-.79,.22-1.18,0-.04-.06-.06-.07-.01-.09,.38-.17,.77-.26,1.15-.04,.19-.09,.38-.13,.58l-.06,.27c-.02,.09-.05,.19-.03,.28,0,.03,.05,.06,.08,.02,.09-.14,.1-.34,.13-.51Z"/></g></g></g><g><g><polygon class="cls-9" points="35.02 143.83 34.68 149.49 33.68 166.18 13.03 166.18 12.02 149.49 11.68 143.83 35.02 143.83"/><polygon class="cls-10" points="35.02 143.83 34.68 149.49 12.02 149.49 11.68 143.83 35.02 143.83"/></g><rect class="cls-9" x="10.1" y="139.83" width="26.5" height="5.66"/></g></g><g><g><g><g><path class="cls-6" d="M111.74,142.61s-2.05,15.08-2.05,15.09c-.04,2.88-.12,5.41-.29,6.71,0,0,0,.01,0,.02-.06,.49-.14,.81-.22,.89,0,0-.01,.01-.02,.02-.87,.57-23.92,.95-24.72,.69-.81-.25-.14-2.58,.75-3.31,.89-.73,9.65-4.82,9.65-4.82l2.19-15.07,14.72-.22Z"/><path class="cls-10" d="M109.66,159.55c-.05,2.09-.13,3.84-.26,4.86,0,0,0,.01,0,.02-.06,.49-.13,.81-.22,.89,0,0,0,.01-.01,.02-.87,.57-23.92,.95-24.73,.69-.81-.26-.14-2.58,.75-3.31,.42-.35,2.65-1.46,4.86-2.53-.7,.55-1.4,1.23-1.08,1.5,.57,.48,14.54-.02,20.7-2.13Z"/><path class="cls-10" d="M91.33,159.55s4.08-1.86,11.07,1.5"/></g><g><polygon class="cls-10" points="115.18 153 95.09 152.68 105.2 77.31 118.82 77.31 115.18 153"/><polygon class="cls-11" points="118.82 77.31 116.24 131 109.47 77.31 118.82 77.31"/><g><path class="cls-9" d="M114.21,149.51c-.61-.07-1.23-.07-1.84-.09-.58-.02-1.17-.03-1.75-.04-1.21-.02-2.42-.04-3.63-.05-2.39-.02-4.78-.04-7.17-.03-1.36,0-2.71,.04-4.07,.1-.04,0-.04,.07,0,.07,2.4,.14,4.81,.18,7.22,.21,2.39,.03,4.78,.04,7.17,.04,.67,0,1.34,0,2.01-.01,.68,0,1.38,0,2.06-.06,.08,0,.08-.12,0-.13Z"/><path class="cls-9" d="M107.77,81.24c-1.18,8.56-2.28,17.13-3.44,25.69-1.16,8.53-2.39,17.04-3.63,25.56-.69,4.78-1.43,9.55-2.07,14.33,0,.07,.1,.1,.11,.03,1.57-8.5,2.81-17.06,4.05-25.61,1.23-8.52,2.38-17.04,3.43-25.58,.59-4.8,1.17-9.6,1.65-14.41,0-.06-.1-.07-.11-.01Z"/></g></g></g><g><g><path class="cls-6" d="M118.84,142.83s1.93,14.37,1.93,14.38c.02,2.88,.09,5.41,.24,6.72,0,0,0,.01,0,.02,.06,.49,.13,.81,.22,.89,0,0,.01,.01,.02,.02,.86,.58,21.44,1.1,22.25,.85,.81-.25,.15-2.58-.72-3.31-.89-.73-7.15-4.88-7.15-4.88l-2.42-15.06-14.37,.38Z"/><path class="cls-10" d="M143.5,165.71c-.81,.25-21.39-.27-22.25-.85,0,0,0-.01-.01-.02-.09-.08-.16-.4-.22-.89,0,0,0-.01,0-.02-.14-1.2-.19-1.97-.22-4.56,3.36,2.13,12.06,3.08,14.83,2.47,2.45-.54,1.91-2.51,1.4-3.4,1.9,1.26,5.14,3.44,5.76,3.95,.88,.73,1.54,3.06,.72,3.32Z"/><path class="cls-10" d="M137.02,158.44s-6.93-1.13-11.66,2.61"/></g><g><path class="cls-10" d="M106.59,77.29h0c.06,.29,1.01,4.71,2,8.51,.72,2.77,1.46,5.21,1.88,5.46,.48,.28,2.82,1.32,3.6,1.65l3.06,59.95,20.78-.47-10.86-65.39-1.83-9.71h-18.64Z"/><g><g><path class="cls-9" d="M109.22,90.65c1.67,.57,3.28,1.39,4.82,2.25,.06,.03,.02,.13-.04,.1-1.62-.7-3.28-1.36-4.86-2.15-.12-.06-.04-.24,.09-.19Z"/><path class="cls-9" d="M108.73,79.52c0-.06,.1-.07,.1,0-.01,1.93,.11,3.62,.27,5.43,.08,.84,.75,5.46,2.2,5.12,.24-.06,.37-.3,.4-.66,.05-.44-.12-.98-.19-1.42-.16-.97-.29-1.94-.37-2.92-.16-1.83-.16-3.65,.06-5.47,0-.06,.09-.06,.09,0,0,2.53,.06,5.05,.44,7.55,.18,1.2,.79,3.01-.47,3.2-1.28,.19-2.11-2.84-2.27-3.67-.44-2.31-.45-4.81-.27-7.16Z"/><path class="cls-9" d="M111.27,90.19c.13,.31,.24,.63,.33,.96,.07,.25,.16,.52,.14,.79,0,.05-.07,.06-.1,.02-.17-.22-.24-.51-.34-.77-.11-.3-.23-.59-.33-.89-.07-.2,.22-.3,.3-.11Z"/></g><path class="cls-9" d="M136.73,149.53c-.61-.05-1.23-.03-1.84-.04-.58,0-1.17,0-1.75,0-1.21,.01-2.42,.03-3.63,.05-2.39,.04-4.78,.1-7.17,.17-1.36,.04-2.71,.12-4.06,.22-.04,0-.04,.07,0,.07,2.41,.07,4.81,.04,7.22,0,2.39-.04,4.78-.1,7.17-.17,.67-.02,1.34-.04,2.01-.07,.68-.03,1.38-.04,2.05-.12,.08-.01,.08-.12,0-.13Z"/><path class="cls-9" d="M127.62,141.46c-.18-1.83-.37-3.66-.56-5.49-.38-3.63-.77-7.25-1.17-10.87-.8-7.25-1.62-14.5-2.45-21.74-.47-4.07-.85-8.14-1.38-12.2,0-.04-.06-.04-.06,0,.32,3.67,.76,7.32,1.13,10.99,.37,3.62,.73,7.25,1.1,10.87,.75,7.25,1.53,14.5,2.32,21.75,.22,2.03,.45,4.07,.69,6.1,.24,2.04,.52,4.07,.78,6.1,0,.05,.08,.05,.08,0-.17-1.83-.3-3.66-.48-5.49Z"/></g></g></g><path class="cls-10" d="M105.04,85.58l3.55,.23,10.34,.67,8.13,.53-1.83-9.71h-20.02l-.16,8.28Z"/></g><g><g><path class="cls-10" d="M110,39.38c-3.4,2.91-2.45,7.16-3.87,9.46-.87,1.41-3.69,2.9-4.25,4.52-.92,2.67,1.34,3.62,.83,5.07-.72,2.05-3.46,1.89-3.96,5.25-.49,3.36,3.2,6.93,11.97,7.9,8.77,.97,13.59-2.24,13.9-5.09,.31-2.85-2.6-3.8-2.8-5.93-.13-1.36,1.67-2.31,1.77-4.81,.09-2.5-2.35-3.32-2.7-5.44-.35-2.13,.78-7.29-2.35-9.93-3.12-2.64-6.87-2.44-8.54-1Z"/><path class="cls-10" d="M110.4,39.45c-.97,.68-1.7,1.56-2.25,2.6-.57,1.09-.95,2.26-1.25,3.45-.18,.7-.35,1.42-.68,2.06-.29,.56-.71,1.03-1.18,1.45-.95,.86-2.08,1.51-2.93,2.47-.81,.91-1.43,2.13-1.11,3.38,.18,.68,.62,1.23,.9,1.86,.26,.6,.37,1.34-.14,1.84-.44,.42-1.07,.62-1.57,.97-.49,.34-.93,.76-1.28,1.24-.72,.98-1.03,2.17-.81,3.37,.52,2.73,3.08,4.28,5.44,5.26,.33,.14,.66,.27,.99,.4,.05,.02,.09-.05,.04-.08-2.37-1.06-5.12-2.31-6.03-4.96-.41-1.19-.28-2.46,.41-3.52,.33-.51,.76-.96,1.25-1.32,.48-.35,1.03-.57,1.51-.9,.49-.34,.77-.84,.75-1.44-.03-.64-.34-1.2-.65-1.74-.33-.58-.61-1.16-.56-1.84,.04-.64,.34-1.24,.7-1.75,.74-1.05,1.83-1.73,2.81-2.52,.99-.8,1.77-1.71,2.13-2.95,.18-.63,.29-1.27,.45-1.9,.15-.59,.31-1.17,.52-1.73,.41-1.12,1-2.21,1.85-3.06,.22-.22,.46-.42,.72-.59,.03-.02,0-.07-.03-.05Z"/><path class="cls-10" d="M125.02,64.39c-.11-.46-.31-.9-.61-1.28-.31-.39-.67-.71-1.01-1.07-.32-.34-.62-.72-.72-1.18-.11-.56,.12-1.1,.39-1.58,.28-.51,.58-.99,.79-1.53,.2-.52,.3-1.08,.33-1.63,.06-1.17-.28-2.27-.88-3.26-.3-.49-.64-.96-.94-1.44-.33-.54-.6-1.1-.78-1.7-.39-1.32-.48-2.71-.8-4.05-.33-1.37-.82-2.7-1.42-3.98-.01-.03-.06,0-.05,.03,.54,1.15,.95,2.36,1.25,3.59,.28,1.17,.39,2.37,.59,3.55,.1,.58,.23,1.16,.44,1.71,.2,.52,.47,1,.76,1.47,.59,.97,1.2,1.92,1.37,3.07,.16,1.13-.03,2.27-.57,3.28-.46,.87-1.11,1.83-.7,2.85,.34,.86,1.17,1.38,1.71,2.1,.6,.79,.78,1.81,.59,2.77-.47,2.46-2.93,3.67-5.24,3.79-.07,0-.07,.11,0,.11,2-.02,4.18-.9,5.12-2.78,.44-.87,.59-1.89,.37-2.84Z"/></g><path class="cls-6" d="M111.97,56.86c-.62,2.55-8.03,26.44-9.5,26.78-4.32,.97-9.5,1.69-9.43-1.86,.12-5.56,10.57-20.19,15.58-25.06,3.3-3.2,3.96-2.38,3.35,.14Z"/><g><path class="cls-6" d="M111.97,56.86c-.62,2.55-8.03,26.44-9.5,26.78-4.32,.97-9.5,1.69-9.43-1.86,.12-5.56,10.57-20.19,15.58-25.06,3.3-3.2,3.96-2.38,3.35,.14Z"/><path class="cls-2" d="M93.02,83.06c-1.79-6.3,13.36-24.83,16.31-27.19,2.95-2.36,3.33-1.62,2.73,1.36s-7.76,25.53-9.27,26.35-8.95,2.33-9.76-.52Z"/></g><path class="cls-3" d="M105.4,71.16l-1.66,11.44s18.65,.28,23.28-.05c0,0-3.78-21.39-8.75-26.8-2.49-2.7-5.41-2.5-7.28-.61-.47,.48-6.1,7.91-6.69,10.75-.52,2.51,1.1,5.26,1.1,5.26Z"/><g><path class="cls-2" d="M116.19,54.17s-2.17,59.65-1.02,62.48c1.15,2.83,18.49,5.64,18.49,5.64,0,0-5.09-42.69-9.7-55.65-4.28-12.01-7.77-12.47-7.77-12.47Z"/><path class="cls-8" d="M127.78,90.85s-2.6,.37-4.74,.37-4.42-.22-5.06-.22c-.06,0-.09,.19-.05,.19,.83,.11,3.38,.36,5.07,.36s3.95-.27,4.62-.44c0,.47,0,.84,0,1.31-1.57,.3-4.59,.83-9.46,.2-.02-.2,.01-1.24-.03-1.53,0-.04-.19-.05-.2,.02-.04,.28-.15,2.8-.16,3.31,0,1.26,.07,4.82,.39,5.51,.71,1.56,3.75,1.57,4.59,1.57,.85,0,3.55,.09,4.57-.9,.54-.53,.66-3.42,.58-5.96-.04-1.22-.04-3.75-.11-3.77Zm-4.8,10.32c-2.69,0-3.86-.56-4.27-1.12-.48-.65-.52-1.79-.56-3.05-.03-.99,0-4.08,0-4.14,1.57,.32,5.7,.75,9.46-.13,0,1.47,0,2.64,.01,4.11,0,1.06-.07,2.84-.6,3.46-.45,.52-2.09,.87-4.03,.87Z"/></g><g><path class="cls-2" d="M104.77,116.92c-.96,2.27-6.7,3.81-6.7,3.81l7.23-49.77s-1.49-2.21-1.01-5.01,6.33-10.89,7.28-11.31c0,0-1.34,5.23-2.03,12.7-1.62,17.5-3.72,47.11-4.77,49.58Z"/><path class="cls-10" d="M106.13,62.16c.52-.83,1.05-1.65,1.57-2.49,.01-.02-.02-.05-.04-.03-.52,.68-1.03,1.38-1.53,2.08,.17-.37,.33-.75,.48-1.13,.02-.04-.04-.08-.06-.04-.23,.49-.44,.99-.65,1.49-.44,.63-.85,1.28-1.19,1.97-.71,1.46-1.02,3.06-.63,4.65,.11,.44,.26,.87,.46,1.27,.14,.28,.59,.87,.58,.89-.29,1.63-.51,3.28-.74,4.92-.23,1.66-.47,3.32-.66,4.99-.11,.94-.18,1.89-.32,2.83,0,.03,.05,.05,.05,.01,.12-.82,.3-1.63,.44-2.44,.15-.82,.28-1.63,.41-2.45,.27-1.65,.5-3.31,.74-4.97,.14-.94,.28-1.87,.39-2.81,.01-.1-.41-.77-.54-1.03-.17-.34-.3-.71-.41-1.08-.21-.75-.29-1.54-.2-2.32,.18-1.59,1-3,1.84-4.33Z"/><path class="cls-8" d="M111.52,54.82c-.55,.83-1.11,1.66-1.67,2.48-.57,.82-1.13,1.64-1.71,2.45v-.19l1.39,1.46,.12,.12-.12,.12c-.59,.57-1.19,1.13-1.78,1.69l.05-.15c.22,1.52,.45,3.03,.64,4.55,.2,1.52,.4,3.04,.57,4.56-.29-1.51-.55-3.02-.81-4.53-.26-1.51-.49-3.03-.73-4.54v-.08l.05-.06c.59-.57,1.18-1.14,1.78-1.7v.24l-1.38-1.49-.09-.09,.07-.1c.59-.8,1.2-1.59,1.8-2.39,.6-.79,1.21-1.58,1.83-2.36Z"/></g><g><path class="cls-6" d="M117.78,58.4c1.59,2.09,8.78,10.44,9.23,11.18,.31,.49-1.43,2.82-1.39,3.16,.15,1.37,2.96,10.13,4.13,9.18,1.53-1.26,8.58-9.99,7.55-13.75-1.02-3.76-17.06-12.8-19.53-13.53-2.47-.73-1.57,1.71,0,3.77Z"/><g><path class="cls-2" d="M126.83,69.7c0-.53-8.42-9.48-9.95-12.47-1.53-2.99-.76-3.63,3.18-1.71,3.94,1.92,16.05,8.95,17.48,12.44,1.44,3.49-6.44,13.1-6.44,13.1l-5.51-9.28s1.23-1.65,1.24-2.09Z"/><g><path class="cls-10" d="M132.16,78.38c-1.9-3.53-4.43-6.96-4.83-7.58-.02-.03-.06,0-.04,.03,.42,.6,2.89,4.82,4.83,7.59,.02,.03,.07,0,.05-.04Z"/><path class="cls-10" d="M123.71,65.83c-.35-.43-.68-.88-1.04-1.31-.36-.43-.73-.86-1.11-1.29-.75-.86-1.52-1.71-2.3-2.54-.01-.01-.03,0-.02,.02,.4,.51,.81,1.01,1.22,1.51h0c-.26-.22-.54-.42-.82-.62-.01,0-.03,.01-.02,.02,.24,.24,.49,.47,.76,.69,.13,.11,.26,.21,.38,.32,.04,.03,.08,.06,.11,.09,.17,.2,.33,.4,.5,.6,.37,.43,.73,.86,1.11,1.28,.39,.43,.79,.84,1.19,1.27,.02,.02,.06,0,.04-.03Z"/></g></g><g><path class="cls-6" d="M124.72,84.2c-.82-.71,.48-1.27,.48-1.27,0,0-2.07,.36-2.63-.7-.54-1.02,1.06-1.64,1.17-1.69-.11,.02-2.02,.3-2.48-.82-.47-1.16,1.24-1.51,1.35-1.54-.11-.02-1.54-.25-1.7-1.17-.26-1.6,3.9-1.29,4.9-2.13,0,0-.16-2.08-.19-2.15,0,0,.36,.85,1.06,1.14,.87,.36,1.66,.6,1.97,1.07,.51,.78-.03,1.42-.03,1.42,0,0,1.15,0,1.54,.87,.2,.45-.34,1.16-.34,1.16,0,0,.92,.04,1.22,.83,.24,.63-.34,1.25-.34,1.25,0,0,.86,.45,.9,1.17,.07,1.47-5.12,4.06-6.88,2.55Z"/><g><path class="cls-10" d="M130.62,80.59s.03,.01,.02,.02c-1.5,1.27-3.54,2.21-5.51,2.35-.06,0-.1-.1-.03-.12,2-.54,3.74-1.18,5.52-2.26Z"/><path class="cls-10" d="M129.85,78.39s.04,.02,.02,.04c-1.55,1.3-3.88,2.29-6.17,2.2-.08,0-.15-.09-.06-.09,1.53-.05,4.6-1.16,6.2-2.14Z"/><path class="cls-10" d="M122.45,78.13c2.2,0,4.18-.69,6.12-1.71,.03-.01,.04,.02,.02,.04-.81,.75-2.11,1.27-3.15,1.59-1,.3-1.96,.38-2.99,.16-.04,0-.05-.08,0-.08Z"/></g><path class="cls-10" d="M130.76,80.48c.37-.37,.65-.85,.49-1.38-.07-.24-.23-.44-.45-.58-.26-.17-.65-.16-.84-.18,.33-.44,.51-1.03,.2-1.53-.14-.23-.36-.34-.62-.43-.14-.05-.72-.1-.89-.07,.28-.25,.42-.65,.38-1.02-.05-.43-.33-.75-.7-.97-.42-.25-.9-.35-1.36-.49-.24-.08-.48-.15-.69-.28-.2-.12-.47-.34-.5-.59,0-.05-.08-.02-.05,.02,.11,.15,.18,.32,.31,.47,.13,.14,.28,.27,.45,.37,.4,.25,.86,.36,1.29,.55,.37,.17,.73,.41,.93,.78,.2,.38,.14,.83-.1,1.18-.01,.02,0,.04,.03,.05,.2,0,.66,.13,.78,.18,.2,.1,.4,.22,.51,.41,.25,.44,.17,1.01-.1,1.43,0,.02,.47,.07,.8,.31,.16,.12,.27,.3,.34,.48,.16,.43,.04,.95-.28,1.27,0,0,0,.01,0,.02h0s0,0,0,.01c0,0,0,.01,0,.02h0s.27,.15,.29,.16c0,0,0,0,0-.02,0-.01-.18-.15-.22-.16Z"/></g><path class="cls-8" d="M116.47,54.65c.42,.9,.84,1.81,1.24,2.72,.4,.91,.81,1.82,1.2,2.74l.05,.11-.1,.07-1.68,1.13,.05-.23c.45,.68,.9,1.37,1.34,2.06l.04,.07-.02,.07c-.45,1.39-.88,2.79-1.36,4.18-.46,1.39-.93,2.78-1.43,4.15,.38-1.42,.78-2.82,1.2-4.23,.4-1.41,.84-2.8,1.27-4.2l.02,.14c-.45-.68-.91-1.37-1.35-2.06l-.09-.14,.14-.09,1.7-1.1-.06,.19c-.38-.92-.73-1.85-1.1-2.78-.36-.93-.72-1.86-1.06-2.79Z"/></g><g><path class="cls-9" d="M118.26,56.38c-.09-2.04-2.63-2.57-4.16-2.61-1.82-.05-3,.23-3.67,2.07-.71,1.94-.95,4.12-1.08,6.17-.03,.38-.62,.35-.59-.03,.16-2.36,.27-6.74,2.44-8.25,1.99-1.39,7.53-.76,7.67,2.69,.02,.38-.58,.35-.59-.03h0Z"/><g><path class="cls-10" d="M107.62,63.05c-.04,.75,.54,1.4,1.3,1.44,.75,.04,1.4-.54,1.44-1.3,.04-.75-.54-1.4-1.3-1.44-.75-.04-1.4,.54-1.44,1.3Z"/><path class="cls-2" d="M108.16,63.08c-.02,.45,.33,.84,.78,.86s.84-.33,.86-.78c.02-.45-.33-.84-.78-.86-.45-.02-.84,.33-.86,.78Z"/></g><g><g><g><path class="cls-7" d="M116.9,62.95c-.87,5.85-.48,7.21,.06,7.81,.57,.63,1.42,.92,1.45,.93l.13-.39-.07,.2,.07-.2s-.78-.26-1.28-.81c-.39-.43-.82-1.68,.04-7.47l-.41-.06Z"/><rect class="cls-10" x="118.11" y="70.8" width=".88" height="1.44" rx=".29" ry=".29" transform="translate(6.89 153.38) rotate(-67.34)"/></g><g><path class="cls-7" d="M120.63,62.68c1.6,4.16,2.13,6.47,1.67,7.28-.37,.65-1.06,1.07-1.07,1.07l.21,.36s.79-.48,1.21-1.22c.55-.97,.07-3.18-1.65-7.64l-.39,.15Z"/><rect class="cls-10" x="120.83" y="70.53" width=".88" height="1.44" rx=".29" ry=".29" transform="translate(133.1 211.42) rotate(-125.26)"/></g></g><path class="cls-10" d="M121.14,62.34c-.18-.58-.69-2.01-1.05-2.72-.29-.58-.94-.92-.94-.92-.08,0-.13-.72-.15-1.32-.02-.52-.03-1.13-.17-1.29-.14-.15-.45-.12-.57,.03-.12,.17-.07,.78-.03,1.3,.05,.59,.08,1.32,0,1.33,0,0-.56,.44-.78,1.03-.24,.66-.62,2.4-.68,2.91-.06,.62,.14,.68,.32,.72,.26,.06,.39-.13,.51-.82,.19-1.1,.38-2.94,1.12-3.02h0c.75,0,1.26,1.86,1.61,2.9,.22,.65,.37,.7,.62,.61,.17-.06,.35-.16,.17-.73Z"/></g></g><g><g><g><path class="cls-6" d="M115.77,54.53c-.14,.35-1.48,2.7-3.16,2.7-1.06,0-.8-3.62-.8-3.62l-.02-.23-.24-3.15,3.92-1.79,.56-.23s0,.87,.01,1.95c0,.05,0,.1,0,.15,0,.06,0,.12,0,.18,0,.16,0,.33,0,.49,0,.12,0,.25,0,.38,0,.13,0,.26,0,.39-.05,1.3-.21,2.63-.27,2.78Z"/><path class="cls-10" d="M116.05,50.16c-1.22,2.31-3.31,3.02-4.25,3.22l-.24-3.15,3.92-1.79,.56-.23s0,.87,.01,1.95Z"/></g><g><path class="cls-6" d="M107.61,45.54c-.52,5.53,2.74,6.46,3.93,6.57,1.08,.1,4.78,.3,5.86-5.14,1.08-5.45-1.32-7.43-3.79-7.79-2.46-.36-5.49,.84-6.01,6.36Z"/><g><path class="cls-10" d="M109.4,44.31c.13-.01,.25-.04,.38-.07,.14-.03,.26-.03,.37-.14,.06-.06,.06-.18,0-.24-.12-.15-.3-.16-.48-.13-.19,.03-.33,.1-.46,.24-.13,.14,0,.35,.18,.34Z"/><path class="cls-10" d="M113.21,44.46c-.13-.02-.25-.06-.37-.09-.14-.04-.26-.05-.36-.17-.05-.06-.05-.18,0-.24,.13-.14,.31-.13,.49-.1,.19,.04,.32,.12,.44,.27,.12,.15-.03,.35-.2,.33Z"/><g><g><path class="cls-10" d="M112.36,45.83s.03,.02,.03,.04c-.03,.38-.01,.81,.32,.96,.01,0,0,.02,0,.02-.41-.08-.44-.66-.34-1.02Z"/><path class="cls-10" d="M112.72,45.45c.61,0,.58,1.21,.02,1.22-.56,0-.53-1.21-.02-1.22Z"/></g><path class="cls-10" d="M112.96,45.52c.11,.07,.21,.2,.33,.21,.15,.02,.26-.11,.36-.23,.01-.01,.02,0,.02,.01,0,.23-.1,.47-.35,.5-.23,.03-.39-.18-.44-.42,0-.04,.03-.11,.07-.08Z"/></g><g><g><path class="cls-10" d="M110.08,45.72s-.03,.02-.03,.03c0,.38-.05,.81-.39,.93-.01,0,0,.02,0,.02,.42-.05,.49-.63,.42-.99Z"/><path class="cls-10" d="M109.75,45.32c-.61-.05-.67,1.16-.11,1.21,.55,.05,.62-1.17,.11-1.21Z"/></g><path class="cls-10" d="M109.49,45.38c-.1,.06-.2,.17-.32,.17-.13,0-.23-.14-.3-.27,0-.01-.02,0-.02,.01-.02,.23,.05,.48,.27,.54,.2,.05,.36-.14,.43-.37,.01-.04-.02-.11-.06-.09Z"/></g><path class="cls-10" d="M112.05,48.83c-.09,.09-.18,.21-.31,.23-.13,.01-.29-.04-.41-.09-.01,0-.02,0-.02,.02,.1,.14,.31,.23,.48,.19,.17-.03,.25-.18,.29-.34,0-.02-.02-.03-.04-.02Z"/><path class="cls-10" d="M110.52,47.42s-.1,.56-.11,.83c0,.02,.06,.04,.15,.05,0,0,0,0,.01,0,.47,.09,.95-.06,1.24-.43,.02-.03-.01-.05-.04-.04-.36,.25-.75,.3-1.17,.29-.02-.07,.2-.96,.16-.96-.15-.02-.44,.07-.61,.12,.17-1.18,.52-2.32,.67-3.49,0-.04-.06-.06-.07-.02-.46,1.17-.68,2.52-.88,3.73-.03,.15,.53-.03,.64-.07Z"/><g><path class="cls-10" d="M110.75,48.15s.21,.33,.51,.46c.11,.05,.24,.08,.37,.05,.27-.05,.3-.3,.27-.51-.03-.18-.1-.33-.1-.33,0,0-.42,.34-1.05,.33Z"/><path class="cls-1" d="M111.26,48.62c.11,.05,.24,.08,.37,.05,.27-.05,.3-.3,.27-.51-.29,0-.59,.18-.64,.46Z"/></g></g><path class="cls-10" d="M107.94,43.58c.65,.21,2.97-1.23,3.91-3.31,0,0,.13,1.74,1.64,3.14,1.51,1.4,2.95,1.51,2.95,1.51,0,0,.45,2.5,.86,2.56s3.01-8.5-4.26-8.6c0,0-2.13-.21-3.46,1.03-1.33,1.24-1.63,3.68-1.63,3.68Z"/><g><path class="cls-6" d="M116.49,46.76s1.22-1.73,2.01-1.29c.78,.44-.14,2.94-1.07,3.28-.93,.34-1.25-.51-1.25-.51l.32-1.48Z"/><path class="cls-10" d="M118.21,46.19s.02,.02,0,.02c-.65,.26-.99,.86-1.24,1.48,.19-.24,.46-.37,.78-.14,.02,.01,0,.04-.02,.03-.26-.06-.46-.01-.64,.2-.13,.15-.22,.34-.31,.51-.03,.06-.13,.03-.11-.04h0c-.01-.84,.64-1.99,1.52-2.07Z"/></g></g></g><path class="cls-6" d="M111.79,54.48c-.24,.13,.11,4.63,.27,4.88,.06,.09,3.01-2.24,3.99-5.24,0,0-1.74-.95-4.26,.36Z"/></g><g><g><rect class="cls-9" x="95.54" y="65.17" width="14.12" height="18.38" transform="translate(-17.47 33.86) rotate(-17.29)"/><g><rect class="cls-8" x="96.49" y="64.66" width="6.69" height="2.03" transform="translate(214.71 98.57) rotate(162.64)"/><polygon class="cls-8" points="97.79 65.25 98.57 65 98.29 64.11 100.21 63.51 100.48 64.41 101.27 64.16 100.76 62.53 97.27 63.63 97.79 65.25"/></g></g><g><path class="cls-6" d="M109.22,70.18c.74,.7,.27,1.64,.27,1.64,0,0,.8,.14,1.25,.77,.52,.72-.38,1.86-.38,1.86,0,0,.78,.31,1.19,1.02,.43,.74-.32,2.02-.32,2.02,0,0,.57,.69,.48,1.56-.14,1.5-2.2,2.52-3.5,3.18-1.3,.66-5.61,1.33-6.41,1.54l-4.34-8.3s4.98-4.64,6.62-5.2c1.38-.48,4.3-.88,5.12-.1Z"/><path class="cls-6" d="M98.07,74.94c-1.49,1.14-5.94,5.54-4.9,7.77,1.05,2.24,4.63,2.01,9.61,.87l-4.71-8.64Z"/><g><path class="cls-2" d="M98.07,74.94c-1.49,1.14-6.18,5.43-4.99,8.3,.94,2.28,5.16,2.56,10.14,1.42l-5.15-9.72Z"/><path class="cls-10" d="M100.66,84.74c-1.56-3.7-3.75-7.35-4.09-8.01-.02-.03-.06,0-.05,.03,.37,.63,2.42,5.08,4.08,8.01,.02,.03,.07,0,.05-.03Z"/></g><g><path class="cls-10" d="M109.37,71.72c-1.59,.15-3.05,.77-4.53,1.3-.03,.01-.01,.06,.02,.05,1.47-.55,3.04-.79,4.53-1.28,.04-.01,.03-.08-.02-.07Z"/><path class="cls-10" d="M110.28,74.36c-.36,.05-.7,.21-1.03,.35-.36,.15-.71,.3-1.06,.46-.7,.32-1.4,.65-2.08,1.01-.03,.02-.01,.07,.02,.05,.7-.32,1.41-.62,2.12-.91,.36-.14,.72-.28,1.08-.42,.33-.13,.7-.24,1-.44,.04-.03,.02-.11-.04-.1Z"/><path class="cls-10" d="M111.21,77.5c-.31,.03-.63,.23-.91,.36-.32,.15-.64,.3-.95,.45-.64,.3-1.28,.59-1.92,.87-.03,.01-.01,.06,.02,.05,.66-.28,1.32-.54,1.98-.82,.32-.14,.64-.28,.97-.42,.27-.12,.63-.24,.84-.46,.01-.01,0-.03-.02-.03Z"/></g><path class="cls-10" d="M97.87,75.01c-.54,.43-.98,.75-1.48,1.26-.12,.12-.23,.24-.35,.36-.05,.03-.1,.06-.15,.1-.21,.14-.42,.28-.62,.44-.38,.31-.74,.64-1.08,1-.02,.03,.01,.06,.04,.04,.36-.34,.74-.65,1.15-.93,.05-.04,.11-.07,.16-.11-.19,.22-.38,.44-.56,.66-.47,.61-.91,1.23-1.3,1.89-.02,.03,.03,.06,.05,.03,.72-1.16,3.88-4.27,4.23-4.65,.35-.38,.17-.3-.1-.09Z"/></g></g></g></g></svg>