<?xml version="1.0" encoding="UTF-8"?><svg id="Speech_Bubble" xmlns="http://www.w3.org/2000/svg" viewBox="0 0 369.73 265.94"><defs><style>.cls-1{fill:#f5f5f5;}.cls-2,.cls-3{fill:#fff;}.cls-4{fill:#fafafa;}.cls-5{fill:#e8505b;}.cls-6{fill:#995037;}.cls-7{fill:#b77153;}.cls-8{fill:#e0e0e0;}.cls-9{fill:#455a64;}.cls-10{fill:#263238;}.cls-11{opacity:.2;}.cls-12,.cls-3{opacity:.3;}</style></defs><g><path class="cls-1" d="M239.92,100v27.69c0,4.82,4.06,8.88,9.07,8.88h99.3c5.01,0,9.07-4.06,9.07-9.07v-23.4l12.36-12.99-120.71-.38c-5.02-.02-9.1,4.05-9.1,9.27Z"/><polygon class="cls-8" points="342.73 107.51 252.62 107.09 252.63 104.32 342.74 104.74 342.73 107.51"/><polygon class="cls-8" points="342.73 116.62 252.62 116.2 252.63 113.43 342.74 113.85 342.73 116.62"/><rect class="cls-8" x="323.53" y="106.2" width="2.77" height="35.65" transform="translate(199.29 448.33) rotate(-89.72)"/></g><g><path class="cls-1" d="M70.69,241.15c13.89-9.7,17.04-27.71,16.49-43.89-.09-2.7,.21-5.55-1.08-7.92-1.29-2.37-4.28-3.99-6.7-2.85-2.01,.94-2.88,3.28-4,5.21-1.49,2.57-3.72,4.69-6.34,6.05-1.72,.89-3.85,1.44-5.55,.5-2.33-1.29-2.61-4.51-2.59-7.19,.03-5.01,.06-10.02,.09-15.02,.02-2.69,.02-5.43-.81-7.98-.84-2.55-2.68-4.92-5.24-5.64-2.56-.72-5.72,.76-6.26,3.39-.22,1.09,0,2.23-.08,3.35-.07,1.12-.59,2.35-1.65,2.66-1.07,.32-2.15-.45-2.95-1.23-2.77-2.71-4.66-6.21-6.41-9.68s-3.47-7.03-5.98-9.99c-2.52-2.96-6-5.3-9.85-5.52-3.85-.22-7.95,2.16-8.92,5.94-.98,3.79,1.23,7.63,3.64,10.7,3.57,4.55,7.79,8.57,12.49,11.9,.85,.6,1.77,1.25,2.09,2.25,.58,1.79-1.11,3.57-2.88,4.16-2,.67-4.18,.46-6.27,.71-2.1,.25-4.37,1.17-5.16,3.15-1.1,2.75,1.2,5.63,3.46,7.51,4.53,3.78,9.69,6.76,15.21,8.78,1.98,.72,4.06,1.36,5.65,2.75,1.59,1.39,2.56,3.8,1.59,5.7-.96,1.9-3.44,2.5-5.51,2.12-2.07-.38-3.92-1.51-5.9-2.25-3.69-1.39-8.46-1.14-10.83,2.05-1.55,2.1-1.69,5.02-.91,7.52,.79,2.5,2.38,4.65,4.07,6.64,5.92,6.94,13.5,12.53,22.06,15.5,8.57,2.97,16.5,3.77,25.02,.66"/><path class="cls-8" d="M70.9,253.15c-.59-6.41-1.99-13.98-4.39-22.15-2.38-8.17-5.74-16.91-9.56-25.92-.96-2.25-1.92-4.47-2.85-6.67-.94-2.19-1.88-4.35-2.92-6.42-2.07-4.14-4.38-7.96-6.68-11.52-2.3-3.56-4.62-6.85-6.8-9.92-2.19-3.06-4.29-5.88-6.32-8.36-4.03-4.98-7.75-8.61-10.41-11-1.33-1.2-2.38-2.09-3.11-2.69-.35-.28-.62-.51-.83-.67-.19-.15-.29-.22-.29-.22,0,0,.08,.09,.26,.26,.2,.18,.46,.41,.8,.71,.7,.62,1.74,1.54,3.05,2.76,2.61,2.43,6.28,6.08,10.26,11.08,2,2.49,4.08,5.31,6.25,8.38,2.17,3.07,4.47,6.37,6.76,9.93,2.29,3.56,4.58,7.37,6.63,11.48,1.04,2.05,1.96,4.2,2.9,6.4,.94,2.19,1.89,4.41,2.85,6.66,3.82,9.01,7.18,17.72,9.58,25.86,2.41,8.13,3.85,15.66,4.48,22.05"/><path class="cls-8" d="M51.04,191.98s.12-.4,.26-1.15c.14-.74,.31-1.82,.5-3.16,.38-2.68,.78-6.39,1.2-10.48,.42-4.1,.87-7.79,1.29-10.46,.21-1.33,.38-2.41,.52-3.15,.13-.74,.18-1.16,.15-1.17-.03,0-.15,.39-.34,1.13-.19,.73-.42,1.8-.67,3.13-.51,2.66-1.02,6.36-1.44,10.46-.41,4.04-.78,7.7-1.06,10.49-.14,1.26-.25,2.32-.34,3.18-.08,.75-.11,1.17-.07,1.17Z"/><path class="cls-8" d="M16.49,185.52s.49,.09,1.38,.16c.89,.08,2.17,.19,3.75,.37,3.16,.34,7.52,.97,12.29,1.87,4.77,.91,9.06,1.91,12.14,2.73,1.54,.4,2.78,.75,3.64,.99,.86,.24,1.34,.36,1.35,.33,.01-.03-.45-.21-1.29-.52-.84-.3-2.07-.71-3.61-1.15-3.06-.91-7.35-1.97-12.14-2.88-4.79-.9-9.17-1.47-12.35-1.73-1.59-.14-2.88-.19-3.77-.21-.89-.01-1.39,0-1.39,.03Z"/><path class="cls-8" d="M66.09,230.37s.1-.14,.24-.42c.16-.34,.35-.75,.59-1.25,.51-1.09,1.2-2.68,2.03-4.66,1.67-3.96,3.8-9.5,6.07-15.64,2.27-6.15,4.35-11.7,5.93-15.69,.78-1.94,1.41-3.53,1.89-4.72,.2-.51,.37-.94,.51-1.29,.11-.3,.16-.45,.15-.46-.02,0-.1,.14-.24,.42-.16,.34-.35,.75-.59,1.25-.51,1.09-1.2,2.68-2.03,4.66-1.67,3.96-3.8,9.5-6.07,15.64-2.27,6.15-4.34,11.7-5.93,15.68-.78,1.94-1.41,3.53-1.89,4.72-.2,.51-.37,.94-.51,1.29-.11,.3-.16,.46-.15,.46Z"/><path class="cls-8" d="M20.18,215.57s.15,.08,.46,.19c.36,.12,.8,.27,1.33,.45,1.23,.4,2.89,.94,4.92,1.59,4.15,1.35,9.86,3.27,16.17,5.41,6.31,2.14,12.05,4.01,16.23,5.27,2.09,.63,3.79,1.12,4.96,1.44,.55,.14,.99,.26,1.36,.36,.31,.08,.48,.11,.48,.09,0-.02-.15-.08-.46-.19-.36-.12-.8-.27-1.33-.45-1.23-.4-2.89-.94-4.92-1.59-4.15-1.35-9.86-3.27-16.17-5.41-6.31-2.14-12.04-4.01-16.22-5.27-2.09-.63-3.79-1.12-4.97-1.44-.55-.14-.99-.26-1.36-.36-.31-.08-.48-.11-.48-.09Z"/></g><g><path class="cls-8" d="M102.73,71.35v21.46c0,3.88-3.15,7.03-7.03,7.03H18.76c-3.88,0-7.03-3.15-7.03-7.03v-18.13l-9.58-10.06,93.53-.29c3.89-.01,7.05,3.14,7.05,7.03Z"/><polygon class="cls-4" points="23.07 77.32 92.89 76.99 92.88 74.85 23.06 75.17 23.07 77.32"/><polygon class="cls-4" points="23.07 84.38 92.89 84.05 92.88 81.91 23.06 82.23 23.07 84.38"/><rect class="cls-4" x="23.07" y="89.04" width="27.63" height="2.15" transform="translate(-.44 .18) rotate(-.28)"/></g><path class="cls-10" d="M361.9,265.78c0,.09-81.02,.16-180.94,.16s-180.96-.07-180.96-.16,81-.16,180.96-.16,180.94,.07,180.94,.16Z"/><g><g><path class="cls-10" d="M111.84,68.43H250.83c6.37,0,11.55,5.17,11.55,11.55v209.51c0,6.37-5.17,11.55-11.55,11.55H111.84c-6.37,0-11.55-5.18-11.55-11.55V79.98c0-6.37,5.18-11.55,11.55-11.55Z" transform="translate(-3.4 366.07) rotate(-90)"/><rect class="cls-2" x="102.14" y="87.61" width="151.87" height="194.26" transform="translate(-6.67 362.81) rotate(-90)"/><circle class="cls-9" cx="285.95" cy="184.74" r="6.22" transform="translate(40.69 420.84) rotate(-76.77)"/><rect class="cls-9" x="48.6" y="183.45" width="48.82" height="2.57" rx="1.22" ry="1.22" transform="translate(-111.73 257.75) rotate(-90)"/></g><g><path class="cls-5" d="M138.62,188.98c.18,8.67-6.7,15.84-15.37,16.01-8.67,.18-15.84-6.7-16.01-15.37-.18-8.67,6.7-15.84,15.37-16.01,8.67-.18,15.84,6.7,16.01,15.37Z"/><path class="cls-3" d="M138.62,188.98c.18,8.67-6.7,15.84-15.37,16.01-8.67,.18-15.84-6.7-16.01-15.37-.18-8.67,6.7-15.84,15.37-16.01,8.67-.18,15.84,6.7,16.01,15.37Z"/><path class="cls-10" d="M117.52,185.35c.59-.05,1.13,.61,1.21,1.47,.07,.86-.35,1.59-.95,1.64-.6,.05-1.13-.61-1.21-1.47-.07-.86,.35-1.59,.95-1.64Z"/><path class="cls-10" d="M127.5,185.14c-.6-.02-1.11,.65-1.14,1.51-.04,.86,.42,1.58,1.02,1.6,.6,.02,1.11-.65,1.14-1.51,.04-.86-.42-1.58-1.02-1.6Z"/><path class="cls-10" d="M129.21,192.41c0,.18-2.93,.33-6.53,.33s-6.53-.15-6.53-.33,2.92-.33,6.53-.33,6.53,.15,6.53,.33Z"/><path class="cls-10" d="M118.72,183.54c-.04,.19-.78,.18-1.66,.32-.88,.13-1.58,.36-1.68,.2-.1-.15,.56-.7,1.57-.86,1.01-.16,1.8,.17,1.76,.34Z"/><path class="cls-10" d="M130.33,184.3c-.12,.15-.8-.21-1.67-.47-.87-.27-1.63-.36-1.64-.55-.02-.18,.83-.4,1.84-.09,1.01,.31,1.59,.97,1.47,1.11Z"/></g><g><path class="cls-5" d="M252.81,187.66c.19,8.98-6.95,16.41-15.93,16.6-8.98,.19-16.41-6.95-16.6-15.93-.19-8.98,6.95-16.41,15.93-16.6,8.98-.19,16.41,6.95,16.6,15.93Z"/><path class="cls-12" d="M252.81,187.66c.19,8.98-6.95,16.41-15.93,16.6-8.98,.19-16.41-6.95-16.6-15.93-.19-8.98,6.95-16.41,15.93-16.6,8.98-.19,16.41,6.95,16.6,15.93Z"/><path class="cls-10" d="M230.93,183.9c.62-.05,1.18,.63,1.25,1.52,.07,.89-.37,1.65-.98,1.7-.62,.05-1.18-.63-1.25-1.52-.07-.89,.37-1.65,.98-1.7Z"/><path class="cls-10" d="M241.28,183.69c-.62-.03-1.15,.68-1.19,1.57-.04,.89,.43,1.64,1.05,1.66,.62,.03,1.15-.68,1.19-1.57,.04-.89-.43-1.64-1.05-1.66Z"/><path class="cls-10" d="M243.05,191.22c-.07,.09-.74-.39-1.91-.99-1.16-.58-2.88-1.23-4.84-1.2-1.97,.04-3.68,.71-4.86,1.26-1.18,.57-1.88,1.01-1.94,.92-.05-.06,.56-.64,1.72-1.34,1.15-.68,2.94-1.47,5.07-1.51,2.13-.03,3.95,.74,5.08,1.45,1.15,.73,1.72,1.34,1.67,1.4Z"/><path class="cls-10" d="M232.18,182.03c.06,.07-.05,.27-.32,.51-.27,.23-.71,.5-1.27,.6-.56,.1-1.08,0-1.41-.16-.33-.15-.48-.33-.45-.41,.09-.18,.85,.08,1.74-.09,.89-.16,1.59-.6,1.71-.45Z"/><path class="cls-10" d="M244.21,182.82c.03,.08-.15,.24-.51,.35-.35,.11-.91,.14-1.46-.05-.55-.19-.96-.53-1.2-.8-.24-.28-.33-.49-.26-.56,.14-.15,.8,.41,1.68,.72,.88,.32,1.69,.14,1.75,.33Z"/></g><g><polygon class="cls-8" points="205.37 233.15 209.14 231.28 212.82 233.33 212.2 229.17 215.29 226.3 211.14 225.6 209.37 221.78 207.42 225.51 203.24 226.02 206.18 229.02 205.37 233.15"/><polygon class="cls-5" points="190 233.15 193.77 231.28 197.44 233.33 196.83 229.17 199.91 226.3 195.77 225.6 193.99 221.78 192.04 225.51 187.87 226.02 190.81 229.02 190 233.15"/><polygon class="cls-5" points="174.63 233.15 178.39 231.28 182.07 233.33 181.46 229.17 184.54 226.3 180.39 225.6 178.62 221.78 176.67 225.51 172.49 226.02 175.44 229.02 174.63 233.15"/><polygon class="cls-5" points="159.25 233.15 163.02 231.28 166.7 233.33 166.08 229.17 169.17 226.3 165.02 225.6 163.25 221.78 161.3 225.51 157.12 226.02 160.06 229.02 159.25 233.15"/><polygon class="cls-5" points="143.88 233.15 147.65 231.28 151.32 233.33 150.71 229.17 153.79 226.3 149.64 225.6 147.87 221.78 145.92 225.51 141.75 226.02 144.69 229.02 143.88 233.15"/></g><path class="cls-10" d="M215.46,140.61c0,.09-16.87,.17-37.67,.17s-37.67-.07-37.67-.17,16.86-.17,37.67-.17,37.67,.07,37.67,.17Z"/><path class="cls-10" d="M196.94,136.09c0,.09-8.33,.17-18.6,.17s-18.61-.07-18.61-.17,8.33-.17,18.61-.17,18.6,.07,18.6,.17Z"/><g><g><g><path class="cls-5" d="M202.43,183.81c.24,11.83-9.15,21.62-20.98,21.87-11.83,.24-21.62-9.15-21.87-20.98-.24-11.83,9.15-21.62,20.98-21.87,11.83-.24,21.62,9.15,21.87,20.98Z"/><path class="cls-10" d="M173.61,178.85c.81-.07,1.55,.83,1.65,2,.1,1.17-.48,2.18-1.3,2.24-.81,.07-1.55-.83-1.65-2-.1-1.17,.48-2.18,1.3-2.24Z"/><path class="cls-10" d="M187.24,178.57c-.81-.03-1.51,.89-1.56,2.07-.05,1.18,.57,2.15,1.39,2.19,.81,.03,1.51-.89,1.56-2.07,.05-1.17-.57-2.15-1.39-2.19Z"/><path class="cls-10" d="M189.57,185.6s-.14,.25-.49,.63c-.33,.39-.89,.88-1.61,1.45-.75,.52-1.67,1.15-2.83,1.55-1.15,.42-2.51,.68-3.93,.62-1.43-.05-2.74-.44-3.86-.89-1.14-.44-2.07-1.01-2.85-1.49-1.52-1.02-2.32-1.8-2.28-1.86,.07-.09,.98,.57,2.52,1.46,.79,.42,1.72,.93,2.82,1.32,1.09,.4,2.34,.75,3.67,.8,1.33,.06,2.6-.16,3.69-.53,1.11-.35,2.01-.9,2.77-1.36,.73-.5,1.32-.92,1.7-1.25,.39-.31,.63-.47,.66-.44Z"/><path class="cls-10" d="M174.58,174.03c-.04,.19-1.06,.12-2.28,.32-1.22,.18-2.18,.56-2.27,.39-.1-.15,.81-.85,2.17-1.05,1.35-.22,2.43,.17,2.38,.34Z"/><path class="cls-10" d="M191.83,175.03c-.12,.15-1.03-.39-2.24-.75-1.21-.38-2.27-.44-2.28-.63-.03-.17,1.13-.43,2.47,0,1.35,.41,2.16,1.26,2.04,1.39Z"/></g><path class="cls-10" d="M172.08,184.06c.08-.01,.22,.21,.24,.61,.02,.4-.11,.97-.47,1.48-.36,.51-.86,.82-1.24,.93-.39,.11-.64,.06-.66-.03-.03-.19,.79-.46,1.36-1.29,.6-.81,.58-1.67,.77-1.71Z"/><path class="cls-10" d="M191.38,186.03c.02,.08-.16,.21-.49,.24-.33,.03-.81-.08-1.22-.38-.41-.31-.65-.73-.72-1.06-.07-.33,0-.53,.09-.54,.19-.02,.4,.62,1.03,1.06,.61,.47,1.28,.49,1.32,.68Z"/></g><path class="cls-5" d="M207.21,184.06s-.02-.15-.04-.43c-.02-.3-.05-.72-.08-1.26-.02-.28-.03-.59-.06-.93-.04-.34-.11-.71-.17-1.11-.06-.4-.13-.83-.21-1.3-.06-.47-.23-.94-.35-1.45-.47-2.06-1.43-4.49-2.95-7.06-1.53-2.56-3.74-5.24-6.74-7.52-.38-.28-.76-.57-1.15-.85-.4-.26-.83-.51-1.25-.76-.43-.24-.83-.54-1.29-.75-.45-.22-.91-.44-1.38-.66-.23-.11-.47-.22-.7-.33-.24-.09-.49-.18-.73-.27-.49-.18-.99-.36-1.49-.54-.51-.17-1.04-.28-1.56-.42-.53-.12-1.05-.31-1.6-.36-1.09-.16-2.2-.38-3.35-.39-.57-.02-1.15-.08-1.73-.07-.58,.03-1.16,.06-1.75,.09-.29,.02-.59,.02-.88,.06l-.88,.14c-.59,.1-1.19,.17-1.78,.29-1.17,.32-2.38,.55-3.53,1.04-1.19,.38-2.3,.97-3.45,1.52-.56,.3-1.09,.66-1.65,.98-.27,.17-.56,.32-.82,.52l-.78,.58c-1.08,.74-2.02,1.66-3,2.55-.45,.49-.89,.99-1.34,1.48l-.34,.37-.3,.4-.61,.81-.61,.81-.53,.87-.53,.88-.27,.44-.23,.46c-.3,.62-.6,1.24-.9,1.87-.24,.65-.48,1.3-.72,1.96-.86,2.66-1.33,5.48-1.37,8.35,.04,2.87,.5,5.69,1.36,8.35,.24,.66,.48,1.31,.72,1.96,.3,.62,.6,1.25,.9,1.87l.23,.46,.27,.44,.53,.88,.53,.87,.61,.81,.61,.81,.3,.4,.34,.37c.45,.5,.9,.99,1.35,1.48,.99,.89,1.93,1.81,3,2.55l.78,.58c.26,.2,.55,.34,.82,.52,.55,.33,1.09,.68,1.65,.98,1.15,.55,2.26,1.14,3.45,1.52,1.15,.48,2.36,.72,3.53,1.04,.59,.12,1.19,.19,1.78,.29l.88,.14c.29,.04,.59,.04,.88,.06,.59,.03,1.17,.06,1.75,.09,.58,0,1.16-.05,1.73-.07,1.15,0,2.25-.23,3.35-.39,.55-.06,1.07-.24,1.6-.36,.52-.14,1.05-.25,1.56-.42,.5-.18,1-.36,1.49-.54,.25-.09,.49-.18,.73-.27,.23-.11,.47-.22,.7-.33,.46-.22,.92-.44,1.38-.66,.46-.21,.86-.5,1.29-.75,.42-.26,.84-.5,1.25-.76,.39-.29,.77-.57,1.15-.85,3.01-2.27,5.21-4.96,6.74-7.52,1.52-2.58,2.48-5.01,2.95-7.06,.12-.51,.29-.99,.35-1.45,.07-.46,.14-.89,.21-1.3,.06-.4,.13-.77,.17-1.11,.02-.34,.04-.65,.06-.93,.03-.55,.06-.97,.08-1.26,.02-.28,.04-.43,.04-.43,0,0,0,.15,0,.43-.01,.3-.03,.72-.05,1.27-.01,.28-.02,.59-.04,.93-.03,.34-.1,.71-.15,1.12-.06,.4-.12,.84-.19,1.3-.05,.47-.22,.94-.33,1.46-.45,2.07-1.4,4.52-2.91,7.13-1.52,2.59-3.74,5.3-6.76,7.61-.38,.29-.76,.57-1.15,.87-.4,.27-.83,.51-1.25,.78-.43,.25-.84,.55-1.3,.76-.46,.22-.92,.44-1.39,.67-.23,.11-.47,.22-.71,.34-.25,.09-.49,.18-.74,.27-.5,.18-1,.37-1.5,.55-.51,.17-1.05,.28-1.58,.43-.53,.12-1.06,.31-1.62,.37-1.11,.16-2.22,.39-3.38,.4-.58,.02-1.16,.08-1.74,.07-.59-.03-1.18-.06-1.77-.09-.3-.02-.6-.02-.89-.06l-.89-.14c-.6-.1-1.2-.17-1.8-.29-1.18-.32-2.41-.56-3.57-1.04-1.2-.38-2.33-.97-3.5-1.53-.57-.31-1.11-.66-1.67-.99-.27-.18-.57-.32-.83-.52l-.79-.59c-1.09-.75-2.04-1.68-3.04-2.58-.45-.5-.91-1-1.36-1.5l-.34-.38-.31-.41-.61-.82-.62-.82-.54-.88-.54-.89-.27-.44-.23-.47c-.3-.63-.61-1.26-.91-1.89-.24-.66-.48-1.32-.73-1.98-.87-2.69-1.34-5.55-1.38-8.45,.04-2.91,.51-5.76,1.38-8.45,.24-.66,.49-1.32,.73-1.98,.3-.63,.61-1.26,.91-1.89l.23-.47,.27-.44,.54-.89,.54-.88,.62-.82,.61-.82,.31-.41,.34-.38c.46-.5,.91-1,1.36-1.5,1-.9,1.95-1.83,3.04-2.58l.79-.59c.26-.2,.55-.35,.83-.52,.56-.33,1.1-.69,1.67-.99,1.16-.56,2.29-1.15,3.49-1.53,1.17-.48,2.39-.72,3.57-1.04,.6-.12,1.21-.19,1.8-.29l.89-.14c.3-.04,.6-.04,.89-.06,.59-.03,1.19-.06,1.77-.09,.59,0,1.17,.05,1.74,.07,1.16,0,2.28,.24,3.38,.4,.56,.06,1.08,.25,1.62,.37,.53,.15,1.06,.26,1.58,.43,.51,.19,1.01,.37,1.5,.55,.25,.09,.5,.18,.74,.27,.24,.11,.47,.23,.71,.34,.47,.23,.93,.45,1.39,.67,.46,.21,.87,.51,1.3,.76,.42,.26,.85,.51,1.25,.78,.39,.29,.77,.58,1.15,.87,3.02,2.31,5.23,5.02,6.76,7.61,1.51,2.6,2.46,5.06,2.91,7.13,.12,.52,.28,.99,.33,1.46,.07,.46,.13,.9,.19,1.3,.05,.4,.12,.78,.15,1.12,.01,.34,.03,.65,.04,.93,.02,.55,.04,.97,.05,1.27,0,.29,0,.43,0,.43Z"/></g><rect class="cls-8" x="80.94" y="108.8" width="194.26" height="9.69"/><path class="cls-2" d="M87.21,113.38c0,.72-.59,1.31-1.31,1.31s-1.31-.59-1.31-1.31,.59-1.31,1.31-1.31,1.31,.59,1.31,1.31Z"/><path class="cls-2" d="M91.57,113.38c0,.72-.59,1.31-1.31,1.31s-1.31-.59-1.31-1.31,.59-1.31,1.31-1.31,1.31,.59,1.31,1.31Z"/><path class="cls-2" d="M95.93,113.38c0,.72-.59,1.31-1.31,1.31s-1.31-.59-1.31-1.31,.59-1.31,1.31-1.31,1.31,.59,1.31,1.31Z"/><path class="cls-8" d="M253.8,148.26c0,.09-33.71,.17-75.28,.17s-75.28-.07-75.28-.17,33.7-.17,75.28-.17,75.28,.07,75.28,.17Z"/><path class="cls-8" d="M253.8,151.99c0,.09-33.71,.17-75.28,.17s-75.28-.07-75.28-.17,33.7-.17,75.28-.17,75.28,.07,75.28,.17Z"/></g><g><g><g><g><path class="cls-9" d="M154.99,104.72s-1.33-3.01-1.58-3.67c-.67-1.8-5.02-13.88-3.98-15.71,4.82-8.46,8.55-14.47,18.06-14.47l16.78-.11s15.91-3.24,27.11,32.93l-56.4,1.02Z"/><path class="cls-9" d="M119.58,107.74l21.98-4.74,25.84-13.59,.1-18.54c-3.88-1.07-11.29,1.62-24.65,8.42l-19.84,10.24c-6.79,3.51-8.48,12.47-3.42,18.21h0Z"/></g><g><g><path class="cls-7" d="M169.04,143.64c-.32-1.04-.1-1.71,1.42-1.2,3.35,1.12,6.35,.76,7.08,.11,.73-.65,.06-1.9-1.03-1.79-.88,.09-2.4-.22-3.53-.49-.93-.22-1.83-.6-2.63-1.11-.7-.45-1.3-.86-1.84-1.25,0,0-3.09-2.23-4.06-4.03l-10.61,4.55,1.71,5.31s.56,3.13,3.59,4.12c3.03,.99,7.85,.62,7.85,.62,.88-.58,4.3,4.36,5.33,6.1,1.02,1.72,2.27,1.96,2.66,.89,.27-.73-2.76-6.13-3.82-7.84-.58-.93-1.74-2.73-2.12-3.99"/><path class="cls-6" d="M161.86,148.48s-.26,.03-.62-.15c-.36-.17-.8-.54-1.11-1.08-.3-.54-.38-1.11-.34-1.51,.04-.4,.16-.62,.2-.61,.09,.01-.13,.97,.44,1.96,.54,1,1.48,1.31,1.44,1.4Z"/><path class="cls-6" d="M165.21,148.61s-.25,.01-.59-.17c-.34-.18-.75-.54-1.04-1.06-.28-.52-.36-1.07-.32-1.45,.03-.38,.15-.6,.18-.59,.1,.01-.09,.93,.44,1.88,.5,.96,1.37,1.3,1.33,1.39Z"/></g><g><path class="cls-9" d="M118.96,107.03s33.67,38.7,33.63,38.06c-.04-.64,15.09-11.95,15.09-11.95l-33.01-39.32-15.71,13.22Z"/><path class="cls-10" d="M139.38,99.42s.09,.07,.24,.23c.17,.19,.38,.42,.63,.7,.57,.66,1.33,1.54,2.26,2.61,1.9,2.22,4.51,5.29,7.37,8.7,2.86,3.41,5.44,6.51,7.3,8.77,.9,1.1,1.63,2.01,2.18,2.68,.23,.3,.42,.54,.58,.74,.13,.17,.19,.27,.19,.27,0,0-.09-.07-.24-.23-.17-.19-.38-.42-.63-.7-.57-.65-1.33-1.54-2.26-2.61-1.9-2.22-4.51-5.29-7.37-8.7-2.86-3.41-5.44-6.51-7.29-8.76-.9-1.1-1.63-2.01-2.18-2.68-.23-.3-.42-.54-.58-.74-.13-.17-.19-.27-.19-.27Z"/></g></g><path class="cls-10" d="M198.94,103.88c-.07-.02,.37-.92,.4-2.48,.02-.77-.1-1.7-.44-2.66-.34-.96-.94-1.92-1.77-2.77-.82-.86-1.69-1.6-2.4-2.38-.72-.77-1.23-1.6-1.51-2.35-.28-.75-.32-1.42-.27-1.87,.05-.45,.16-.67,.18-.67,.07,0-.3,1,.32,2.45,.29,.71,.81,1.49,1.51,2.23,.7,.75,1.58,1.48,2.42,2.36,.85,.87,1.48,1.89,1.81,2.9,.34,1.01,.43,1.97,.38,2.77-.04,.8-.21,1.43-.35,1.85-.15,.42-.27,.63-.29,.63Z"/><path class="cls-10" d="M153.53,74.1s.16-.09,.49-.23c.33-.14,.81-.33,1.46-.53,.65-.19,1.45-.4,2.41-.49,.95-.08,2.08-.07,3.25,.3,1.17,.35,2.35,1.08,3.32,2.14,.98,1.06,1.65,2.5,2,4.07,.34,1.57,.52,3.26,.32,5.01-.2,1.73-.77,3.52-1.86,5.05-1.09,1.53-2.56,2.65-4.03,3.57-1.47,.93-2.96,1.69-4.36,2.43-2.81,1.47-5.34,2.8-7.48,3.93-2.11,1.09-3.83,1.99-5.05,2.62-.58,.29-1.04,.52-1.38,.7-.32,.16-.49,.23-.49,.22s.15-.11,.46-.28c.34-.19,.79-.44,1.35-.75,1.21-.66,2.91-1.58,5-2.71,2.13-1.14,4.65-2.49,7.44-3.99,1.4-.75,2.89-1.52,4.34-2.44,1.45-.91,2.88-2.02,3.93-3.49,1.05-1.47,1.61-3.2,1.81-4.89,.2-1.69,.03-3.37-.29-4.9-.33-1.53-.97-2.92-1.9-3.95-.93-1.03-2.06-1.75-3.19-2.1-1.13-.37-2.22-.41-3.16-.34-.94,.08-1.75,.26-2.39,.43-.64,.18-1.14,.35-1.47,.47-.33,.12-.51,.18-.51,.17Z"/><path class="cls-10" d="M143.08,102.97c-.11,.03-.39-2.22-1.88-4.49-1.46-2.29-3.4-3.46-3.33-3.55,.02-.03,.52,.21,1.24,.76,.71,.55,1.61,1.44,2.37,2.6,.75,1.16,1.2,2.35,1.41,3.23,.21,.88,.23,1.44,.19,1.44Z"/><path class="cls-4" d="M192.57,98.76s-.24,.1-.72,.19c-.48,.1-1.2,.18-2.12,.09-.92-.09-2.05-.38-3.19-1.05-1.14-.66-2.26-1.78-2.95-3.31-.68-1.51-.97-3.44-.41-5.34,.29-.95,.86-1.88,1.78-2.46,.45-.29,1.04-.44,1.6-.33,.57,.1,1.06,.48,1.4,.93,1.28,1.87,1.49,4.41,.75,6.7-.38,1.14-1.01,2.23-1.9,3.12-.89,.89-2.03,1.52-3.27,1.85-2.47,.66-5.23,.06-7-1.63-1.76-1.69-2.46-4.19-2.1-6.38,.17-1.1,.63-2.12,1.28-2.96,.34-.41,.75-.77,1.25-.96,.49-.2,1.07-.19,1.54,.02,.95,.42,1.53,1.35,1.64,2.28,.11,.93-.16,1.81-.51,2.57-.74,1.5-1.71,2.67-2.67,3.56-.97,.89-1.93,1.52-2.74,1.94-.82,.43-1.5,.68-1.96,.82-.23,.08-.41,.12-.53,.15-.12,.03-.18,.04-.18,.04,0,0,.06-.03,.18-.07,.12-.04,.29-.09,.52-.18,.45-.16,1.12-.43,1.92-.87,.8-.44,1.74-1.07,2.68-1.96,.94-.89,1.88-2.06,2.59-3.53,.33-.73,.58-1.57,.47-2.44-.1-.84-.65-1.7-1.49-2.06-.42-.17-.9-.19-1.33,0-.44,.17-.82,.5-1.13,.88-.61,.79-1.05,1.76-1.2,2.82-.34,2.09,.34,4.49,2.02,6.09,1.68,1.6,4.32,2.17,6.69,1.54,1.19-.31,2.28-.92,3.12-1.76,.85-.84,1.46-1.89,1.83-2.98,.36-1.1,.49-2.26,.37-3.37-.05-.55-.17-1.1-.35-1.61-.16-.52-.39-1.01-.71-1.42-.31-.41-.73-.73-1.22-.82-.48-.1-.98,.02-1.39,.28-.84,.52-1.39,1.41-1.66,2.29-.55,1.83-.29,3.69,.36,5.17,.65,1.49,1.73,2.58,2.83,3.25,1.11,.67,2.21,.97,3.11,1.08,1.83,.2,2.82-.22,2.82-.15Z"/><g><g><path class="cls-6" d="M195.1,61.08c-.71-.87-1.23-1.89-1.5-2.98-.09-.36-.15-.74-.04-1.09,.11-.35,.44-.66,.81-.62,.38,.04,.63,.39,.83,.71,.59,.94,1.16,1.9,1.55,2.94,.11,.29,.2,.59,.18,.89s-.17,.62-.44,.76c-.3,.15-.67,.07-.94-.13-.27-.19-.46-.48-.65-.76"/><path class="cls-6" d="M196.72,60.38c-.55-1.16-1.11-2.32-1.66-3.48-.16-.34-.33-.7-.34-1.08-.01-.38,.18-.8,.53-.93,.31-.12,.67,.01,.92,.24,.25,.22,.4,.53,.56,.82,.26,.51,.52,1.02,.78,1.52,.21,.42,.43,.84,.52,1.3,.09,.46,.03,.97-.26,1.33-.29,.37-.85,.53-1.25,.3"/><path class="cls-7" d="M189.34,71.15s-2.31-3-2.52-4.58c-.21-1.58,1.73-4.38,5.88-5.01,2.23-.34,3.53-.96,4.27-1.46,.53-.36,.73-1.03,.49-1.62-.55-1.32-1.53-3.78-1.45-4.11,.19-.85,.75-.83,2.18,1.27,1.44,2.1,3.09,4.23,2.77,5.2-.32,.97-5.38,3.96-5.38,3.96l1.38,2.23-7.62,4.12Z"/></g><path class="cls-9" d="M203.07,101.94l-15.93-31.21,10.26-5.75,21.55,34.17s1.14,2.18,2.73,4.74h-18.07"/></g></g><path class="cls-10" d="M197.23,64.97s-.06,.05-.18,.13c-.14,.09-.32,.19-.54,.33-.51,.29-1.2,.7-2.06,1.2-1.82,1.04-4.36,2.49-7.41,4.22l.06-.19c1.55,3.16,3.56,6.81,5.59,10.79,3.02,5.87,5.63,11.26,7.47,15.17,.92,1.96,1.65,3.55,2.14,4.66,.23,.53,.42,.96,.56,1.28,.12,.29,.18,.45,.17,.45-.01,0-.09-.14-.24-.43-.16-.31-.36-.73-.62-1.25-.54-1.12-1.3-2.69-2.24-4.61-1.89-3.89-4.54-9.25-7.56-15.12-2.03-3.97-4.03-7.63-5.55-10.81l-.06-.12,.12-.07c3.07-1.69,5.64-3.11,7.47-4.12,.88-.48,1.59-.85,2.1-1.13,.23-.12,.41-.21,.56-.29,.13-.06,.2-.09,.2-.09Z"/><path class="cls-10" d="M154.99,104.72c-.08,.04-.97-1.49-1.71-3.53-.74-2.04-1.04-3.79-.95-3.8,.1-.02,.53,1.67,1.27,3.69,.73,2.02,1.48,3.6,1.39,3.65Z"/></g><g><path class="cls-10" d="M190.08,58.7c2.51,.99,5.62,.14,7.27-1.99,1.66-2.12,1.72-5.35,.16-7.54,3.6-.91,5.84-5.06,5.11-8.7-.73-3.64-3.98-6.48-7.61-7.27-1.39-.3-2.86-.33-4.21,.11-1.35,.44-2.56,1.39-3.14,2.69"/><path class="cls-5" d="M189.57,50.56s-.47,.12-1.23,.52c-.74,.39-1.78,1.19-2.4,2.59-.3,.69-.5,1.52-.45,2.4,.05,.88,.3,1.83,.86,2.66,.26,.42,.61,.81,1,1.14,.39,.34,.85,.63,1.34,.84,.99,.44,2.15,.55,3.27,.3,1.11-.27,2.12-.87,2.81-1.69,.36-.4,.64-.86,.85-1.34,.21-.47,.35-.97,.41-1.46,.14-.99-.05-1.95-.38-2.77-.34-.82-.88-1.48-1.45-1.97-1.17-.99-2.45-1.26-3.29-1.29-.86-.03-1.33,.1-1.33,.06,0-.01,.11-.04,.34-.09,.22-.05,.56-.1,1-.1,.86,0,2.2,.23,3.44,1.24,.61,.5,1.18,1.18,1.56,2.04,.36,.85,.57,1.87,.43,2.91-.05,.52-.2,1.05-.42,1.55-.21,.51-.51,.99-.89,1.42-.74,.88-1.8,1.52-2.99,1.81-1.19,.26-2.43,.14-3.47-.33-.53-.22-1.01-.53-1.42-.89-.42-.36-.78-.77-1.05-1.22-.58-.88-.83-1.89-.87-2.81-.04-.93,.19-1.8,.52-2.51,.68-1.45,1.78-2.24,2.56-2.61,.39-.19,.72-.29,.94-.34,.22-.05,.34-.07,.34-.06Z"/><path class="cls-10" d="M192.3,40.66c2.6-.15,4.99-2.12,5.64-4.64,.64-2.52-.52-5.4-2.73-6.77,1.07-3.01,.02-6.64-2.49-8.61s-6.29-2.12-8.96-.37c-2.04-3.57-6.39-5.66-10.45-5.01-4.06,.65-7.54,3.99-8.36,8.02-3.65-1.51-8.19-.54-10.9,2.33-2.71,2.87-3.43,7.45-1.72,11.01-3.97,.34-7.27,4.27-6.94,8.24s4.25,7.28,8.23,6.95c-.81,2.64,.21,5.73,2.43,7.38,2.22,1.64,5.48,1.71,7.76,.17,1.46,2.36,4.34,3.75,7.09,3.44s5.24-2.33,6.13-4.96"/><g><path class="cls-7" d="M184.74,70.12c.13-3.06,.3-5.83,.3-5.83,0,0,6.83-.86,7.13-7.84,.29-6.98-.4-23.04-.4-23.04l-12.58-6.04-13.54,10.9,2.12,32.04c.31,4.62,4.25,8.14,8.87,7.93h0c4.39-.2,7.91-3.73,8.1-8.12Z"/><path class="cls-10" d="M191.43,45.37c-.11,.12-.76-.43-1.7-.47-.94-.05-1.63,.44-1.73,.31-.05-.06,.06-.27,.37-.49,.3-.22,.8-.43,1.39-.4,.58,.03,1.07,.28,1.35,.52,.28,.25,.38,.47,.32,.52Z"/><path class="cls-10" d="M181.06,45.37c-.11,.12-.76-.43-1.7-.47-.94-.05-1.63,.44-1.73,.31-.05-.06,.06-.27,.37-.49,.3-.22,.8-.43,1.39-.4,.58,.03,1.07,.28,1.35,.52,.28,.25,.38,.47,.32,.52Z"/><path class="cls-10" d="M184.57,52.4c0-.06,.58-.14,1.53-.23,.24-.02,.47-.06,.51-.23,.06-.18-.04-.46-.15-.77-.22-.63-.44-1.29-.68-1.98-.94-2.82-1.61-5.13-1.51-5.17,.11-.04,.95,2.22,1.89,5.03,.23,.69,.44,1.36,.65,1.99,.09,.29,.24,.63,.11,1.01-.07,.19-.25,.32-.4,.36-.15,.04-.29,.04-.41,.04-.95,.02-1.54,0-1.54-.06Z"/><path class="cls-6" d="M185.03,64.3s-4.57,.13-9.05-2.96c0,0,2.13,5.08,8.93,4.68l.12-1.71Z"/></g><path class="cls-10" d="M175.32,27.77c-2.23,3.09-2.18,7.63,.13,10.66,1.01,1.34,2.55,2.42,4.22,2.36,1.68-.06,3.3-1.65,2.94-3.29-.65,2.05,1.09,4.48,3.24,4.52s3.98-2.33,3.4-4.4c.17,.74,.35,1.51,.78,2.14,.43,.63,1.17,1.11,1.93,1.01,1.05-.14,1.66-1.27,1.9-2.3,.72-3.09-.42-6.48-2.69-8.7s-5.55-3.27-8.72-3.06c-3.16,.22-6.19,1.64-8.56,3.74"/><path class="cls-10" d="M176.21,30.23c.81,1.99,1.43,4.11,1.4,6.26-.02,2.15-.73,4.36-2.26,5.88-1.53,1.52-3.93,2.21-5.93,1.42,.48,1.88,.31,4.02-.86,5.57-1.17,1.55-3.47,2.29-5.17,1.36-1.54-.84-2.21-2.71-2.42-4.46-.51-4.22,.98-8.64,3.95-11.68s7.35-4.65,11.58-4.25"/><g><path class="cls-7" d="M167.58,46.85c-.93-.57-2.2-.1-2.94,.7-1.16,1.27-1.36,3.32-.47,4.79,.89,1.47,2.8,2.24,4.46,1.8"/><path class="cls-6" d="M167.37,52.05s-.31,.08-.79-.05c-.46-.13-1.16-.5-1.43-1.28-.13-.38-.11-.79,.04-1.11,.14-.32,.37-.54,.58-.69,.43-.28,.76-.27,.76-.24,.02,.05-.28,.13-.62,.42-.34,.28-.68,.87-.45,1.51,.21,.63,.79,.99,1.2,1.17,.42,.18,.72,.22,.71,.27Z"/></g><path class="cls-10" d="M181.63,42.45c-.09,.27-1.11,.17-2.32,.23-1.21,.04-2.22,.21-2.33-.05-.11-.24,.88-.9,2.29-.95,1.41-.06,2.45,.53,2.36,.78Z"/><path class="cls-10" d="M191.4,42.26c-.11,.1-.32,.03-.56-.03-.25-.06-.49-.09-.85-.05-.37,.04-.77,.1-1.07,.09-.31,0-.52-.07-.56-.2-.04-.13,.1-.31,.36-.48,.26-.17,.65-.36,1.18-.41,.54-.08,1.13,.18,1.35,.47,.24,.29,.25,.52,.15,.61Z"/><path class="cls-6" d="M182.95,54.19c.53-.31,1.19-.46,1.76-.25,.58,.21,1.01,.84,.88,1.44-.07,.33-.3,.6-.57,.8-.41,.31-.95,.46-1.45,.36-.5-.11-.95-.49-1.08-.99-.13-.5,.1-1.08,.57-1.31"/><path class="cls-10" d="M186.37,54.93s-.22,.2-.67,.29c-.44,.1-1.11,.1-1.77-.17-.66-.27-1.13-.75-1.37-1.13-.25-.39-.3-.67-.26-.68,.05-.02,.18,.22,.45,.54,.27,.32,.72,.72,1.31,.97,.59,.25,1.19,.28,1.61,.25,.42-.03,.69-.11,.71-.06Z"/><path class="cls-5" d="M172.21,58.26s-.01-.49-.23-1.31c-.22-.81-.77-2-1.99-2.92-.61-.45-1.37-.83-2.24-.98-.87-.14-1.85-.11-2.78,.24-.47,.16-.92,.41-1.34,.72-.42,.31-.8,.68-1.11,1.12-.65,.87-1.01,1.98-1.02,3.12,.01,1.14,.38,2.26,1.02,3.12,.31,.44,.69,.82,1.11,1.12,.41,.31,.87,.56,1.34,.72,.93,.36,1.91,.39,2.78,.24,.88-.15,1.64-.53,2.24-.98,1.22-.92,1.77-2.11,1.99-2.92,.22-.83,.19-1.32,.23-1.31,.01,0,.02,.12,.02,.35,0,.23-.03,.57-.12,1-.18,.84-.71,2.09-1.97,3.08-.62,.48-1.42,.89-2.34,1.06-.91,.17-1.95,.14-2.94-.23-.5-.17-.98-.43-1.42-.76-.45-.32-.85-.72-1.19-1.19-.69-.92-1.08-2.1-1.09-3.32,.01-1.22,.4-2.4,1.1-3.31,.34-.46,.74-.86,1.19-1.19,.44-.33,.92-.59,1.42-.76,.99-.37,2.02-.39,2.94-.23,.92,.17,1.71,.58,2.34,1.06,1.26,.98,1.79,2.24,1.97,3.08,.1,.43,.13,.77,.12,1,0,.23,0,.35-.02,.35Z"/><path class="cls-9" d="M191.4,27.04s.06,0,.17,.04c.11,.05,.27,.12,.44,.28,.33,.3,.71,.97,.56,1.83-.14,.87-1.02,1.71-2.17,1.93-1.17,.25-2.49-.2-3.68-.88l-1.3-.75,1.42,.47c.49,.16,.84,.61,.96,1.1,.13,.49,.07,1.04-.2,1.5-.28,.46-.76,.77-1.28,.9-.52,.14-1.07,.12-1.59-.04-1.28-.4-2.1-1.43-2.73-2.36l-.91-1.33,1.16,1.12c.66,.64,.81,1.59,.62,2.37-.18,.8-.73,1.46-1.4,1.77-1.35,.64-2.78,.24-3.57-.44-.83-.68-1.18-1.48-1.35-2.02-.09-.27-.13-.49-.15-.64-.02-.15-.02-.22-.01-.23,.03,0,.07,.3,.27,.82,.2,.51,.58,1.27,1.38,1.89,.76,.62,2.11,.95,3.32,.35,.6-.29,1.07-.87,1.22-1.59,.16-.7,.01-1.54-.55-2.07l.25-.21c.62,.91,1.42,1.88,2.56,2.22,.92,.28,2.03,.04,2.49-.72,.46-.74,.18-1.89-.58-2.14l.13-.28c1.16,.68,2.4,1.1,3.48,.89,1.08-.18,1.89-.93,2.04-1.71,.16-.78-.16-1.42-.45-1.72-.3-.32-.56-.37-.54-.4Z"/><path class="cls-9" d="M174.67,38.26s-.02,.05-.08,.12c-.06,.08-.16,.18-.29,.31-.27,.25-.73,.6-1.4,.83-.66,.23-1.58,.35-2.54,.04-.95-.3-1.94-1.02-2.49-2.16l.26-.04c-.23,1.46-1.42,2.93-3.14,3.33-1.71,.39-3.77-.52-4.57-2.31-.71-1.61-.25-3.51,.88-4.59l.22,.24c-.77,.64-1.73,.95-2.64,.96-.91,.02-1.78-.24-2.48-.68-.7-.44-1.22-1.07-1.48-1.74-.27-.67-.35-1.34-.31-1.94,.09-1.21,.61-2.07,1.03-2.55,.44-.49,.77-.64,.77-.64,.02,.03-.28,.21-.68,.71-.39,.49-.86,1.34-.91,2.49-.02,.57,.06,1.21,.33,1.83,.26,.62,.75,1.2,1.41,1.6,.66,.4,1.47,.63,2.33,.61,.85-.01,1.74-.31,2.44-.9l.22,.24c-1.02,.99-1.45,2.76-.8,4.22,.72,1.63,2.64,2.48,4.19,2.13,1.58-.35,2.72-1.72,2.94-3.06l.07-.44,.19,.4c.5,1.06,1.42,1.76,2.31,2.06,.9,.31,1.77,.22,2.42,.02,.66-.2,1.11-.52,1.4-.75,.29-.23,.42-.38,.43-.37Z"/><path class="cls-9" d="M162.21,49.43s-.16,.16-.54,.32c-.38,.16-.98,.33-1.74,.27-.75-.06-1.69-.38-2.4-1.17-.7-.77-1.16-1.96-.94-3.22l.29,.13c-.58,.77-1.38,1.47-2.36,1.93-.73,.34-1.52,.51-2.29,.49-.76-.03-1.49-.23-2.1-.58-1.25-.66-1.95-1.91-2-2.97-.08-1.07,.3-1.89,.65-2.36,.18-.23,.35-.39,.47-.48,.12-.09,.19-.13,.2-.12,.02,.03-.25,.21-.56,.68-.3,.46-.62,1.26-.52,2.26,.08,.99,.74,2.11,1.91,2.72,1.15,.64,2.73,.72,4.1,.06,.92-.43,1.68-1.09,2.24-1.82l.41-.53-.12,.65c-.21,1.14,.2,2.26,.83,2.98,.64,.74,1.5,1.07,2.21,1.15,.72,.09,1.3-.05,1.68-.17,.38-.13,.57-.24,.58-.22Z"/><path class="cls-9" d="M197.78,35.82s.19,.43,.14,1.16c-.04,.72-.36,1.75-1.15,2.58-.79,.82-1.81,1.18-2.52,1.26-.73,.08-1.17-.05-1.17-.09,0-.06,.45,0,1.13-.15,.67-.13,1.59-.5,2.32-1.26,.72-.76,1.05-1.7,1.15-2.37,.11-.69,.04-1.13,.1-1.13Z"/><path class="cls-9" d="M201.62,42.4s.1,.15,.16,.48c.05,.32,.08,.81-.13,1.38-.2,.55-.68,1.22-1.52,1.4-.4,.09-.85,.06-1.27-.11-.42-.16-.81-.5-1-.97l.32-.11c.05,.19,.09,.4,.08,.62-.03,1.05-.74,1.93-1.57,2.24-.42,.15-.87,.15-1.25,.05-.38-.11-.7-.3-.94-.52-.5-.44-.7-.96-.76-1.32-.06-.36,0-.56,.02-.56,.03,0,.02,.2,.11,.53,.09,.32,.31,.79,.79,1.16,.45,.38,1.2,.65,1.93,.36,.71-.28,1.33-1.06,1.35-1.95,0-.18-.03-.36-.06-.52l.32-.11c.3,.76,1.23,1.05,1.9,.91,.71-.13,1.16-.69,1.37-1.19,.22-.51,.23-.97,.22-1.28-.02-.31-.06-.48-.03-.49Z"/><path class="cls-10" d="M182.47,51.73s.07,.14,.01,.36c-.05,.21-.21,.49-.47,.7-.26,.21-.56,.32-.78,.33-.22,.01-.35-.04-.35-.08,0-.1,.48-.14,.91-.51,.44-.35,.57-.82,.67-.8Z"/></g></g><g><path class="cls-5" d="M332.15,231.85c-1.57,2.24-4.61,1.5-6.03,.13-1.41-1.37-2.01-3.35-2.55-5.24-1.24-4.32-2.49-8.84-1.57-13.24,.28-1.31,.77-2.62,1.69-3.6,.92-.97,2.34-1.55,3.64-1.21,1.54,.41,2.49,1.91,3.18,3.34,2.03,4.21,3.1,8.87,3.12,13.54,0,2.18-.25,4.47-1.48,6.27"/><g class="cls-11"><path d="M332.15,231.85c-1.57,2.24-4.61,1.5-6.03,.13-1.41-1.37-2.01-3.35-2.55-5.24-1.24-4.32-2.49-8.84-1.57-13.24,.28-1.31,.77-2.62,1.69-3.6,.92-.97,2.34-1.55,3.64-1.21,1.54,.41,2.49,1.91,3.18,3.34,2.03,4.21,3.1,8.87,3.12,13.54,0,2.18-.25,4.47-1.48,6.27"/></g><path class="cls-5" d="M326.28,243.19c-2.56-1.32-5.58-1.49-8.43-1.02-1.53,.25-3.12,.71-4.16,1.86-1.04,1.15-1.24,3.17-.04,4.16,.71,.59,1.7,.68,2.63,.67,2.23-.03,4.7-.42,6.48,.92,1.02,.76,1.69,2.04,2.91,2.41,1.19,.37,2.53-.33,3.16-1.41,.63-1.07,.65-2.41,.36-3.62,0,0-.31-2.63-2.89-3.97Z"/><path class="cls-5" d="M336.46,235.06c-1.7-2.02-2.03-4.97-1.27-7.5,.76-2.53,2.47-4.68,4.44-6.44,2.31-2.06,5.03-3.66,7.95-4.69,1.15-.4,2.36-.72,3.58-.61,1.21,.12,2.44,.74,3,1.82,.84,1.6,.03,3.53-.83,5.11-1.53,2.78-3.28,5.44-5.22,7.95-1.57,2.02-3.36,4.01-5.74,4.92-2.39,.91-4.86,.8-6.13-.85"/><path class="cls-10" d="M332.26,265.62s-.08-.36-.14-1.02c-.07-.74-.16-1.67-.27-2.78-.13-1.17-.3-2.56-.62-4.07-.32-1.51-.83-3.15-1.48-4.81-.67-1.65-1.49-3.15-2.45-4.35-.95-1.2-2.06-2.08-3.1-2.58-1.04-.51-1.97-.72-2.61-.81-.65-.07-1.01-.12-1.01-.15,0-.03,.36-.03,1.03-.02,.66,.04,1.63,.21,2.73,.71,1.1,.49,2.27,1.37,3.27,2.6,1.01,1.22,1.86,2.76,2.54,4.44,.66,1.69,1.16,3.34,1.47,4.89,.31,1.54,.45,2.95,.54,4.12,.09,1.18,.12,2.13,.14,2.79,.01,.66,0,1.03-.02,1.03Z"/><path class="cls-10" d="M332.07,263.49s-.02-.16-.03-.47c0-.35,0-.8,0-1.35,0-1.17,0-2.87-.06-4.96-.1-4.19-.46-9.97-1.16-16.32-.7-6.36-1.63-12.07-2.48-16.17-.2-1.03-.4-1.95-.59-2.76-.18-.81-.34-1.51-.48-2.08-.13-.53-.23-.97-.32-1.31-.07-.3-.1-.46-.08-.47,.01,0,.07,.15,.16,.44,.1,.34,.23,.77,.39,1.29,.17,.56,.35,1.26,.56,2.07,.21,.81,.43,1.73,.65,2.76,.92,4.1,1.9,9.82,2.61,16.19,.7,6.37,1.01,12.16,1.04,16.36,.02,2.1-.02,3.8-.07,4.97-.03,.55-.06,.99-.08,1.35-.02,.31-.04,.47-.06,.47Z"/><path class="cls-10" d="M332.04,252.31s-.02-.5,0-1.41c.05-.91,.18-2.22,.43-3.82,.27-1.6,.65-3.5,1.24-5.57,.56-2.07,1.34-4.31,2.33-6.59,1.93-4.58,4.55-8.33,6.84-10.65,.54-.62,1.13-1.06,1.61-1.5,.25-.21,.46-.42,.69-.58,.22-.15,.43-.3,.62-.43,.75-.51,1.17-.78,1.19-.76,.07,.09-1.68,1.12-3.89,3.47-2.2,2.35-4.75,6.06-6.67,10.61-.98,2.26-1.76,4.47-2.34,6.53-.61,2.05-1.02,3.93-1.32,5.51-.29,1.59-.46,2.89-.56,3.78-.08,.9-.14,1.4-.17,1.4Z"/></g><g><path class="cls-10" d="M111.47,0s-.15,.03-.44,.05c-.31,.03-.74,.06-1.28,.11-.57,.02-1.25,.15-2.06,.3-.4,.09-.85,.12-1.3,.26-.46,.13-.94,.27-1.45,.42-2.02,.66-4.46,1.71-6.9,3.52-2.44,1.8-4.86,4.35-6.74,7.68-.99,1.63-1.7,3.51-2.33,5.49-.51,2.01-.96,4.14-.97,6.39-.09,1.12,.04,2.26,.1,3.41,.04,.58,.17,1.15,.25,1.73,.09,.58,.18,1.17,.35,1.74,.5,2.33,1.48,4.61,2.71,6.8,2.46,4.38,6.55,8.14,11.58,10.28,2.51,1.08,5.29,1.64,8.1,1.72,2.82,.15,5.7-.34,8.42-1.31l.82-.31,.11-.04,.1,.05c4.07,2.01,8.06,3.98,11.93,5.89l-.35,.3c-1.31-3.92-2.58-7.72-3.8-11.36l-.05-.14,.1-.11c2.96-3.03,5-6.69,6.11-10.43,1.12-3.75,1.27-7.55,.78-11.04-.49-3.49-1.67-6.65-3.22-9.31-1.55-2.66-3.47-4.82-5.43-6.5-1.98-1.67-4.04-2.79-5.87-3.64-1.88-.76-3.55-1.24-4.94-1.5-.69-.11-1.31-.21-1.85-.29-.53-.03-.99-.06-1.36-.08-.35-.02-.63-.04-.83-.05-.19-.01-.28-.03-.28-.03,0,0,.1,0,.28,0,.21,0,.49,0,.84,.01,.38,.01,.83,.02,1.37,.04,.54,.07,1.17,.16,1.87,.26,1.4,.23,3.1,.69,5,1.44,1.86,.84,3.95,1.96,5.97,3.63,2,1.68,3.96,3.85,5.55,6.55,1.59,2.69,2.81,5.89,3.32,9.43,.51,3.53,.37,7.4-.75,11.22-1.12,3.81-3.19,7.54-6.2,10.64l.06-.25c1.23,3.64,2.5,7.44,3.82,11.35l.19,.57-.54-.27c-3.87-1.91-7.86-3.87-11.94-5.88h.21s-.84,.33-.84,.33c-2.78,.99-5.73,1.49-8.61,1.34-2.88-.09-5.71-.67-8.28-1.77-5.13-2.2-9.3-6.04-11.79-10.51-1.25-2.23-2.24-4.55-2.74-6.93-.17-.58-.26-1.18-.35-1.77-.08-.59-.21-1.17-.25-1.76-.06-1.17-.18-2.33-.09-3.47,.02-2.28,.48-4.45,1.01-6.48,.65-2,1.38-3.91,2.39-5.56,1.92-3.36,4.4-5.93,6.88-7.73,2.49-1.81,4.96-2.84,7.01-3.48,.52-.14,1.01-.28,1.47-.4,.46-.13,.91-.16,1.32-.24,.82-.14,1.51-.25,2.08-.25,.55-.02,.97-.04,1.29-.06,.29-.01,.44-.01,.44,0Z"/><g><path class="cls-5" d="M117.08,21.91l-1.74,.02-3.85-5.24-.04-3.47s-2.69-.13-2.32,4.41c.37,4.54,.01,3.39,.01,3.39,0,0-5.71,.09-6.17,.59-.34,.36-.43,6.03-.46,9.11-.01,1.55,.95,2.98,2.4,3.33,.21,.05,.41,.08,.62,.08,1.42-.02,8.68-1.26,8.68-1.26l3-.03-.12-10.91Z"/><polygon class="cls-5" points="122.05 20.9 121.11 32.81 118.14 32.84 118 21.19 122.05 20.9"/></g></g></svg>